<?xml version="1.0" encoding="UTF-8" standalone="no"?>
<!DOCTYPE svg PUBLIC "-//W3C//DTD SVG 1.1//EN"
 "http://www.w3.org/Graphics/SVG/1.1/DTD/svg11.dtd">
<!-- Generated by graphviz version 2.38.0 (20140413.2041)
 -->
<!-- Title: snakemake_dag Pages: 1 -->
<svg width="2155pt" height="724pt"
 viewBox="0.00 0.00 2154.50 724.00" xmlns="http://www.w3.org/2000/svg" xmlns:xlink="http://www.w3.org/1999/xlink">
<g id="graph0" class="graph" transform="scale(1 1) rotate(0) translate(4 720)">
<title>snakemake_dag</title>
<polygon fill="white" stroke="none" points="-4,4 -4,-720 2150.5,-720 2150.5,4 -4,4"/>
<!-- 0 -->
<g id="node1" class="node"><title>0</title>
<path fill="none" stroke="#56d8b9" stroke-width="2" d="M831,-36C831,-36 801,-36 801,-36 795,-36 789,-30 789,-24 789,-24 789,-12 789,-12 789,-6 795,-0 801,-0 801,-0 831,-0 831,-0 837,-0 843,-6 843,-12 843,-12 843,-24 843,-24 843,-30 837,-36 831,-36"/>
<text text-anchor="middle" x="816" y="-15.5" font-family="sans" font-size="10.00">all</text>
</g>
<!-- 1 -->
<g id="node2" class="node"><title>1</title>
<path fill="none" stroke="#80d856" stroke-width="2" d="M422.5,-108C422.5,-108 339.5,-108 339.5,-108 333.5,-108 327.5,-102 327.5,-96 327.5,-96 327.5,-84 327.5,-84 327.5,-78 333.5,-72 339.5,-72 339.5,-72 422.5,-72 422.5,-72 428.5,-72 434.5,-78 434.5,-84 434.5,-84 434.5,-96 434.5,-96 434.5,-102 428.5,-108 422.5,-108"/>
<text text-anchor="middle" x="381" y="-87.5" font-family="sans" font-size="10.00">create_indel_table</text>
</g>
<!-- 1&#45;&gt;0 -->
<g id="edge1" class="edge"><title>1&#45;&gt;0</title>
<path fill="none" stroke="grey" stroke-width="2" d="M434.776,-80.3464C524.222,-65.9528 701.353,-37.4489 778.559,-25.0249"/>
<polygon fill="grey" stroke="grey" stroke-width="2" points="779.454,-28.4261 788.771,-23.3817 778.342,-21.515 779.454,-28.4261"/>
</g>
<!-- 2 -->
<g id="node3" class="node"><title>2</title>
<path fill="none" stroke="#5692d8" stroke-width="2" d="M829.5,-252C829.5,-252 692.5,-252 692.5,-252 686.5,-252 680.5,-246 680.5,-240 680.5,-240 680.5,-228 680.5,-228 680.5,-222 686.5,-216 692.5,-216 692.5,-216 829.5,-216 829.5,-216 835.5,-216 841.5,-222 841.5,-228 841.5,-228 841.5,-240 841.5,-240 841.5,-246 835.5,-252 829.5,-252"/>
<text text-anchor="middle" x="761" y="-231.5" font-family="sans" font-size="10.00">create_and_make_expr_table</text>
</g>
<!-- 2&#45;&gt;0 -->
<g id="edge2" class="edge"><title>2&#45;&gt;0</title>
<path fill="none" stroke="grey" stroke-width="2" d="M764.098,-215.903C769.622,-186.303 782.011,-123.718 797,-72 799.515,-63.3231 802.69,-54.0034 805.722,-45.636"/>
<polygon fill="grey" stroke="grey" stroke-width="2" points="809.096,-46.6021 809.293,-36.0091 802.533,-44.167 809.096,-46.6021"/>
</g>
<!-- 3 -->
<g id="node4" class="node"><title>3</title>
<path fill="none" stroke="#56d8c9" stroke-width="2" d="M904,-108C904,-108 818,-108 818,-108 812,-108 806,-102 806,-96 806,-96 806,-84 806,-84 806,-78 812,-72 818,-72 818,-72 904,-72 904,-72 910,-72 916,-78 916,-84 916,-84 916,-96 916,-96 916,-102 910,-108 904,-108"/>
<text text-anchor="middle" x="861" y="-87.5" font-family="sans" font-size="10.00">nonsyn_snps_table</text>
</g>
<!-- 3&#45;&gt;0 -->
<g id="edge3" class="edge"><title>3&#45;&gt;0</title>
<path fill="none" stroke="grey" stroke-width="2" d="M849.876,-71.6966C844.645,-63.5589 838.3,-53.689 832.522,-44.7013"/>
<polygon fill="grey" stroke="grey" stroke-width="2" points="835.347,-42.6235 826.996,-36.1043 829.459,-46.4088 835.347,-42.6235"/>
</g>
<!-- 4 -->
<g id="node5" class="node"><title>4</title>
<path fill="none" stroke="#56d8a9" stroke-width="2" d="M1226,-108C1226,-108 1164,-108 1164,-108 1158,-108 1152,-102 1152,-96 1152,-96 1152,-84 1152,-84 1152,-78 1158,-72 1164,-72 1164,-72 1226,-72 1226,-72 1232,-72 1238,-78 1238,-84 1238,-84 1238,-96 1238,-96 1238,-102 1232,-108 1226,-108"/>
<text text-anchor="middle" x="1195" y="-87.5" font-family="sans" font-size="10.00">find_best_tree</text>
</g>
<!-- 4&#45;&gt;0 -->
<g id="edge4" class="edge"><title>4&#45;&gt;0</title>
<path fill="none" stroke="grey" stroke-width="2" d="M1151.89,-81.0383C1076.97,-67.2001 923.981,-38.9437 853.312,-25.8914"/>
<polygon fill="grey" stroke="grey" stroke-width="2" points="853.57,-22.38 843.101,-24.0055 852.299,-29.2636 853.57,-22.38"/>
</g>
<!-- 5 -->
<g id="node6" class="node"><title>5</title>
<path fill="none" stroke="#61d856" stroke-width="2" d="M1004,-180C1004,-180 936,-180 936,-180 930,-180 924,-174 924,-168 924,-168 924,-156 924,-156 924,-150 930,-144 936,-144 936,-144 1004,-144 1004,-144 1010,-144 1016,-150 1016,-156 1016,-156 1016,-168 1016,-168 1016,-174 1010,-180 1004,-180"/>
<text text-anchor="middle" x="970" y="-159.5" font-family="sans" font-size="10.00">syn_snps_table</text>
</g>
<!-- 5&#45;&gt;0 -->
<g id="edge5" class="edge"><title>5&#45;&gt;0</title>
<path fill="none" stroke="grey" stroke-width="2" d="M965.051,-143.915C958.63,-124.359 945.728,-92.4076 925,-72 904.795,-52.1071 875.661,-38.4718 852.595,-30.0181"/>
<polygon fill="grey" stroke="grey" stroke-width="2" points="853.72,-26.7038 843.126,-26.7092 851.411,-33.312 853.72,-26.7038"/>
</g>
<!-- 6 -->
<g id="node7" class="node"><title>6</title>
<path fill="none" stroke="#56c1d8" stroke-width="2" d="M666.5,-108C666.5,-108 577.5,-108 577.5,-108 571.5,-108 565.5,-102 565.5,-96 565.5,-96 565.5,-84 565.5,-84 565.5,-78 571.5,-72 577.5,-72 577.5,-72 666.5,-72 666.5,-72 672.5,-72 678.5,-78 678.5,-84 678.5,-84 678.5,-96 678.5,-96 678.5,-102 672.5,-108 666.5,-108"/>
<text text-anchor="middle" x="622" y="-87.5" font-family="sans" font-size="10.00">compute_gpa_table</text>
</g>
<!-- 6&#45;&gt;0 -->
<g id="edge6" class="edge"><title>6&#45;&gt;0</title>
<path fill="none" stroke="grey" stroke-width="2" d="M669.458,-71.8761C703.265,-59.6775 748.048,-43.5187 779.171,-32.2887"/>
<polygon fill="grey" stroke="grey" stroke-width="2" points="780.546,-35.5135 788.765,-28.8271 778.171,-28.929 780.546,-35.5135"/>
</g>
<!-- 7 -->
<g id="node8" class="node"><title>7</title>
<path fill="none" stroke="#ced856" stroke-width="2" d="M358,-396C358,-396 246,-396 246,-396 240,-396 234,-390 234,-384 234,-384 234,-372 234,-372 234,-366 240,-360 246,-360 246,-360 358,-360 358,-360 364,-360 370,-366 370,-372 370,-372 370,-384 370,-384 370,-390 364,-396 358,-396"/>
<text text-anchor="middle" x="302" y="-375.5" font-family="sans" font-size="10.00">compute_gpa_raw_table</text>
</g>
<!-- 7&#45;&gt;1 -->
<g id="edge7" class="edge"><title>7&#45;&gt;1</title>
<path fill="none" stroke="grey" stroke-width="2" d="M300.626,-359.92C298.135,-319.994 296.01,-218.313 331,-144 335.992,-133.398 343.919,-123.528 352.003,-115.25"/>
<polygon fill="grey" stroke="grey" stroke-width="2" points="354.626,-117.582 359.391,-108.119 349.765,-112.545 354.626,-117.582"/>
</g>
<!-- 7&#45;&gt;6 -->
<g id="edge13" class="edge"><title>7&#45;&gt;6</title>
<path fill="none" stroke="grey" stroke-width="2" d="M367.489,-359.929C391.748,-351.604 418.546,-339.879 440,-324 518.74,-265.719 581.23,-164.837 607.937,-117.266"/>
<polygon fill="grey" stroke="grey" stroke-width="2" points="611.161,-118.668 612.941,-108.224 605.036,-115.279 611.161,-118.668"/>
</g>
<!-- 34 -->
<g id="node35" class="node"><title>34</title>
<path fill="none" stroke="#56d85b" stroke-width="2" d="M419.5,-324C419.5,-324 342.5,-324 342.5,-324 336.5,-324 330.5,-318 330.5,-312 330.5,-312 330.5,-300 330.5,-300 330.5,-294 336.5,-288 342.5,-288 342.5,-288 419.5,-288 419.5,-288 425.5,-288 431.5,-294 431.5,-300 431.5,-300 431.5,-312 431.5,-312 431.5,-318 425.5,-324 419.5,-324"/>
<text text-anchor="middle" x="381" y="-303.5" font-family="sans" font-size="10.00">sort_gene_family</text>
</g>
<!-- 7&#45;&gt;34 -->
<g id="edge53" class="edge"><title>7&#45;&gt;34</title>
<path fill="none" stroke="grey" stroke-width="2" d="M321.528,-359.697C331.382,-350.965 343.486,-340.24 354.196,-330.75"/>
<polygon fill="grey" stroke="grey" stroke-width="2" points="356.533,-333.356 361.697,-324.104 351.891,-328.117 356.533,-333.356"/>
</g>
<!-- 8 -->
<g id="node9" class="node"><title>8</title>
<path fill="none" stroke="#56d87b" stroke-width="2" d="M409.5,-180C409.5,-180 352.5,-180 352.5,-180 346.5,-180 340.5,-174 340.5,-168 340.5,-168 340.5,-156 340.5,-156 340.5,-150 346.5,-144 352.5,-144 352.5,-144 409.5,-144 409.5,-144 415.5,-144 421.5,-150 421.5,-156 421.5,-156 421.5,-168 421.5,-168 421.5,-174 415.5,-180 409.5,-180"/>
<text text-anchor="middle" x="381" y="-159.5" font-family="sans" font-size="10.00">vcf_to_indels</text>
</g>
<!-- 8&#45;&gt;1 -->
<g id="edge8" class="edge"><title>8&#45;&gt;1</title>
<path fill="none" stroke="grey" stroke-width="2" d="M381,-143.697C381,-135.983 381,-126.712 381,-118.112"/>
<polygon fill="grey" stroke="grey" stroke-width="2" points="384.5,-118.104 381,-108.104 377.5,-118.104 384.5,-118.104"/>
</g>
<!-- 9 -->
<g id="node10" class="node"><title>9</title>
<path fill="none" stroke="#5663d8" stroke-width="2" d="M769.5,-396C769.5,-396 708.5,-396 708.5,-396 702.5,-396 696.5,-390 696.5,-384 696.5,-384 696.5,-372 696.5,-372 696.5,-366 702.5,-360 708.5,-360 708.5,-360 769.5,-360 769.5,-360 775.5,-360 781.5,-366 781.5,-372 781.5,-372 781.5,-384 781.5,-384 781.5,-390 775.5,-396 769.5,-396"/>
<text text-anchor="middle" x="739" y="-375.5" font-family="sans" font-size="10.00">write_dict_file</text>
</g>
<!-- 9&#45;&gt;2 -->
<g id="edge9" class="edge"><title>9&#45;&gt;2</title>
<path fill="none" stroke="grey" stroke-width="2" d="M741.654,-359.871C745.403,-335.67 752.291,-291.211 756.756,-262.393"/>
<polygon fill="grey" stroke="grey" stroke-width="2" points="760.264,-262.607 758.337,-252.189 753.347,-261.535 760.264,-262.607"/>
</g>
<!-- 10 -->
<g id="node11" class="node"><title>10</title>
<path fill="none" stroke="#56d0d8" stroke-width="2" d="M1002,-252C1002,-252 940,-252 940,-252 934,-252 928,-246 928,-240 928,-240 928,-228 928,-228 928,-222 934,-216 940,-216 940,-216 1002,-216 1002,-216 1008,-216 1014,-222 1014,-228 1014,-228 1014,-240 1014,-240 1014,-246 1008,-252 1002,-252"/>
<text text-anchor="middle" x="971" y="-231.5" font-family="sans" font-size="10.00">all_snps_table</text>
</g>
<!-- 10&#45;&gt;3 -->
<g id="edge10" class="edge"><title>10&#45;&gt;3</title>
<path fill="none" stroke="grey" stroke-width="2" d="M950.272,-215.797C939.108,-205.961 925.51,-193.02 915,-180 899.146,-160.36 884.519,-135.662 874.499,-117.269"/>
<polygon fill="grey" stroke="grey" stroke-width="2" points="877.497,-115.455 869.696,-108.286 871.324,-118.755 877.497,-115.455"/>
</g>
<!-- 10&#45;&gt;5 -->
<g id="edge12" class="edge"><title>10&#45;&gt;5</title>
<path fill="none" stroke="grey" stroke-width="2" d="M970.753,-215.697C970.643,-207.983 970.51,-198.712 970.387,-190.112"/>
<polygon fill="grey" stroke="grey" stroke-width="2" points="973.887,-190.053 970.244,-180.104 966.888,-190.153 973.887,-190.053"/>
</g>
<!-- 11 -->
<g id="node12" class="node"><title>11</title>
<path fill="none" stroke="#70d856" stroke-width="2" d="M1425,-180C1425,-180 1319,-180 1319,-180 1313,-180 1307,-174 1307,-168 1307,-168 1307,-156 1307,-156 1307,-150 1313,-144 1319,-144 1319,-144 1425,-144 1425,-144 1431,-144 1437,-150 1437,-156 1437,-156 1437,-168 1437,-168 1437,-174 1431,-180 1425,-180"/>
<text text-anchor="middle" x="1372" y="-159.5" font-family="sans" font-size="10.00">postprocess_alignment</text>
</g>
<!-- 11&#45;&gt;4 -->
<g id="edge11" class="edge"><title>11&#45;&gt;4</title>
<path fill="none" stroke="grey" stroke-width="2" d="M1328.7,-143.876C1304.29,-134.222 1273.6,-122.087 1247.79,-111.878"/>
<polygon fill="grey" stroke="grey" stroke-width="2" points="1248.74,-108.491 1238.16,-108.068 1246.17,-115.001 1248.74,-108.491"/>
</g>
<!-- 12 -->
<g id="node13" class="node"><title>12</title>
<path fill="none" stroke="#d89556" stroke-width="2" d="M232.5,-468C232.5,-468 191.5,-468 191.5,-468 185.5,-468 179.5,-462 179.5,-456 179.5,-456 179.5,-444 179.5,-444 179.5,-438 185.5,-432 191.5,-432 191.5,-432 232.5,-432 232.5,-432 238.5,-432 244.5,-438 244.5,-444 244.5,-444 244.5,-456 244.5,-456 244.5,-462 238.5,-468 232.5,-468"/>
<text text-anchor="middle" x="212" y="-447.5" font-family="sans" font-size="10.00">create_gff</text>
</g>
<!-- 12&#45;&gt;7 -->
<g id="edge14" class="edge"><title>12&#45;&gt;7</title>
<path fill="none" stroke="grey" stroke-width="2" d="M234.247,-431.697C245.582,-422.881 259.53,-412.032 271.819,-402.474"/>
<polygon fill="grey" stroke="grey" stroke-width="2" points="274.264,-405.007 280.009,-396.104 269.966,-399.481 274.264,-405.007"/>
</g>
<!-- 12&#45;&gt;34 -->
<g id="edge57" class="edge"><title>12&#45;&gt;34</title>
<path fill="none" stroke="grey" stroke-width="2" d="M209.603,-431.828C207.863,-412.191 208.217,-380.163 225,-360 248.383,-331.908 287.29,-318.655 320.397,-312.427"/>
<polygon fill="grey" stroke="grey" stroke-width="2" points="321.193,-315.842 330.462,-310.711 320.016,-308.941 321.193,-315.842"/>
</g>
<!-- 13 -->
<g id="node14" class="node"><title>13</title>
<path fill="none" stroke="#d89556" stroke-width="2" d="M326.5,-468C326.5,-468 285.5,-468 285.5,-468 279.5,-468 273.5,-462 273.5,-456 273.5,-456 273.5,-444 273.5,-444 273.5,-438 279.5,-432 285.5,-432 285.5,-432 326.5,-432 326.5,-432 332.5,-432 338.5,-438 338.5,-444 338.5,-444 338.5,-456 338.5,-456 338.5,-462 332.5,-468 326.5,-468"/>
<text text-anchor="middle" x="306" y="-447.5" font-family="sans" font-size="10.00">create_gff</text>
</g>
<!-- 13&#45;&gt;7 -->
<g id="edge15" class="edge"><title>13&#45;&gt;7</title>
<path fill="none" stroke="grey" stroke-width="2" d="M305.011,-431.697C304.57,-423.983 304.041,-414.712 303.549,-406.112"/>
<polygon fill="grey" stroke="grey" stroke-width="2" points="307.042,-405.888 302.977,-396.104 300.054,-406.288 307.042,-405.888"/>
</g>
<!-- 13&#45;&gt;34 -->
<g id="edge54" class="edge"><title>13&#45;&gt;34</title>
<path fill="none" stroke="grey" stroke-width="2" d="M338.532,-434.114C353.692,-425.333 370.277,-412.647 379,-396 388.894,-377.118 388.707,-352.746 386.43,-334.282"/>
<polygon fill="grey" stroke="grey" stroke-width="2" points="389.859,-333.547 384.908,-324.18 382.937,-334.59 389.859,-333.547"/>
</g>
<!-- 14 -->
<g id="node15" class="node"><title>14</title>
<path fill="none" stroke="#d89556" stroke-width="2" d="M452.5,-468C452.5,-468 411.5,-468 411.5,-468 405.5,-468 399.5,-462 399.5,-456 399.5,-456 399.5,-444 399.5,-444 399.5,-438 405.5,-432 411.5,-432 411.5,-432 452.5,-432 452.5,-432 458.5,-432 464.5,-438 464.5,-444 464.5,-444 464.5,-456 464.5,-456 464.5,-462 458.5,-468 452.5,-468"/>
<text text-anchor="middle" x="432" y="-447.5" font-family="sans" font-size="10.00">create_gff</text>
</g>
<!-- 14&#45;&gt;7 -->
<g id="edge16" class="edge"><title>14&#45;&gt;7</title>
<path fill="none" stroke="grey" stroke-width="2" d="M400.198,-431.876C382.886,-422.554 361.279,-410.919 342.744,-400.939"/>
<polygon fill="grey" stroke="grey" stroke-width="2" points="344.388,-397.849 333.924,-396.19 341.069,-404.012 344.388,-397.849"/>
</g>
<!-- 14&#45;&gt;34 -->
<g id="edge55" class="edge"><title>14&#45;&gt;34</title>
<path fill="none" stroke="grey" stroke-width="2" d="M429.744,-431.807C426.98,-413.533 421.458,-384.019 412,-360 408.386,-350.822 403.334,-341.355 398.357,-333.006"/>
<polygon fill="grey" stroke="grey" stroke-width="2" points="401.299,-331.109 393.056,-324.453 395.349,-334.797 401.299,-331.109"/>
</g>
<!-- 15 -->
<g id="node16" class="node"><title>15</title>
<path fill="none" stroke="#d89556" stroke-width="2" d="M149.5,-468C149.5,-468 108.5,-468 108.5,-468 102.5,-468 96.5,-462 96.5,-456 96.5,-456 96.5,-444 96.5,-444 96.5,-438 102.5,-432 108.5,-432 108.5,-432 149.5,-432 149.5,-432 155.5,-432 161.5,-438 161.5,-444 161.5,-444 161.5,-456 161.5,-456 161.5,-462 155.5,-468 149.5,-468"/>
<text text-anchor="middle" x="129" y="-447.5" font-family="sans" font-size="10.00">create_gff</text>
</g>
<!-- 15&#45;&gt;7 -->
<g id="edge17" class="edge"><title>15&#45;&gt;7</title>
<path fill="none" stroke="grey" stroke-width="2" d="M161.66,-435.419C164.479,-434.259 167.289,-433.106 170,-432 196.241,-421.292 225.483,-409.533 249.761,-399.818"/>
<polygon fill="grey" stroke="grey" stroke-width="2" points="251.163,-403.027 259.148,-396.064 248.564,-396.527 251.163,-403.027"/>
</g>
<!-- 15&#45;&gt;34 -->
<g id="edge56" class="edge"><title>15&#45;&gt;34</title>
<path fill="none" stroke="grey" stroke-width="2" d="M139.796,-431.676C153.182,-411.59 177.832,-378.837 207,-360 241.164,-337.937 284.991,-324.659 320.111,-316.911"/>
<polygon fill="grey" stroke="grey" stroke-width="2" points="321.177,-320.263 330.24,-314.775 319.733,-313.414 321.177,-320.263"/>
</g>
<!-- 16 -->
<g id="node17" class="node"><title>16</title>
<path fill="none" stroke="#56d86b" stroke-width="2" d="M402.5,-252C402.5,-252 359.5,-252 359.5,-252 353.5,-252 347.5,-246 347.5,-240 347.5,-240 347.5,-228 347.5,-228 347.5,-222 353.5,-216 359.5,-216 359.5,-216 402.5,-216 402.5,-216 408.5,-216 414.5,-222 414.5,-228 414.5,-228 414.5,-240 414.5,-240 414.5,-246 408.5,-252 402.5,-252"/>
<text text-anchor="middle" x="381" y="-231.5" font-family="sans" font-size="10.00">aln_to_vcf</text>
</g>
<!-- 16&#45;&gt;8 -->
<g id="edge18" class="edge"><title>16&#45;&gt;8</title>
<path fill="none" stroke="grey" stroke-width="2" d="M381,-215.697C381,-207.983 381,-198.712 381,-190.112"/>
<polygon fill="grey" stroke="grey" stroke-width="2" points="384.5,-190.104 381,-180.104 377.5,-190.104 384.5,-190.104"/>
</g>
<!-- 17 -->
<g id="node18" class="node"><title>17</title>
<path fill="none" stroke="#d8b456" stroke-width="2" d="M580,-468C580,-468 526,-468 526,-468 520,-468 514,-462 514,-456 514,-456 514,-444 514,-444 514,-438 520,-432 526,-432 526,-432 580,-432 580,-432 586,-432 592,-438 592,-444 592,-444 592,-456 592,-456 592,-462 586,-468 580,-468"/>
<text text-anchor="middle" x="553" y="-447.5" font-family="sans" font-size="10.00">gene_counts</text>
</g>
<!-- 17&#45;&gt;9 -->
<g id="edge19" class="edge"><title>17&#45;&gt;9</title>
<path fill="none" stroke="grey" stroke-width="2" d="M592.446,-434.155C619.966,-423.798 656.977,-409.869 686.919,-398.6"/>
<polygon fill="grey" stroke="grey" stroke-width="2" points="688.245,-401.841 696.372,-395.043 685.78,-395.29 688.245,-401.841"/>
</g>
<!-- 18 -->
<g id="node19" class="node"><title>18</title>
<path fill="none" stroke="#d8b456" stroke-width="2" d="M681,-468C681,-468 627,-468 627,-468 621,-468 615,-462 615,-456 615,-456 615,-444 615,-444 615,-438 621,-432 627,-432 627,-432 681,-432 681,-432 687,-432 693,-438 693,-444 693,-444 693,-456 693,-456 693,-462 687,-468 681,-468"/>
<text text-anchor="middle" x="654" y="-447.5" font-family="sans" font-size="10.00">gene_counts</text>
</g>
<!-- 18&#45;&gt;9 -->
<g id="edge20" class="edge"><title>18&#45;&gt;9</title>
<path fill="none" stroke="grey" stroke-width="2" d="M675.011,-431.697C685.716,-422.881 698.89,-412.032 710.496,-402.474"/>
<polygon fill="grey" stroke="grey" stroke-width="2" points="712.736,-405.163 718.23,-396.104 708.286,-399.76 712.736,-405.163"/>
</g>
<!-- 19 -->
<g id="node20" class="node"><title>19</title>
<path fill="none" stroke="#d8b456" stroke-width="2" d="M777,-468C777,-468 723,-468 723,-468 717,-468 711,-462 711,-456 711,-456 711,-444 711,-444 711,-438 717,-432 723,-432 723,-432 777,-432 777,-432 783,-432 789,-438 789,-444 789,-444 789,-456 789,-456 789,-462 783,-468 777,-468"/>
<text text-anchor="middle" x="750" y="-447.5" font-family="sans" font-size="10.00">gene_counts</text>
</g>
<!-- 19&#45;&gt;9 -->
<g id="edge21" class="edge"><title>19&#45;&gt;9</title>
<path fill="none" stroke="grey" stroke-width="2" d="M747.281,-431.697C746.069,-423.983 744.612,-414.712 743.261,-406.112"/>
<polygon fill="grey" stroke="grey" stroke-width="2" points="746.698,-405.44 741.688,-396.104 739.783,-406.526 746.698,-405.44"/>
</g>
<!-- 20 -->
<g id="node21" class="node"><title>20</title>
<path fill="none" stroke="#d8b456" stroke-width="2" d="M873,-468C873,-468 819,-468 819,-468 813,-468 807,-462 807,-456 807,-456 807,-444 807,-444 807,-438 813,-432 819,-432 819,-432 873,-432 873,-432 879,-432 885,-438 885,-444 885,-444 885,-456 885,-456 885,-462 879,-468 873,-468"/>
<text text-anchor="middle" x="846" y="-447.5" font-family="sans" font-size="10.00">gene_counts</text>
</g>
<!-- 20&#45;&gt;9 -->
<g id="edge22" class="edge"><title>20&#45;&gt;9</title>
<path fill="none" stroke="grey" stroke-width="2" d="M819.825,-431.876C805.964,-422.808 788.759,-411.552 773.789,-401.759"/>
<polygon fill="grey" stroke="grey" stroke-width="2" points="775.56,-398.735 765.276,-396.19 771.728,-404.593 775.56,-398.735"/>
</g>
<!-- 21 -->
<g id="node22" class="node"><title>21</title>
<path fill="none" stroke="#afd856" stroke-width="2" d="M949.5,-324C949.5,-324 914.5,-324 914.5,-324 908.5,-324 902.5,-318 902.5,-312 902.5,-312 902.5,-300 902.5,-300 902.5,-294 908.5,-288 914.5,-288 914.5,-288 949.5,-288 949.5,-288 955.5,-288 961.5,-294 961.5,-300 961.5,-300 961.5,-312 961.5,-312 961.5,-318 955.5,-324 949.5,-324"/>
<text text-anchor="middle" x="932" y="-303.5" font-family="sans" font-size="10.00">filter_vcf</text>
</g>
<!-- 21&#45;&gt;10 -->
<g id="edge23" class="edge"><title>21&#45;&gt;10</title>
<path fill="none" stroke="grey" stroke-width="2" d="M941.64,-287.697C946.127,-279.644 951.559,-269.894 956.524,-260.982"/>
<polygon fill="grey" stroke="grey" stroke-width="2" points="959.661,-262.544 961.47,-252.104 953.546,-259.137 959.661,-262.544"/>
</g>
<!-- 22 -->
<g id="node23" class="node"><title>22</title>
<path fill="none" stroke="#d87556" stroke-width="2" d="M1157.5,-324C1157.5,-324 1068.5,-324 1068.5,-324 1062.5,-324 1056.5,-318 1056.5,-312 1056.5,-312 1056.5,-300 1056.5,-300 1056.5,-294 1062.5,-288 1068.5,-288 1068.5,-288 1157.5,-288 1157.5,-288 1163.5,-288 1169.5,-294 1169.5,-300 1169.5,-300 1169.5,-312 1169.5,-312 1169.5,-318 1163.5,-324 1157.5,-324"/>
<text text-anchor="middle" x="1113" y="-303.5" font-family="sans" font-size="10.00">compute_flatcounts</text>
</g>
<!-- 22&#45;&gt;10 -->
<g id="edge24" class="edge"><title>22&#45;&gt;10</title>
<path fill="none" stroke="grey" stroke-width="2" d="M1078.26,-287.876C1059.18,-278.469 1035.32,-266.708 1014.95,-256.667"/>
<polygon fill="grey" stroke="grey" stroke-width="2" points="1016.39,-253.472 1005.87,-252.19 1013.29,-259.751 1016.39,-253.472"/>
</g>
<!-- 23 -->
<g id="node24" class="node"><title>23</title>
<path fill="none" stroke="#afd856" stroke-width="2" d="M1026.5,-324C1026.5,-324 991.5,-324 991.5,-324 985.5,-324 979.5,-318 979.5,-312 979.5,-312 979.5,-300 979.5,-300 979.5,-294 985.5,-288 991.5,-288 991.5,-288 1026.5,-288 1026.5,-288 1032.5,-288 1038.5,-294 1038.5,-300 1038.5,-300 1038.5,-312 1038.5,-312 1038.5,-318 1032.5,-324 1026.5,-324"/>
<text text-anchor="middle" x="1009" y="-303.5" font-family="sans" font-size="10.00">filter_vcf</text>
</g>
<!-- 23&#45;&gt;10 -->
<g id="edge25" class="edge"><title>23&#45;&gt;10</title>
<path fill="none" stroke="grey" stroke-width="2" d="M999.607,-287.697C995.235,-279.644 989.943,-269.894 985.105,-260.982"/>
<polygon fill="grey" stroke="grey" stroke-width="2" points="988.132,-259.223 980.285,-252.104 981.98,-262.563 988.132,-259.223"/>
</g>
<!-- 24 -->
<g id="node25" class="node"><title>24</title>
<path fill="none" stroke="#d87556" stroke-width="2" d="M1031.5,-396C1031.5,-396 942.5,-396 942.5,-396 936.5,-396 930.5,-390 930.5,-384 930.5,-384 930.5,-372 930.5,-372 930.5,-366 936.5,-360 942.5,-360 942.5,-360 1031.5,-360 1031.5,-360 1037.5,-360 1043.5,-366 1043.5,-372 1043.5,-372 1043.5,-384 1043.5,-384 1043.5,-390 1037.5,-396 1031.5,-396"/>
<text text-anchor="middle" x="987" y="-375.5" font-family="sans" font-size="10.00">compute_flatcounts</text>
</g>
<!-- 24&#45;&gt;10 -->
<g id="edge26" class="edge"><title>24&#45;&gt;10</title>
<path fill="none" stroke="grey" stroke-width="2" d="M935.352,-359.965C918.86,-351.803 902.45,-340.177 893,-324 884.929,-310.185 885.513,-302.14 893,-288 899.597,-275.542 910.579,-265.469 922.252,-257.586"/>
<polygon fill="grey" stroke="grey" stroke-width="2" points="924.195,-260.498 930.82,-252.229 920.485,-254.562 924.195,-260.498"/>
</g>
<!-- 25 -->
<g id="node26" class="node"><title>25</title>
<path fill="none" stroke="#afd856" stroke-width="2" d="M1234.5,-324C1234.5,-324 1199.5,-324 1199.5,-324 1193.5,-324 1187.5,-318 1187.5,-312 1187.5,-312 1187.5,-300 1187.5,-300 1187.5,-294 1193.5,-288 1199.5,-288 1199.5,-288 1234.5,-288 1234.5,-288 1240.5,-288 1246.5,-294 1246.5,-300 1246.5,-300 1246.5,-312 1246.5,-312 1246.5,-318 1240.5,-324 1234.5,-324"/>
<text text-anchor="middle" x="1217" y="-303.5" font-family="sans" font-size="10.00">filter_vcf</text>
</g>
<!-- 25&#45;&gt;10 -->
<g id="edge27" class="edge"><title>25&#45;&gt;10</title>
<path fill="none" stroke="grey" stroke-width="2" d="M1187.38,-291.506C1184.24,-290.251 1181.07,-289.056 1178,-288 1126.52,-270.317 1066.04,-255.492 1023.8,-246.059"/>
<polygon fill="grey" stroke="grey" stroke-width="2" points="1024.53,-242.635 1014.01,-243.896 1023.02,-249.47 1024.53,-242.635"/>
</g>
<!-- 26 -->
<g id="node27" class="node"><title>26</title>
<path fill="none" stroke="#d87556" stroke-width="2" d="M900.5,-396C900.5,-396 811.5,-396 811.5,-396 805.5,-396 799.5,-390 799.5,-384 799.5,-384 799.5,-372 799.5,-372 799.5,-366 805.5,-360 811.5,-360 811.5,-360 900.5,-360 900.5,-360 906.5,-360 912.5,-366 912.5,-372 912.5,-372 912.5,-384 912.5,-384 912.5,-390 906.5,-396 900.5,-396"/>
<text text-anchor="middle" x="856" y="-375.5" font-family="sans" font-size="10.00">compute_flatcounts</text>
</g>
<!-- 26&#45;&gt;10 -->
<g id="edge28" class="edge"><title>26&#45;&gt;10</title>
<path fill="none" stroke="grey" stroke-width="2" d="M857.753,-359.932C860.49,-340.684 867.325,-309.3 884,-288 893.838,-275.434 907.549,-265.142 921.182,-257.081"/>
<polygon fill="grey" stroke="grey" stroke-width="2" points="923.064,-260.039 930.087,-252.106 919.65,-253.928 923.064,-260.039"/>
</g>
<!-- 27 -->
<g id="node28" class="node"><title>27</title>
<path fill="none" stroke="#d87556" stroke-width="2" d="M1365.5,-324C1365.5,-324 1276.5,-324 1276.5,-324 1270.5,-324 1264.5,-318 1264.5,-312 1264.5,-312 1264.5,-300 1264.5,-300 1264.5,-294 1270.5,-288 1276.5,-288 1276.5,-288 1365.5,-288 1365.5,-288 1371.5,-288 1377.5,-294 1377.5,-300 1377.5,-300 1377.5,-312 1377.5,-312 1377.5,-318 1371.5,-324 1365.5,-324"/>
<text text-anchor="middle" x="1321" y="-303.5" font-family="sans" font-size="10.00">compute_flatcounts</text>
</g>
<!-- 27&#45;&gt;10 -->
<g id="edge29" class="edge"><title>27&#45;&gt;10</title>
<path fill="none" stroke="grey" stroke-width="2" d="M1264.18,-290.104C1261.08,-289.373 1258,-288.666 1255,-288 1174.86,-270.221 1081.1,-253.512 1023.9,-243.771"/>
<polygon fill="grey" stroke="grey" stroke-width="2" points="1024.45,-240.314 1014,-242.093 1023.28,-247.216 1024.45,-240.314"/>
</g>
<!-- 28 -->
<g id="node29" class="node"><title>28</title>
<path fill="none" stroke="#afd856" stroke-width="2" d="M1961.5,-324C1961.5,-324 1926.5,-324 1926.5,-324 1920.5,-324 1914.5,-318 1914.5,-312 1914.5,-312 1914.5,-300 1914.5,-300 1914.5,-294 1920.5,-288 1926.5,-288 1926.5,-288 1961.5,-288 1961.5,-288 1967.5,-288 1973.5,-294 1973.5,-300 1973.5,-300 1973.5,-312 1973.5,-312 1973.5,-318 1967.5,-324 1961.5,-324"/>
<text text-anchor="middle" x="1944" y="-303.5" font-family="sans" font-size="10.00">filter_vcf</text>
</g>
<!-- 28&#45;&gt;10 -->
<g id="edge30" class="edge"><title>28&#45;&gt;10</title>
<path fill="none" stroke="grey" stroke-width="2" d="M1914.49,-290.575C1911.67,-289.568 1908.81,-288.683 1906,-288 1820.38,-267.171 1209.33,-243.614 1024.09,-236.884"/>
<polygon fill="grey" stroke="grey" stroke-width="2" points="1024.17,-233.385 1014.05,-236.521 1023.92,-240.38 1024.17,-233.385"/>
</g>
<!-- 29 -->
<g id="node30" class="node"><title>29</title>
<path fill="none" stroke="#d8c356" stroke-width="2" d="M1707,-252C1707,-252 1585,-252 1585,-252 1579,-252 1573,-246 1573,-240 1573,-240 1573,-228 1573,-228 1573,-222 1579,-216 1585,-216 1585,-216 1707,-216 1707,-216 1713,-216 1719,-222 1719,-228 1719,-228 1719,-240 1719,-240 1719,-246 1713,-252 1707,-252"/>
<text text-anchor="middle" x="1646" y="-231.5" font-family="sans" font-size="10.00">create_coding_regions_aln</text>
</g>
<!-- 29&#45;&gt;11 -->
<g id="edge31" class="edge"><title>29&#45;&gt;11</title>
<path fill="none" stroke="grey" stroke-width="2" d="M1579.32,-215.966C1539.29,-205.737 1488.26,-192.701 1446.85,-182.121"/>
<polygon fill="grey" stroke="grey" stroke-width="2" points="1447.64,-178.711 1437.08,-179.627 1445.9,-185.493 1447.64,-178.711"/>
</g>
<!-- 30 -->
<g id="node31" class="node"><title>30</title>
<path fill="none" stroke="#d85656" stroke-width="2" d="M222,-556C222,-556 138,-556 138,-556 132,-556 126,-550 126,-544 126,-544 126,-516 126,-516 126,-510 132,-504 138,-504 138,-504 222,-504 222,-504 228,-504 234,-510 234,-516 234,-516 234,-544 234,-544 234,-550 228,-556 222,-556"/>
<text text-anchor="middle" x="180" y="-544" font-family="sans" font-size="10.00">create_assembly</text>
<text text-anchor="middle" x="180" y="-533" font-family="sans" font-size="10.00">TMP_D: tmp</text>
<text text-anchor="middle" x="180" y="-522" font-family="sans" font-size="10.00">assembler: spades</text>
<text text-anchor="middle" x="180" y="-511" font-family="sans" font-size="10.00">strain: CH2500</text>
</g>
<!-- 30&#45;&gt;12 -->
<g id="edge32" class="edge"><title>30&#45;&gt;12</title>
<path fill="none" stroke="grey" stroke-width="2" d="M190.301,-503.891C193.715,-495.568 197.528,-486.275 200.993,-477.829"/>
<polygon fill="grey" stroke="grey" stroke-width="2" points="204.3,-478.991 204.857,-468.411 197.823,-476.334 204.3,-478.991"/>
</g>
<!-- 31 -->
<g id="node32" class="node"><title>31</title>
<path fill="none" stroke="#d85656" stroke-width="2" d="M348,-556C348,-556 264,-556 264,-556 258,-556 252,-550 252,-544 252,-544 252,-516 252,-516 252,-510 258,-504 264,-504 264,-504 348,-504 348,-504 354,-504 360,-510 360,-516 360,-516 360,-544 360,-544 360,-550 354,-556 348,-556"/>
<text text-anchor="middle" x="306" y="-544" font-family="sans" font-size="10.00">create_assembly</text>
<text text-anchor="middle" x="306" y="-533" font-family="sans" font-size="10.00">TMP_D: tmp</text>
<text text-anchor="middle" x="306" y="-522" font-family="sans" font-size="10.00">assembler: spades</text>
<text text-anchor="middle" x="306" y="-511" font-family="sans" font-size="10.00">strain: CH2502</text>
</g>
<!-- 31&#45;&gt;13 -->
<g id="edge33" class="edge"><title>31&#45;&gt;13</title>
<path fill="none" stroke="grey" stroke-width="2" d="M306,-503.891C306,-495.84 306,-486.88 306,-478.658"/>
<polygon fill="grey" stroke="grey" stroke-width="2" points="309.5,-478.411 306,-468.411 302.5,-478.411 309.5,-478.411"/>
</g>
<!-- 32 -->
<g id="node33" class="node"><title>32</title>
<path fill="none" stroke="#d85656" stroke-width="2" d="M474,-556C474,-556 390,-556 390,-556 384,-556 378,-550 378,-544 378,-544 378,-516 378,-516 378,-510 384,-504 390,-504 390,-504 474,-504 474,-504 480,-504 486,-510 486,-516 486,-516 486,-544 486,-544 486,-550 480,-556 474,-556"/>
<text text-anchor="middle" x="432" y="-544" font-family="sans" font-size="10.00">create_assembly</text>
<text text-anchor="middle" x="432" y="-533" font-family="sans" font-size="10.00">TMP_D: tmp</text>
<text text-anchor="middle" x="432" y="-522" font-family="sans" font-size="10.00">assembler: spades</text>
<text text-anchor="middle" x="432" y="-511" font-family="sans" font-size="10.00">strain: CH2522</text>
</g>
<!-- 32&#45;&gt;14 -->
<g id="edge34" class="edge"><title>32&#45;&gt;14</title>
<path fill="none" stroke="grey" stroke-width="2" d="M432,-503.891C432,-495.84 432,-486.88 432,-478.658"/>
<polygon fill="grey" stroke="grey" stroke-width="2" points="435.5,-478.411 432,-468.411 428.5,-478.411 435.5,-478.411"/>
</g>
<!-- 33 -->
<g id="node34" class="node"><title>33</title>
<path fill="none" stroke="#d85656" stroke-width="2" d="M96,-556C96,-556 12,-556 12,-556 6,-556 0,-550 0,-544 0,-544 0,-516 0,-516 0,-510 6,-504 12,-504 12,-504 96,-504 96,-504 102,-504 108,-510 108,-516 108,-516 108,-544 108,-544 108,-550 102,-556 96,-556"/>
<text text-anchor="middle" x="54" y="-544" font-family="sans" font-size="10.00">create_assembly</text>
<text text-anchor="middle" x="54" y="-533" font-family="sans" font-size="10.00">TMP_D: tmp</text>
<text text-anchor="middle" x="54" y="-522" font-family="sans" font-size="10.00">assembler: spades</text>
<text text-anchor="middle" x="54" y="-511" font-family="sans" font-size="10.00">strain: F1659</text>
</g>
<!-- 33&#45;&gt;15 -->
<g id="edge35" class="edge"><title>33&#45;&gt;15</title>
<path fill="none" stroke="grey" stroke-width="2" d="M78.1433,-503.891C86.8415,-494.845 96.6426,-484.652 105.302,-475.645"/>
<polygon fill="grey" stroke="grey" stroke-width="2" points="107.851,-478.045 112.259,-468.411 102.805,-473.193 107.851,-478.045"/>
</g>
<!-- 34&#45;&gt;16 -->
<g id="edge36" class="edge"><title>34&#45;&gt;16</title>
<path fill="none" stroke="grey" stroke-width="2" d="M381,-287.697C381,-279.983 381,-270.712 381,-262.112"/>
<polygon fill="grey" stroke="grey" stroke-width="2" points="384.5,-262.104 381,-252.104 377.5,-262.104 384.5,-262.104"/>
</g>
<!-- 35 -->
<g id="node36" class="node"><title>35</title>
<path fill="none" stroke="#9fd856" stroke-width="2" d="M580,-548C580,-548 516,-548 516,-548 510,-548 504,-542 504,-536 504,-536 504,-524 504,-524 504,-518 510,-512 516,-512 516,-512 580,-512 580,-512 586,-512 592,-518 592,-524 592,-524 592,-536 592,-536 592,-542 586,-548 580,-548"/>
<text text-anchor="middle" x="548" y="-533" font-family="sans" font-size="10.00">convert_to_sin</text>
<text text-anchor="middle" x="548" y="-522" font-family="sans" font-size="10.00">TMP_D: tmp</text>
</g>
<!-- 35&#45;&gt;17 -->
<g id="edge37" class="edge"><title>35&#45;&gt;17</title>
<path fill="none" stroke="grey" stroke-width="2" d="M549.11,-511.689C549.738,-501.894 550.537,-489.422 551.248,-478.335"/>
<polygon fill="grey" stroke="grey" stroke-width="2" points="554.746,-478.466 551.893,-468.262 547.761,-478.018 554.746,-478.466"/>
</g>
<!-- 36 -->
<g id="node37" class="node"><title>36</title>
<path fill="none" stroke="#9fd856" stroke-width="2" d="M686,-548C686,-548 622,-548 622,-548 616,-548 610,-542 610,-536 610,-536 610,-524 610,-524 610,-518 616,-512 622,-512 622,-512 686,-512 686,-512 692,-512 698,-518 698,-524 698,-524 698,-536 698,-536 698,-542 692,-548 686,-548"/>
<text text-anchor="middle" x="654" y="-533" font-family="sans" font-size="10.00">convert_to_sin</text>
<text text-anchor="middle" x="654" y="-522" font-family="sans" font-size="10.00">TMP_D: tmp</text>
</g>
<!-- 36&#45;&gt;18 -->
<g id="edge38" class="edge"><title>36&#45;&gt;18</title>
<path fill="none" stroke="grey" stroke-width="2" d="M654,-511.689C654,-501.894 654,-489.422 654,-478.335"/>
<polygon fill="grey" stroke="grey" stroke-width="2" points="657.5,-478.262 654,-468.262 650.5,-478.262 657.5,-478.262"/>
</g>
<!-- 37 -->
<g id="node38" class="node"><title>37</title>
<path fill="none" stroke="#9fd856" stroke-width="2" d="M793,-548C793,-548 729,-548 729,-548 723,-548 717,-542 717,-536 717,-536 717,-524 717,-524 717,-518 723,-512 729,-512 729,-512 793,-512 793,-512 799,-512 805,-518 805,-524 805,-524 805,-536 805,-536 805,-542 799,-548 793,-548"/>
<text text-anchor="middle" x="761" y="-533" font-family="sans" font-size="10.00">convert_to_sin</text>
<text text-anchor="middle" x="761" y="-522" font-family="sans" font-size="10.00">TMP_D: tmp</text>
</g>
<!-- 37&#45;&gt;19 -->
<g id="edge39" class="edge"><title>37&#45;&gt;19</title>
<path fill="none" stroke="grey" stroke-width="2" d="M758.559,-511.689C757.177,-501.894 755.418,-489.422 753.855,-478.335"/>
<polygon fill="grey" stroke="grey" stroke-width="2" points="757.297,-477.676 752.434,-468.262 750.365,-478.653 757.297,-477.676"/>
</g>
<!-- 38 -->
<g id="node39" class="node"><title>38</title>
<path fill="none" stroke="#9fd856" stroke-width="2" d="M903,-548C903,-548 839,-548 839,-548 833,-548 827,-542 827,-536 827,-536 827,-524 827,-524 827,-518 833,-512 839,-512 839,-512 903,-512 903,-512 909,-512 915,-518 915,-524 915,-524 915,-536 915,-536 915,-542 909,-548 903,-548"/>
<text text-anchor="middle" x="871" y="-533" font-family="sans" font-size="10.00">convert_to_sin</text>
<text text-anchor="middle" x="871" y="-522" font-family="sans" font-size="10.00">TMP_D: tmp</text>
</g>
<!-- 38&#45;&gt;20 -->
<g id="edge40" class="edge"><title>38&#45;&gt;20</title>
<path fill="none" stroke="grey" stroke-width="2" d="M865.452,-511.689C862.28,-501.793 858.232,-489.164 854.651,-477.993"/>
<polygon fill="grey" stroke="grey" stroke-width="2" points="857.918,-476.717 851.533,-468.262 851.252,-478.853 857.918,-476.717"/>
</g>
<!-- 39 -->
<g id="node40" class="node"><title>39</title>
<path fill="none" stroke="#bed856" stroke-width="2" d="M1124,-396C1124,-396 1074,-396 1074,-396 1068,-396 1062,-390 1062,-384 1062,-384 1062,-372 1062,-372 1062,-366 1068,-360 1074,-360 1074,-360 1124,-360 1124,-360 1130,-360 1136,-366 1136,-372 1136,-372 1136,-384 1136,-384 1136,-390 1130,-396 1124,-396"/>
<text text-anchor="middle" x="1099" y="-375.5" font-family="sans" font-size="10.00">process_vcf</text>
</g>
<!-- 39&#45;&gt;21 -->
<g id="edge41" class="edge"><title>39&#45;&gt;21</title>
<path fill="none" stroke="grey" stroke-width="2" d="M1061.9,-362.109C1038.17,-352.507 1006.53,-339.561 971.348,-324.529"/>
<polygon fill="grey" stroke="grey" stroke-width="2" points="972.403,-321.174 961.833,-320.45 969.645,-327.607 972.403,-321.174"/>
</g>
<!-- 48 -->
<g id="node49" class="node"><title>48</title>
<path fill="none" stroke="#d88556" stroke-width="2" d="M1538.5,-324C1538.5,-324 1407.5,-324 1407.5,-324 1401.5,-324 1395.5,-318 1395.5,-312 1395.5,-312 1395.5,-300 1395.5,-300 1395.5,-294 1401.5,-288 1407.5,-288 1407.5,-288 1538.5,-288 1538.5,-288 1544.5,-288 1550.5,-294 1550.5,-300 1550.5,-300 1550.5,-312 1550.5,-312 1550.5,-318 1544.5,-324 1538.5,-324"/>
<text text-anchor="middle" x="1473" y="-309" font-family="sans" font-size="10.00">create_consensus_sequence</text>
<text text-anchor="middle" x="1473" y="-298" font-family="sans" font-size="10.00">strains: CH2522</text>
</g>
<!-- 39&#45;&gt;48 -->
<g id="edge72" class="edge"><title>39&#45;&gt;48</title>
<path fill="none" stroke="grey" stroke-width="2" d="M1136.2,-362.522C1139.16,-361.596 1142.11,-360.741 1145,-360 1246.83,-333.875 1277.49,-341.875 1385.27,-324.058"/>
<polygon fill="grey" stroke="grey" stroke-width="2" points="1385.97,-327.49 1395.24,-322.372 1384.8,-320.588 1385.97,-327.49"/>
</g>
<!-- 40 -->
<g id="node41" class="node"><title>40</title>
<path fill="none" stroke="#5673d8" stroke-width="2" d="M1300,-396C1300,-396 1258,-396 1258,-396 1252,-396 1246,-390 1246,-384 1246,-384 1246,-372 1246,-372 1246,-366 1252,-360 1258,-360 1258,-360 1300,-360 1300,-360 1306,-360 1312,-366 1312,-372 1312,-372 1312,-384 1312,-384 1312,-390 1306,-396 1300,-396"/>
<text text-anchor="middle" x="1279" y="-375.5" font-family="sans" font-size="10.00">count_cov</text>
</g>
<!-- 40&#45;&gt;22 -->
<g id="edge42" class="edge"><title>40&#45;&gt;22</title>
<path fill="none" stroke="grey" stroke-width="2" d="M1245.81,-363.003C1222.02,-352.974 1189.58,-339.294 1162.72,-327.965"/>
<polygon fill="grey" stroke="grey" stroke-width="2" points="1164.05,-324.727 1153.47,-324.066 1161.33,-331.177 1164.05,-324.727"/>
</g>
<!-- 41 -->
<g id="node42" class="node"><title>41</title>
<path fill="none" stroke="#bed856" stroke-width="2" d="M1216,-396C1216,-396 1166,-396 1166,-396 1160,-396 1154,-390 1154,-384 1154,-384 1154,-372 1154,-372 1154,-366 1160,-360 1166,-360 1166,-360 1216,-360 1216,-360 1222,-360 1228,-366 1228,-372 1228,-372 1228,-384 1228,-384 1228,-390 1222,-396 1216,-396"/>
<text text-anchor="middle" x="1191" y="-375.5" font-family="sans" font-size="10.00">process_vcf</text>
</g>
<!-- 41&#45;&gt;23 -->
<g id="edge43" class="edge"><title>41&#45;&gt;23</title>
<path fill="none" stroke="grey" stroke-width="2" d="M1153.85,-363.262C1150.85,-362.158 1147.88,-361.06 1145,-360 1104.27,-344.991 1091.59,-341.86 1048.21,-324.383"/>
<polygon fill="grey" stroke="grey" stroke-width="2" points="1049.37,-321.076 1038.79,-320.558 1046.74,-327.562 1049.37,-321.076"/>
</g>
<!-- 50 -->
<g id="node51" class="node"><title>50</title>
<path fill="none" stroke="#d88556" stroke-width="2" d="M1711.5,-324C1711.5,-324 1580.5,-324 1580.5,-324 1574.5,-324 1568.5,-318 1568.5,-312 1568.5,-312 1568.5,-300 1568.5,-300 1568.5,-294 1574.5,-288 1580.5,-288 1580.5,-288 1711.5,-288 1711.5,-288 1717.5,-288 1723.5,-294 1723.5,-300 1723.5,-300 1723.5,-312 1723.5,-312 1723.5,-318 1717.5,-324 1711.5,-324"/>
<text text-anchor="middle" x="1646" y="-309" font-family="sans" font-size="10.00">create_consensus_sequence</text>
<text text-anchor="middle" x="1646" y="-298" font-family="sans" font-size="10.00">strains: CH2500</text>
</g>
<!-- 41&#45;&gt;50 -->
<g id="edge77" class="edge"><title>41&#45;&gt;50</title>
<path fill="none" stroke="grey" stroke-width="2" d="M1228.17,-362.401C1231.13,-361.503 1234.1,-360.687 1237,-360 1374.4,-327.466 1415.41,-345.184 1558.23,-324.186"/>
<polygon fill="grey" stroke="grey" stroke-width="2" points="1558.87,-327.629 1568.24,-322.677 1557.83,-320.707 1558.87,-327.629"/>
</g>
<!-- 42 -->
<g id="node43" class="node"><title>42</title>
<path fill="none" stroke="#5673d8" stroke-width="2" d="M1041,-468C1041,-468 999,-468 999,-468 993,-468 987,-462 987,-456 987,-456 987,-444 987,-444 987,-438 993,-432 999,-432 999,-432 1041,-432 1041,-432 1047,-432 1053,-438 1053,-444 1053,-444 1053,-456 1053,-456 1053,-462 1047,-468 1041,-468"/>
<text text-anchor="middle" x="1020" y="-447.5" font-family="sans" font-size="10.00">count_cov</text>
</g>
<!-- 42&#45;&gt;24 -->
<g id="edge44" class="edge"><title>42&#45;&gt;24</title>
<path fill="none" stroke="grey" stroke-width="2" d="M1011.84,-431.697C1008.09,-423.728 1003.55,-414.1 999.382,-405.264"/>
<polygon fill="grey" stroke="grey" stroke-width="2" points="1002.49,-403.657 995.063,-396.104 996.162,-406.642 1002.49,-403.657"/>
</g>
<!-- 43 -->
<g id="node44" class="node"><title>43</title>
<path fill="none" stroke="#bed856" stroke-width="2" d="M1392,-396C1392,-396 1342,-396 1342,-396 1336,-396 1330,-390 1330,-384 1330,-384 1330,-372 1330,-372 1330,-366 1336,-360 1342,-360 1342,-360 1392,-360 1392,-360 1398,-360 1404,-366 1404,-372 1404,-372 1404,-384 1404,-384 1404,-390 1398,-396 1392,-396"/>
<text text-anchor="middle" x="1367" y="-375.5" font-family="sans" font-size="10.00">process_vcf</text>
</g>
<!-- 43&#45;&gt;25 -->
<g id="edge45" class="edge"><title>43&#45;&gt;25</title>
<path fill="none" stroke="grey" stroke-width="2" d="M1330.31,-359.876C1307.74,-349.346 1278.85,-335.865 1255.9,-325.151"/>
<polygon fill="grey" stroke="grey" stroke-width="2" points="1257.32,-321.952 1246.78,-320.895 1254.36,-328.296 1257.32,-321.952"/>
</g>
<!-- 47 -->
<g id="node48" class="node"><title>47</title>
<path fill="none" stroke="#d88556" stroke-width="2" d="M1884.5,-324C1884.5,-324 1753.5,-324 1753.5,-324 1747.5,-324 1741.5,-318 1741.5,-312 1741.5,-312 1741.5,-300 1741.5,-300 1741.5,-294 1747.5,-288 1753.5,-288 1753.5,-288 1884.5,-288 1884.5,-288 1890.5,-288 1896.5,-294 1896.5,-300 1896.5,-300 1896.5,-312 1896.5,-312 1896.5,-318 1890.5,-324 1884.5,-324"/>
<text text-anchor="middle" x="1819" y="-309" font-family="sans" font-size="10.00">create_consensus_sequence</text>
<text text-anchor="middle" x="1819" y="-298" font-family="sans" font-size="10.00">strains: CH2502</text>
</g>
<!-- 43&#45;&gt;47 -->
<g id="edge71" class="edge"><title>43&#45;&gt;47</title>
<path fill="none" stroke="grey" stroke-width="2" d="M1404.25,-372.249C1468.78,-363.879 1605.76,-345.498 1731.06,-324.291"/>
<polygon fill="grey" stroke="grey" stroke-width="2" points="1731.95,-327.691 1741.22,-322.562 1730.77,-320.79 1731.95,-327.691"/>
</g>
<!-- 44 -->
<g id="node45" class="node"><title>44</title>
<path fill="none" stroke="#5673d8" stroke-width="2" d="M957,-468C957,-468 915,-468 915,-468 909,-468 903,-462 903,-456 903,-456 903,-444 903,-444 903,-438 909,-432 915,-432 915,-432 957,-432 957,-432 963,-432 969,-438 969,-444 969,-444 969,-456 969,-456 969,-462 963,-468 957,-468"/>
<text text-anchor="middle" x="936" y="-447.5" font-family="sans" font-size="10.00">count_cov</text>
</g>
<!-- 44&#45;&gt;26 -->
<g id="edge46" class="edge"><title>44&#45;&gt;26</title>
<path fill="none" stroke="grey" stroke-width="2" d="M916.225,-431.697C906.246,-422.965 893.989,-412.24 883.143,-402.75"/>
<polygon fill="grey" stroke="grey" stroke-width="2" points="885.378,-400.055 875.548,-396.104 880.769,-405.323 885.378,-400.055"/>
</g>
<!-- 45 -->
<g id="node46" class="node"><title>45</title>
<path fill="none" stroke="#5673d8" stroke-width="2" d="M1453,-468C1453,-468 1411,-468 1411,-468 1405,-468 1399,-462 1399,-456 1399,-456 1399,-444 1399,-444 1399,-438 1405,-432 1411,-432 1411,-432 1453,-432 1453,-432 1459,-432 1465,-438 1465,-444 1465,-444 1465,-456 1465,-456 1465,-462 1459,-468 1453,-468"/>
<text text-anchor="middle" x="1432" y="-447.5" font-family="sans" font-size="10.00">count_cov</text>
</g>
<!-- 45&#45;&gt;27 -->
<g id="edge47" class="edge"><title>45&#45;&gt;27</title>
<path fill="none" stroke="grey" stroke-width="2" d="M1432.34,-431.943C1431.88,-412.706 1428.53,-381.332 1413,-360 1403.66,-347.164 1390.19,-336.966 1376.42,-329.083"/>
<polygon fill="grey" stroke="grey" stroke-width="2" points="1377.84,-325.874 1367.38,-324.233 1374.54,-332.043 1377.84,-325.874"/>
</g>
<!-- 46 -->
<g id="node47" class="node"><title>46</title>
<path fill="none" stroke="#bed856" stroke-width="2" d="M1969,-396C1969,-396 1919,-396 1919,-396 1913,-396 1907,-390 1907,-384 1907,-384 1907,-372 1907,-372 1907,-366 1913,-360 1919,-360 1919,-360 1969,-360 1969,-360 1975,-360 1981,-366 1981,-372 1981,-372 1981,-384 1981,-384 1981,-390 1975,-396 1969,-396"/>
<text text-anchor="middle" x="1944" y="-375.5" font-family="sans" font-size="10.00">process_vcf</text>
</g>
<!-- 46&#45;&gt;28 -->
<g id="edge48" class="edge"><title>46&#45;&gt;28</title>
<path fill="none" stroke="grey" stroke-width="2" d="M1944,-359.697C1944,-351.983 1944,-342.712 1944,-334.112"/>
<polygon fill="grey" stroke="grey" stroke-width="2" points="1947.5,-334.104 1944,-324.104 1940.5,-334.104 1947.5,-334.104"/>
</g>
<!-- 49 -->
<g id="node50" class="node"><title>49</title>
<path fill="none" stroke="#d88556" stroke-width="2" d="M2134.5,-324C2134.5,-324 2003.5,-324 2003.5,-324 1997.5,-324 1991.5,-318 1991.5,-312 1991.5,-312 1991.5,-300 1991.5,-300 1991.5,-294 1997.5,-288 2003.5,-288 2003.5,-288 2134.5,-288 2134.5,-288 2140.5,-288 2146.5,-294 2146.5,-300 2146.5,-300 2146.5,-312 2146.5,-312 2146.5,-318 2140.5,-324 2134.5,-324"/>
<text text-anchor="middle" x="2069" y="-309" font-family="sans" font-size="10.00">create_consensus_sequence</text>
<text text-anchor="middle" x="2069" y="-298" font-family="sans" font-size="10.00">strains: F1659</text>
</g>
<!-- 46&#45;&gt;49 -->
<g id="edge74" class="edge"><title>46&#45;&gt;49</title>
<path fill="none" stroke="grey" stroke-width="2" d="M1974.58,-359.876C1991.07,-350.639 2011.62,-339.131 2029.34,-329.212"/>
<polygon fill="grey" stroke="grey" stroke-width="2" points="2031.29,-332.13 2038.3,-324.19 2027.87,-326.022 2031.29,-332.13"/>
</g>
<!-- 47&#45;&gt;29 -->
<g id="edge49" class="edge"><title>47&#45;&gt;29</title>
<path fill="none" stroke="grey" stroke-width="2" d="M1776.68,-287.876C1752.82,-278.222 1722.83,-266.087 1697.6,-255.878"/>
<polygon fill="grey" stroke="grey" stroke-width="2" points="1698.77,-252.575 1688.18,-252.068 1696.14,-259.064 1698.77,-252.575"/>
</g>
<!-- 48&#45;&gt;29 -->
<g id="edge50" class="edge"><title>48&#45;&gt;29</title>
<path fill="none" stroke="grey" stroke-width="2" d="M1515.32,-287.876C1539.18,-278.222 1569.17,-266.087 1594.4,-255.878"/>
<polygon fill="grey" stroke="grey" stroke-width="2" points="1595.86,-259.064 1603.82,-252.068 1593.23,-252.575 1595.86,-259.064"/>
</g>
<!-- 49&#45;&gt;29 -->
<g id="edge51" class="edge"><title>49&#45;&gt;29</title>
<path fill="none" stroke="grey" stroke-width="2" d="M1991.21,-289.481C1988.44,-288.974 1985.7,-288.479 1983,-288 1896.75,-272.699 1797.67,-257.386 1729.38,-247.184"/>
<polygon fill="grey" stroke="grey" stroke-width="2" points="1729.51,-243.666 1719.11,-245.654 1728.48,-250.589 1729.51,-243.666"/>
</g>
<!-- 50&#45;&gt;29 -->
<g id="edge52" class="edge"><title>50&#45;&gt;29</title>
<path fill="none" stroke="grey" stroke-width="2" d="M1646,-287.697C1646,-279.983 1646,-270.712 1646,-262.112"/>
<polygon fill="grey" stroke="grey" stroke-width="2" points="1649.5,-262.104 1646,-252.104 1642.5,-262.104 1649.5,-262.104"/>
</g>
<!-- 51 -->
<g id="node52" class="node"><title>51</title>
<path fill="none" stroke="#d8d356" stroke-width="2" d="M577.5,-636C577.5,-636 504.5,-636 504.5,-636 498.5,-636 492.5,-630 492.5,-624 492.5,-624 492.5,-612 492.5,-612 492.5,-606 498.5,-600 504.5,-600 504.5,-600 577.5,-600 577.5,-600 583.5,-600 589.5,-606 589.5,-612 589.5,-612 589.5,-624 589.5,-624 589.5,-630 583.5,-636 577.5,-636"/>
<text text-anchor="middle" x="541" y="-621" font-family="sans" font-size="10.00">rna_mapping</text>
<text text-anchor="middle" x="541" y="-610" font-family="sans" font-size="10.00">sample: CH2502</text>
</g>
<!-- 51&#45;&gt;35 -->
<g id="edge58" class="edge"><title>51&#45;&gt;35</title>
<path fill="none" stroke="grey" stroke-width="2" d="M542.417,-599.597C543.381,-587.746 544.678,-571.817 545.779,-558.292"/>
<polygon fill="grey" stroke="grey" stroke-width="2" points="549.287,-558.335 546.609,-548.084 542.31,-557.767 549.287,-558.335"/>
</g>
<!-- 52 -->
<g id="node53" class="node"><title>52</title>
<path fill="none" stroke="#d8d356" stroke-width="2" d="M683,-636C683,-636 619,-636 619,-636 613,-636 607,-630 607,-624 607,-624 607,-612 607,-612 607,-606 613,-600 619,-600 619,-600 683,-600 683,-600 689,-600 695,-606 695,-612 695,-612 695,-624 695,-624 695,-630 689,-636 683,-636"/>
<text text-anchor="middle" x="651" y="-621" font-family="sans" font-size="10.00">rna_mapping</text>
<text text-anchor="middle" x="651" y="-610" font-family="sans" font-size="10.00">sample: F1659</text>
</g>
<!-- 52&#45;&gt;36 -->
<g id="edge59" class="edge"><title>52&#45;&gt;36</title>
<path fill="none" stroke="grey" stroke-width="2" d="M651.607,-599.597C652.02,-587.746 652.576,-571.817 653.048,-558.292"/>
<polygon fill="grey" stroke="grey" stroke-width="2" points="656.553,-558.2 653.404,-548.084 649.557,-557.956 656.553,-558.2"/>
</g>
<!-- 53 -->
<g id="node54" class="node"><title>53</title>
<path fill="none" stroke="#d8d356" stroke-width="2" d="M797.5,-636C797.5,-636 724.5,-636 724.5,-636 718.5,-636 712.5,-630 712.5,-624 712.5,-624 712.5,-612 712.5,-612 712.5,-606 718.5,-600 724.5,-600 724.5,-600 797.5,-600 797.5,-600 803.5,-600 809.5,-606 809.5,-612 809.5,-612 809.5,-624 809.5,-624 809.5,-630 803.5,-636 797.5,-636"/>
<text text-anchor="middle" x="761" y="-621" font-family="sans" font-size="10.00">rna_mapping</text>
<text text-anchor="middle" x="761" y="-610" font-family="sans" font-size="10.00">sample: CH2500</text>
</g>
<!-- 53&#45;&gt;37 -->
<g id="edge60" class="edge"><title>53&#45;&gt;37</title>
<path fill="none" stroke="grey" stroke-width="2" d="M761,-599.597C761,-587.746 761,-571.817 761,-558.292"/>
<polygon fill="grey" stroke="grey" stroke-width="2" points="764.5,-558.084 761,-548.084 757.5,-558.084 764.5,-558.084"/>
</g>
<!-- 54 -->
<g id="node55" class="node"><title>54</title>
<path fill="none" stroke="#d8d356" stroke-width="2" d="M912.5,-636C912.5,-636 839.5,-636 839.5,-636 833.5,-636 827.5,-630 827.5,-624 827.5,-624 827.5,-612 827.5,-612 827.5,-606 833.5,-600 839.5,-600 839.5,-600 912.5,-600 912.5,-600 918.5,-600 924.5,-606 924.5,-612 924.5,-612 924.5,-624 924.5,-624 924.5,-630 918.5,-636 912.5,-636"/>
<text text-anchor="middle" x="876" y="-621" font-family="sans" font-size="10.00">rna_mapping</text>
<text text-anchor="middle" x="876" y="-610" font-family="sans" font-size="10.00">sample: CH2522</text>
</g>
<!-- 54&#45;&gt;38 -->
<g id="edge61" class="edge"><title>54&#45;&gt;38</title>
<path fill="none" stroke="grey" stroke-width="2" d="M874.988,-599.597C874.299,-587.746 873.373,-571.817 872.587,-558.292"/>
<polygon fill="grey" stroke="grey" stroke-width="2" points="876.068,-557.864 871.993,-548.084 869.08,-558.27 876.068,-557.864"/>
</g>
<!-- 55 -->
<g id="node56" class="node"><title>55</title>
<path fill="none" stroke="#56b1d8" stroke-width="2" d="M1127,-468C1127,-468 1083,-468 1083,-468 1077,-468 1071,-462 1071,-456 1071,-456 1071,-444 1071,-444 1071,-438 1077,-432 1083,-432 1083,-432 1127,-432 1127,-432 1133,-432 1139,-438 1139,-444 1139,-444 1139,-456 1139,-456 1139,-462 1133,-468 1127,-468"/>
<text text-anchor="middle" x="1105" y="-447.5" font-family="sans" font-size="10.00">create_vcf</text>
</g>
<!-- 55&#45;&gt;39 -->
<g id="edge62" class="edge"><title>55&#45;&gt;39</title>
<path fill="none" stroke="grey" stroke-width="2" d="M1103.52,-431.697C1102.86,-423.983 1102.06,-414.712 1101.32,-406.112"/>
<polygon fill="grey" stroke="grey" stroke-width="2" points="1104.81,-405.769 1100.47,-396.104 1097.83,-406.367 1104.81,-405.769"/>
</g>
<!-- 56 -->
<g id="node57" class="node"><title>56</title>
<path fill="none" stroke="#56d89a" stroke-width="2" d="M1298,-548C1298,-548 1260,-548 1260,-548 1254,-548 1248,-542 1248,-536 1248,-536 1248,-524 1248,-524 1248,-518 1254,-512 1260,-512 1260,-512 1298,-512 1298,-512 1304,-512 1310,-518 1310,-524 1310,-524 1310,-536 1310,-536 1310,-542 1304,-548 1298,-548"/>
<text text-anchor="middle" x="1279" y="-527.5" font-family="sans" font-size="10.00">sort_bam</text>
</g>
<!-- 56&#45;&gt;40 -->
<g id="edge63" class="edge"><title>56&#45;&gt;40</title>
<path fill="none" stroke="grey" stroke-width="2" d="M1279,-511.793C1279,-485.91 1279,-436.727 1279,-406.026"/>
<polygon fill="grey" stroke="grey" stroke-width="2" points="1282.5,-406.006 1279,-396.006 1275.5,-406.006 1282.5,-406.006"/>
</g>
<!-- 59 -->
<g id="node60" class="node"><title>59</title>
<path fill="none" stroke="#56b1d8" stroke-width="2" d="M1369,-468C1369,-468 1325,-468 1325,-468 1319,-468 1313,-462 1313,-456 1313,-456 1313,-444 1313,-444 1313,-438 1319,-432 1325,-432 1325,-432 1369,-432 1369,-432 1375,-432 1381,-438 1381,-444 1381,-444 1381,-456 1381,-456 1381,-462 1375,-468 1369,-468"/>
<text text-anchor="middle" x="1347" y="-447.5" font-family="sans" font-size="10.00">create_vcf</text>
</g>
<!-- 56&#45;&gt;59 -->
<g id="edge89" class="edge"><title>56&#45;&gt;59</title>
<path fill="none" stroke="grey" stroke-width="2" d="M1294.09,-511.689C1303.25,-501.187 1315.09,-487.608 1325.24,-475.958"/>
<polygon fill="grey" stroke="grey" stroke-width="2" points="1328.02,-478.1 1331.95,-468.262 1322.74,-473.5 1328.02,-478.1"/>
</g>
<!-- 57 -->
<g id="node58" class="node"><title>57</title>
<path fill="none" stroke="#56b1d8" stroke-width="2" d="M1213,-468C1213,-468 1169,-468 1169,-468 1163,-468 1157,-462 1157,-456 1157,-456 1157,-444 1157,-444 1157,-438 1163,-432 1169,-432 1169,-432 1213,-432 1213,-432 1219,-432 1225,-438 1225,-444 1225,-444 1225,-456 1225,-456 1225,-462 1219,-468 1213,-468"/>
<text text-anchor="middle" x="1191" y="-447.5" font-family="sans" font-size="10.00">create_vcf</text>
</g>
<!-- 57&#45;&gt;41 -->
<g id="edge64" class="edge"><title>57&#45;&gt;41</title>
<path fill="none" stroke="grey" stroke-width="2" d="M1191,-431.697C1191,-423.983 1191,-414.712 1191,-406.112"/>
<polygon fill="grey" stroke="grey" stroke-width="2" points="1194.5,-406.104 1191,-396.104 1187.5,-406.104 1194.5,-406.104"/>
</g>
<!-- 58 -->
<g id="node59" class="node"><title>58</title>
<path fill="none" stroke="#56d89a" stroke-width="2" d="M1113,-548C1113,-548 1075,-548 1075,-548 1069,-548 1063,-542 1063,-536 1063,-536 1063,-524 1063,-524 1063,-518 1069,-512 1075,-512 1075,-512 1113,-512 1113,-512 1119,-512 1125,-518 1125,-524 1125,-524 1125,-536 1125,-536 1125,-542 1119,-548 1113,-548"/>
<text text-anchor="middle" x="1094" y="-527.5" font-family="sans" font-size="10.00">sort_bam</text>
</g>
<!-- 58&#45;&gt;42 -->
<g id="edge65" class="edge"><title>58&#45;&gt;42</title>
<path fill="none" stroke="grey" stroke-width="2" d="M1077.58,-511.689C1067.52,-501.086 1054.48,-487.346 1043.36,-475.622"/>
<polygon fill="grey" stroke="grey" stroke-width="2" points="1045.8,-473.108 1036.38,-468.262 1040.72,-477.926 1045.8,-473.108"/>
</g>
<!-- 58&#45;&gt;55 -->
<g id="edge82" class="edge"><title>58&#45;&gt;55</title>
<path fill="none" stroke="grey" stroke-width="2" d="M1096.44,-511.689C1097.82,-501.894 1099.58,-489.422 1101.15,-478.335"/>
<polygon fill="grey" stroke="grey" stroke-width="2" points="1104.63,-478.653 1102.57,-468.262 1097.7,-477.676 1104.63,-478.653"/>
</g>
<!-- 59&#45;&gt;43 -->
<g id="edge66" class="edge"><title>59&#45;&gt;43</title>
<path fill="none" stroke="grey" stroke-width="2" d="M1351.94,-431.697C1354.17,-423.898 1356.85,-414.509 1359.33,-405.829"/>
<polygon fill="grey" stroke="grey" stroke-width="2" points="1362.73,-406.681 1362.11,-396.104 1356,-404.758 1362.73,-406.681"/>
</g>
<!-- 60 -->
<g id="node61" class="node"><title>60</title>
<path fill="none" stroke="#56d89a" stroke-width="2" d="M1006,-548C1006,-548 968,-548 968,-548 962,-548 956,-542 956,-536 956,-536 956,-524 956,-524 956,-518 962,-512 968,-512 968,-512 1006,-512 1006,-512 1012,-512 1018,-518 1018,-524 1018,-524 1018,-536 1018,-536 1018,-542 1012,-548 1006,-548"/>
<text text-anchor="middle" x="987" y="-527.5" font-family="sans" font-size="10.00">sort_bam</text>
</g>
<!-- 60&#45;&gt;44 -->
<g id="edge67" class="edge"><title>60&#45;&gt;44</title>
<path fill="none" stroke="grey" stroke-width="2" d="M975.681,-511.689C968.947,-501.389 960.277,-488.129 952.759,-476.632"/>
<polygon fill="grey" stroke="grey" stroke-width="2" points="955.689,-474.717 947.287,-468.262 949.83,-478.547 955.689,-474.717"/>
</g>
<!-- 60&#45;&gt;57 -->
<g id="edge85" class="edge"><title>60&#45;&gt;57</title>
<path fill="none" stroke="grey" stroke-width="2" d="M1018.22,-517.324C1048.79,-505.856 1096.92,-487.711 1147.32,-468.241"/>
<polygon fill="grey" stroke="grey" stroke-width="2" points="1148.69,-471.465 1156.75,-464.592 1146.16,-464.936 1148.69,-471.465"/>
</g>
<!-- 61 -->
<g id="node62" class="node"><title>61</title>
<path fill="none" stroke="#56d89a" stroke-width="2" d="M1451,-548C1451,-548 1413,-548 1413,-548 1407,-548 1401,-542 1401,-536 1401,-536 1401,-524 1401,-524 1401,-518 1407,-512 1413,-512 1413,-512 1451,-512 1451,-512 1457,-512 1463,-518 1463,-524 1463,-524 1463,-536 1463,-536 1463,-542 1457,-548 1451,-548"/>
<text text-anchor="middle" x="1432" y="-527.5" font-family="sans" font-size="10.00">sort_bam</text>
</g>
<!-- 61&#45;&gt;45 -->
<g id="edge68" class="edge"><title>61&#45;&gt;45</title>
<path fill="none" stroke="grey" stroke-width="2" d="M1432,-511.689C1432,-501.894 1432,-489.422 1432,-478.335"/>
<polygon fill="grey" stroke="grey" stroke-width="2" points="1435.5,-478.262 1432,-468.262 1428.5,-478.262 1435.5,-478.262"/>
</g>
<!-- 62 -->
<g id="node63" class="node"><title>62</title>
<path fill="none" stroke="#56b1d8" stroke-width="2" d="M1539,-468C1539,-468 1495,-468 1495,-468 1489,-468 1483,-462 1483,-456 1483,-456 1483,-444 1483,-444 1483,-438 1489,-432 1495,-432 1495,-432 1539,-432 1539,-432 1545,-432 1551,-438 1551,-444 1551,-444 1551,-456 1551,-456 1551,-462 1545,-468 1539,-468"/>
<text text-anchor="middle" x="1517" y="-447.5" font-family="sans" font-size="10.00">create_vcf</text>
</g>
<!-- 61&#45;&gt;62 -->
<g id="edge92" class="edge"><title>61&#45;&gt;62</title>
<path fill="none" stroke="grey" stroke-width="2" d="M1450.86,-511.689C1462.53,-500.985 1477.68,-487.084 1490.53,-475.288"/>
<polygon fill="grey" stroke="grey" stroke-width="2" points="1493.19,-477.602 1498.19,-468.262 1488.45,-472.445 1493.19,-477.602"/>
</g>
<!-- 62&#45;&gt;46 -->
<g id="edge69" class="edge"><title>62&#45;&gt;46</title>
<path fill="none" stroke="grey" stroke-width="2" d="M1551.22,-443.39C1627.19,-430.935 1810.06,-400.958 1896.81,-386.737"/>
<polygon fill="grey" stroke="grey" stroke-width="2" points="1897.59,-390.155 1906.89,-385.083 1896.46,-383.247 1897.59,-390.155"/>
</g>
<!-- 63 -->
<g id="node64" class="node"><title>63</title>
<path fill="none" stroke="#56a2d8" stroke-width="2" d="M1785,-396C1785,-396 1681,-396 1681,-396 1675,-396 1669,-390 1669,-384 1669,-384 1669,-372 1669,-372 1669,-366 1675,-360 1681,-360 1681,-360 1785,-360 1785,-360 1791,-360 1797,-366 1797,-372 1797,-372 1797,-384 1797,-384 1797,-390 1791,-396 1785,-396"/>
<text text-anchor="middle" x="1733" y="-381" font-family="sans" font-size="10.00">create_ref_target_seqs</text>
<text text-anchor="middle" x="1733" y="-370" font-family="sans" font-size="10.00">TMP_D: tmp</text>
</g>
<!-- 63&#45;&gt;47 -->
<g id="edge70" class="edge"><title>63&#45;&gt;47</title>
<path fill="none" stroke="grey" stroke-width="2" d="M1754.26,-359.697C1765.09,-350.881 1778.42,-340.032 1790.16,-330.474"/>
<polygon fill="grey" stroke="grey" stroke-width="2" points="1792.44,-333.132 1797.99,-324.104 1788.02,-327.703 1792.44,-333.132"/>
</g>
<!-- 63&#45;&gt;48 -->
<g id="edge73" class="edge"><title>63&#45;&gt;48</title>
<path fill="none" stroke="grey" stroke-width="2" d="M1669.73,-359.966C1632.45,-349.93 1585.14,-337.19 1546.25,-326.721"/>
<polygon fill="grey" stroke="grey" stroke-width="2" points="1547.12,-323.331 1536.55,-324.111 1545.3,-330.09 1547.12,-323.331"/>
</g>
<!-- 63&#45;&gt;49 -->
<g id="edge75" class="edge"><title>63&#45;&gt;49</title>
<path fill="none" stroke="grey" stroke-width="2" d="M1797.39,-363.586C1849.63,-352.703 1923.79,-337.252 1981.43,-325.244"/>
<polygon fill="grey" stroke="grey" stroke-width="2" points="1982.18,-328.663 1991.26,-323.196 1980.75,-321.81 1982.18,-328.663"/>
</g>
<!-- 63&#45;&gt;50 -->
<g id="edge76" class="edge"><title>63&#45;&gt;50</title>
<path fill="none" stroke="grey" stroke-width="2" d="M1711.49,-359.697C1700.54,-350.881 1687.05,-340.032 1675.18,-330.474"/>
<polygon fill="grey" stroke="grey" stroke-width="2" points="1677.24,-327.646 1667.26,-324.104 1672.86,-333.1 1677.24,-327.646"/>
</g>
<!-- 64 -->
<g id="node65" class="node"><title>64</title>
<path fill="none" stroke="#8fd856" stroke-width="2" stroke-dasharray="5,2" d="M1162.5,-716C1162.5,-716 1097.5,-716 1097.5,-716 1091.5,-716 1085.5,-710 1085.5,-704 1085.5,-704 1085.5,-692 1085.5,-692 1085.5,-686 1091.5,-680 1097.5,-680 1097.5,-680 1162.5,-680 1162.5,-680 1168.5,-680 1174.5,-686 1174.5,-692 1174.5,-692 1174.5,-704 1174.5,-704 1174.5,-710 1168.5,-716 1162.5,-716"/>
<text text-anchor="middle" x="1130" y="-695.5" font-family="sans" font-size="10.00">load_reference</text>
</g>
<!-- 64&#45;&gt;51 -->
<g id="edge78" class="edge"><title>64&#45;&gt;51</title>
<path fill="none" stroke="grey" stroke-width="2" d="M1085.38,-697.233C992.897,-696.703 774.205,-690.179 598,-644 593.649,-642.86 589.206,-641.429 584.816,-639.833"/>
<polygon fill="grey" stroke="grey" stroke-width="2" points="585.934,-636.512 575.346,-636.123 583.38,-643.03 585.934,-636.512"/>
</g>
<!-- 64&#45;&gt;52 -->
<g id="edge79" class="edge"><title>64&#45;&gt;52</title>
<path fill="none" stroke="grey" stroke-width="2" d="M1085.4,-696.189C1006.64,-693.724 838.457,-683.806 703,-644 699.216,-642.888 695.366,-641.527 691.559,-640.019"/>
<polygon fill="grey" stroke="grey" stroke-width="2" points="692.82,-636.751 682.25,-636.028 690.062,-643.185 692.82,-636.751"/>
</g>
<!-- 64&#45;&gt;53 -->
<g id="edge80" class="edge"><title>64&#45;&gt;53</title>
<path fill="none" stroke="grey" stroke-width="2" d="M1085.3,-692.885C1024.01,-686.462 910.902,-671.804 818,-644 813.982,-642.798 809.872,-641.385 805.791,-639.854"/>
<polygon fill="grey" stroke="grey" stroke-width="2" points="806.961,-636.553 796.375,-636.108 804.374,-643.057 806.961,-636.553"/>
</g>
<!-- 64&#45;&gt;54 -->
<g id="edge81" class="edge"><title>64&#45;&gt;54</title>
<path fill="none" stroke="grey" stroke-width="2" d="M1085.21,-686.986C1044.9,-677.494 984.289,-662.031 933,-644 929.48,-642.762 925.872,-641.404 922.265,-639.979"/>
<polygon fill="grey" stroke="grey" stroke-width="2" points="923.357,-636.645 912.776,-636.093 920.704,-643.122 923.357,-636.645"/>
</g>
<!-- 64&#45;&gt;55 -->
<g id="edge83" class="edge"><title>64&#45;&gt;55</title>
<path fill="none" stroke="grey" stroke-width="2" d="M1137.07,-679.665C1140.84,-669.47 1145.09,-656.22 1147,-644 1156.66,-582.261 1153.87,-563.245 1134,-504 1130.95,-494.896 1126.37,-485.526 1121.75,-477.244"/>
<polygon fill="grey" stroke="grey" stroke-width="2" points="1124.66,-475.292 1116.59,-468.428 1118.62,-478.827 1124.66,-475.292"/>
</g>
<!-- 64&#45;&gt;57 -->
<g id="edge86" class="edge"><title>64&#45;&gt;57</title>
<path fill="none" stroke="grey" stroke-width="2" d="M1143.7,-679.872C1150.91,-669.958 1159.22,-656.917 1164,-644 1184.85,-587.69 1189.77,-516.694 1190.82,-478.44"/>
<polygon fill="grey" stroke="grey" stroke-width="2" points="1194.33,-478.183 1191.03,-468.114 1187.33,-478.04 1194.33,-478.183"/>
</g>
<!-- 64&#45;&gt;59 -->
<g id="edge88" class="edge"><title>64&#45;&gt;59</title>
<path fill="none" stroke="grey" stroke-width="2" d="M1174.74,-691.239C1227.66,-683.44 1311.12,-667.712 1331,-644 1370.45,-596.957 1361.76,-518.828 1353.54,-477.896"/>
<polygon fill="grey" stroke="grey" stroke-width="2" points="1356.95,-477.138 1351.43,-468.097 1350.11,-478.609 1356.95,-477.138"/>
</g>
<!-- 64&#45;&gt;62 -->
<g id="edge93" class="edge"><title>64&#45;&gt;62</title>
<path fill="none" stroke="grey" stroke-width="2" d="M1174.51,-696.189C1257.52,-693.734 1431.42,-683.842 1474,-644 1520,-600.954 1522.15,-520.437 1519.67,-478.298"/>
<polygon fill="grey" stroke="grey" stroke-width="2" points="1523.16,-477.939 1518.95,-468.215 1516.17,-478.441 1523.16,-477.939"/>
</g>
<!-- 65 -->
<g id="node66" class="node"><title>65</title>
<path fill="none" stroke="#56d88a" stroke-width="2" d="M1310.5,-644C1310.5,-644 1245.5,-644 1245.5,-644 1239.5,-644 1233.5,-638 1233.5,-632 1233.5,-632 1233.5,-604 1233.5,-604 1233.5,-598 1239.5,-592 1245.5,-592 1245.5,-592 1310.5,-592 1310.5,-592 1316.5,-592 1322.5,-598 1322.5,-604 1322.5,-604 1322.5,-632 1322.5,-632 1322.5,-638 1316.5,-644 1310.5,-644"/>
<text text-anchor="middle" x="1278" y="-632" font-family="sans" font-size="10.00">mapping</text>
<text text-anchor="middle" x="1278" y="-621" font-family="sans" font-size="10.00">TMP_D: tmp</text>
<text text-anchor="middle" x="1278" y="-610" font-family="sans" font-size="10.00">mapper: bwa</text>
<text text-anchor="middle" x="1278" y="-599" font-family="sans" font-size="10.00">strain: CH2502</text>
</g>
<!-- 64&#45;&gt;65 -->
<g id="edge94" class="edge"><title>64&#45;&gt;65</title>
<path fill="none" stroke="grey" stroke-width="2" d="M1162.48,-679.883C1180.56,-670.351 1203.54,-658.241 1224.23,-647.336"/>
<polygon fill="grey" stroke="grey" stroke-width="2" points="1226.03,-650.345 1233.25,-642.586 1222.77,-644.152 1226.03,-650.345"/>
</g>
<!-- 66 -->
<g id="node67" class="node"><title>66</title>
<path fill="none" stroke="#56d88a" stroke-width="2" d="M1126.5,-644C1126.5,-644 1061.5,-644 1061.5,-644 1055.5,-644 1049.5,-638 1049.5,-632 1049.5,-632 1049.5,-604 1049.5,-604 1049.5,-598 1055.5,-592 1061.5,-592 1061.5,-592 1126.5,-592 1126.5,-592 1132.5,-592 1138.5,-598 1138.5,-604 1138.5,-604 1138.5,-632 1138.5,-632 1138.5,-638 1132.5,-644 1126.5,-644"/>
<text text-anchor="middle" x="1094" y="-632" font-family="sans" font-size="10.00">mapping</text>
<text text-anchor="middle" x="1094" y="-621" font-family="sans" font-size="10.00">TMP_D: tmp</text>
<text text-anchor="middle" x="1094" y="-610" font-family="sans" font-size="10.00">mapper: bwa</text>
<text text-anchor="middle" x="1094" y="-599" font-family="sans" font-size="10.00">strain: CH2522</text>
</g>
<!-- 64&#45;&gt;66 -->
<g id="edge95" class="edge"><title>64&#45;&gt;66</title>
<path fill="none" stroke="grey" stroke-width="2" d="M1122.01,-679.689C1118.44,-671.961 1114.11,-662.567 1109.92,-653.502"/>
<polygon fill="grey" stroke="grey" stroke-width="2" points="1113.03,-651.87 1105.66,-644.257 1106.67,-654.803 1113.03,-651.87"/>
</g>
<!-- 67 -->
<g id="node68" class="node"><title>67</title>
<path fill="none" stroke="#56d88a" stroke-width="2" d="M1019.5,-644C1019.5,-644 954.5,-644 954.5,-644 948.5,-644 942.5,-638 942.5,-632 942.5,-632 942.5,-604 942.5,-604 942.5,-598 948.5,-592 954.5,-592 954.5,-592 1019.5,-592 1019.5,-592 1025.5,-592 1031.5,-598 1031.5,-604 1031.5,-604 1031.5,-632 1031.5,-632 1031.5,-638 1025.5,-644 1019.5,-644"/>
<text text-anchor="middle" x="987" y="-632" font-family="sans" font-size="10.00">mapping</text>
<text text-anchor="middle" x="987" y="-621" font-family="sans" font-size="10.00">TMP_D: tmp</text>
<text text-anchor="middle" x="987" y="-610" font-family="sans" font-size="10.00">mapper: bwa</text>
<text text-anchor="middle" x="987" y="-599" font-family="sans" font-size="10.00">strain: CH2500</text>
</g>
<!-- 64&#45;&gt;67 -->
<g id="edge96" class="edge"><title>64&#45;&gt;67</title>
<path fill="none" stroke="grey" stroke-width="2" d="M1098.62,-679.883C1081.58,-670.588 1060.04,-658.842 1040.45,-648.152"/>
<polygon fill="grey" stroke="grey" stroke-width="2" points="1042.06,-645.043 1031.6,-643.328 1038.7,-651.189 1042.06,-645.043"/>
</g>
<!-- 68 -->
<g id="node69" class="node"><title>68</title>
<path fill="none" stroke="#56d88a" stroke-width="2" d="M1453,-644C1453,-644 1397,-644 1397,-644 1391,-644 1385,-638 1385,-632 1385,-632 1385,-604 1385,-604 1385,-598 1391,-592 1397,-592 1397,-592 1453,-592 1453,-592 1459,-592 1465,-598 1465,-604 1465,-604 1465,-632 1465,-632 1465,-638 1459,-644 1453,-644"/>
<text text-anchor="middle" x="1425" y="-632" font-family="sans" font-size="10.00">mapping</text>
<text text-anchor="middle" x="1425" y="-621" font-family="sans" font-size="10.00">TMP_D: tmp</text>
<text text-anchor="middle" x="1425" y="-610" font-family="sans" font-size="10.00">mapper: bwa</text>
<text text-anchor="middle" x="1425" y="-599" font-family="sans" font-size="10.00">strain: F1659</text>
</g>
<!-- 64&#45;&gt;68 -->
<g id="edge97" class="edge"><title>64&#45;&gt;68</title>
<path fill="none" stroke="grey" stroke-width="2" d="M1174.79,-689.288C1222.53,-680.517 1300.04,-664.686 1365,-644 1368.33,-642.941 1371.73,-641.772 1375.13,-640.536"/>
<polygon fill="grey" stroke="grey" stroke-width="2" points="1376.58,-643.73 1384.69,-636.911 1374.1,-637.185 1376.58,-643.73"/>
</g>
<!-- 65&#45;&gt;56 -->
<g id="edge84" class="edge"><title>65&#45;&gt;56</title>
<path fill="none" stroke="grey" stroke-width="2" d="M1278.29,-591.662C1278.42,-581.109 1278.56,-568.837 1278.68,-558.104"/>
<polygon fill="grey" stroke="grey" stroke-width="2" points="1282.19,-558.044 1278.8,-548.004 1275.19,-557.962 1282.19,-558.044"/>
</g>
<!-- 66&#45;&gt;58 -->
<g id="edge87" class="edge"><title>66&#45;&gt;58</title>
<path fill="none" stroke="grey" stroke-width="2" d="M1094,-591.662C1094,-581.109 1094,-568.837 1094,-558.104"/>
<polygon fill="grey" stroke="grey" stroke-width="2" points="1097.5,-558.004 1094,-548.004 1090.5,-558.004 1097.5,-558.004"/>
</g>
<!-- 67&#45;&gt;60 -->
<g id="edge90" class="edge"><title>67&#45;&gt;60</title>
<path fill="none" stroke="grey" stroke-width="2" d="M987,-591.662C987,-581.109 987,-568.837 987,-558.104"/>
<polygon fill="grey" stroke="grey" stroke-width="2" points="990.5,-558.004 987,-548.004 983.5,-558.004 990.5,-558.004"/>
</g>
<!-- 68&#45;&gt;61 -->
<g id="edge91" class="edge"><title>68&#45;&gt;61</title>
<path fill="none" stroke="grey" stroke-width="2" d="M1427.06,-591.662C1427.92,-581.109 1428.92,-568.837 1429.79,-558.104"/>
<polygon fill="grey" stroke="grey" stroke-width="2" points="1433.29,-558.255 1430.62,-548.004 1426.32,-557.687 1433.29,-558.255"/>
</g>
</g>
</svg>
