<?xml version="1.0" encoding="UTF-8" standalone="no"?>
<!DOCTYPE svg PUBLIC "-//W3C//DTD SVG 1.1//EN"
 "http://www.w3.org/Graphics/SVG/1.1/DTD/svg11.dtd">
<!-- Generated by graphviz version 2.38.0 (20140413.2041)
 -->
<!-- Title: snakemake_dag Pages: 1 -->
<svg width="3047pt" height="913pt"
 viewBox="0.00 0.00 3047.00 913.00" xmlns="http://www.w3.org/2000/svg" xmlns:xlink="http://www.w3.org/1999/xlink">
<g id="graph0" class="graph" transform="scale(1 1) rotate(0) translate(4 909)">
<title>snakemake_dag</title>
<polygon fill="white" stroke="none" points="-4,4 -4,-909 3043,-909 3043,4 -4,4"/>
<!-- 0 -->
<g id="node1" class="node"><title>0</title>
<path fill="none" stroke="#56d8b1" stroke-width="2" d="M1062.5,-36C1062.5,-36 1032.5,-36 1032.5,-36 1026.5,-36 1020.5,-30 1020.5,-24 1020.5,-24 1020.5,-12 1020.5,-12 1020.5,-6 1026.5,-0 1032.5,-0 1032.5,-0 1062.5,-0 1062.5,-0 1068.5,-0 1074.5,-6 1074.5,-12 1074.5,-12 1074.5,-24 1074.5,-24 1074.5,-30 1068.5,-36 1062.5,-36"/>
<text text-anchor="middle" x="1047.5" y="-15.5" font-family="sans" font-size="10.00">all</text>
</g>
<!-- 1 -->
<g id="node2" class="node"><title>1</title>
<path fill="none" stroke="#59d856" stroke-width="2" d="M721,-108C721,-108 212,-108 212,-108 206,-108 200,-102 200,-96 200,-96 200,-84 200,-84 200,-78 206,-72 212,-72 212,-72 721,-72 721,-72 727,-72 733,-78 733,-84 733,-84 733,-96 733,-96 733,-102 727,-108 721,-108"/>
<text text-anchor="middle" x="466.5" y="-93" font-family="sans" font-size="10.00">compress_feat_table</text>
<text text-anchor="middle" x="466.5" y="-82" font-family="sans" font-size="10.00">prefix: /net/metagenomics/data/from_moni/old.tzuhao/seq2geno/dev_versions/v7/results/nonsyn_snps.tab</text>
</g>
<!-- 1&#45;&gt;0 -->
<g id="edge1" class="edge"><title>1&#45;&gt;0</title>
<path fill="none" stroke="grey" stroke-width="2" d="M607.886,-71.9656C740.81,-55.9506 930.88,-33.0506 1010.35,-23.4759"/>
<polygon fill="grey" stroke="grey" stroke-width="2" points="1010.86,-26.9398 1020.37,-22.2687 1010.02,-19.99 1010.86,-26.9398"/>
</g>
<!-- 2 -->
<g id="node3" class="node"><title>2</title>
<path fill="none" stroke="#d88556" stroke-width="2" d="M580.5,-180C580.5,-180 500.5,-180 500.5,-180 494.5,-180 488.5,-174 488.5,-168 488.5,-168 488.5,-156 488.5,-156 488.5,-150 494.5,-144 500.5,-144 500.5,-144 580.5,-144 580.5,-144 586.5,-144 592.5,-150 592.5,-156 592.5,-156 592.5,-168 592.5,-168 592.5,-174 586.5,-180 580.5,-180"/>
<text text-anchor="middle" x="540.5" y="-159.5" font-family="sans" font-size="10.00">vcf_to_snp_tables</text>
</g>
<!-- 2&#45;&gt;0 -->
<g id="edge2" class="edge"><title>2&#45;&gt;0</title>
<path fill="none" stroke="grey" stroke-width="2" d="M592.632,-154.373C634.806,-147.384 694.669,-133.682 741.5,-108 762.183,-96.6573 759.476,-82.6976 780.5,-72 855.92,-33.6238 956.463,-23.0029 1010.08,-20.0852"/>
<polygon fill="grey" stroke="grey" stroke-width="2" points="1010.34,-23.5769 1020.16,-19.5984 1010,-16.5851 1010.34,-23.5769"/>
</g>
<!-- 2&#45;&gt;1 -->
<g id="edge6" class="edge"><title>2&#45;&gt;1</title>
<path fill="none" stroke="grey" stroke-width="2" d="M522.208,-143.697C513.067,-135.05 501.86,-124.449 491.9,-115.027"/>
<polygon fill="grey" stroke="grey" stroke-width="2" points="494.252,-112.434 484.582,-108.104 489.441,-117.519 494.252,-112.434"/>
</g>
<!-- 4 -->
<g id="node5" class="node"><title>4</title>
<path fill="none" stroke="#59d856" stroke-width="2" d="M1293,-108C1293,-108 802,-108 802,-108 796,-108 790,-102 790,-96 790,-96 790,-84 790,-84 790,-78 796,-72 802,-72 802,-72 1293,-72 1293,-72 1299,-72 1305,-78 1305,-84 1305,-84 1305,-96 1305,-96 1305,-102 1299,-108 1293,-108"/>
<text text-anchor="middle" x="1047.5" y="-93" font-family="sans" font-size="10.00">compress_feat_table</text>
<text text-anchor="middle" x="1047.5" y="-82" font-family="sans" font-size="10.00">prefix: /net/metagenomics/data/from_moni/old.tzuhao/seq2geno/dev_versions/v7/results/syn_snps.tab</text>
</g>
<!-- 2&#45;&gt;4 -->
<g id="edge10" class="edge"><title>2&#45;&gt;4</title>
<path fill="none" stroke="grey" stroke-width="2" d="M592.848,-153.772C668.032,-143.392 809.098,-123.916 914.243,-109.398"/>
<polygon fill="grey" stroke="grey" stroke-width="2" points="914.876,-112.844 924.303,-108.009 913.918,-105.91 914.876,-112.844"/>
</g>
<!-- 3 -->
<g id="node4" class="node"><title>3</title>
<path fill="none" stroke="#5682d8" stroke-width="2" d="M1397.5,-108C1397.5,-108 1335.5,-108 1335.5,-108 1329.5,-108 1323.5,-102 1323.5,-96 1323.5,-96 1323.5,-84 1323.5,-84 1323.5,-78 1329.5,-72 1335.5,-72 1335.5,-72 1397.5,-72 1397.5,-72 1403.5,-72 1409.5,-78 1409.5,-84 1409.5,-84 1409.5,-96 1409.5,-96 1409.5,-102 1403.5,-108 1397.5,-108"/>
<text text-anchor="middle" x="1366.5" y="-87.5" font-family="sans" font-size="10.00">find_best_tree</text>
</g>
<!-- 3&#45;&gt;0 -->
<g id="edge3" class="edge"><title>3&#45;&gt;0</title>
<path fill="none" stroke="grey" stroke-width="2" d="M1323.23,-74.6791C1319.95,-73.7291 1316.68,-72.8241 1313.5,-72 1232.69,-51.0611 1136.23,-33.7053 1084.56,-25.012"/>
<polygon fill="grey" stroke="grey" stroke-width="2" points="1084.98,-21.5332 1074.54,-23.3402 1083.82,-28.4378 1084.98,-21.5332"/>
</g>
<!-- 4&#45;&gt;0 -->
<g id="edge4" class="edge"><title>4&#45;&gt;0</title>
<path fill="none" stroke="grey" stroke-width="2" d="M1047.5,-71.6966C1047.5,-63.9827 1047.5,-54.7125 1047.5,-46.1124"/>
<polygon fill="grey" stroke="grey" stroke-width="2" points="1051,-46.1043 1047.5,-36.1043 1044,-46.1044 1051,-46.1043"/>
</g>
<!-- 5 -->
<g id="node6" class="node"><title>5</title>
<path fill="none" stroke="#d86e56" stroke-width="2" d="M2264,-108C2264,-108 2127,-108 2127,-108 2121,-108 2115,-102 2115,-96 2115,-96 2115,-84 2115,-84 2115,-78 2121,-72 2127,-72 2127,-72 2264,-72 2264,-72 2270,-72 2276,-78 2276,-84 2276,-84 2276,-96 2276,-96 2276,-102 2270,-108 2264,-108"/>
<text text-anchor="middle" x="2195.5" y="-87.5" font-family="sans" font-size="10.00">create_and_make_expr_table</text>
</g>
<!-- 5&#45;&gt;0 -->
<g id="edge5" class="edge"><title>5&#45;&gt;0</title>
<path fill="none" stroke="grey" stroke-width="2" d="M2114.77,-84.0777C1887.27,-70.2057 1246.93,-31.1606 1085.05,-21.2895"/>
<polygon fill="grey" stroke="grey" stroke-width="2" points="1084.85,-17.7712 1074.66,-20.656 1084.43,-24.7582 1084.85,-17.7712"/>
</g>
<!-- 6 -->
<g id="node7" class="node"><title>6</title>
<path fill="none" stroke="#ced856" stroke-width="2" d="M1261.5,-396C1261.5,-396 1145.5,-396 1145.5,-396 1139.5,-396 1133.5,-390 1133.5,-384 1133.5,-384 1133.5,-372 1133.5,-372 1133.5,-366 1139.5,-360 1145.5,-360 1145.5,-360 1261.5,-360 1261.5,-360 1267.5,-360 1273.5,-366 1273.5,-372 1273.5,-372 1273.5,-384 1273.5,-384 1273.5,-390 1267.5,-396 1261.5,-396"/>
<text text-anchor="middle" x="1203.5" y="-375.5" font-family="sans" font-size="10.00">ng_mask_coding_regions</text>
</g>
<!-- 6&#45;&gt;2 -->
<g id="edge7" class="edge"><title>6&#45;&gt;2</title>
<path fill="none" stroke="grey" stroke-width="2" d="M1133.38,-361.347C1130.39,-360.857 1127.42,-360.405 1124.5,-360 1062.19,-351.359 605.162,-367.267 559.5,-324 523.426,-289.818 528.076,-226.197 534.434,-190.008"/>
<polygon fill="grey" stroke="grey" stroke-width="2" points="537.879,-190.628 536.329,-180.148 531.004,-189.307 537.879,-190.628"/>
</g>
<!-- 24 -->
<g id="node25" class="node"><title>24</title>
<path fill="none" stroke="#d8b456" stroke-width="2" d="M1058,-324C1058,-324 927,-324 927,-324 921,-324 915,-318 915,-312 915,-312 915,-300 915,-300 915,-294 921,-288 927,-288 927,-288 1058,-288 1058,-288 1064,-288 1070,-294 1070,-300 1070,-300 1070,-312 1070,-312 1070,-318 1064,-324 1058,-324"/>
<text text-anchor="middle" x="992.5" y="-309" font-family="sans" font-size="10.00">create_consensus_sequence</text>
<text text-anchor="middle" x="992.5" y="-298" font-family="sans" font-size="10.00">strain: F1659</text>
</g>
<!-- 6&#45;&gt;24 -->
<g id="edge59" class="edge"><title>6&#45;&gt;24</title>
<path fill="none" stroke="grey" stroke-width="2" d="M1152.15,-359.966C1122.54,-350.142 1085.13,-337.729 1053.96,-327.389"/>
<polygon fill="grey" stroke="grey" stroke-width="2" points="1054.67,-323.938 1044.08,-324.111 1052.47,-330.582 1054.67,-323.938"/>
</g>
<!-- 25 -->
<g id="node26" class="node"><title>25</title>
<path fill="none" stroke="#d8b456" stroke-width="2" d="M1231,-324C1231,-324 1100,-324 1100,-324 1094,-324 1088,-318 1088,-312 1088,-312 1088,-300 1088,-300 1088,-294 1094,-288 1100,-288 1100,-288 1231,-288 1231,-288 1237,-288 1243,-294 1243,-300 1243,-300 1243,-312 1243,-312 1243,-318 1237,-324 1231,-324"/>
<text text-anchor="middle" x="1165.5" y="-309" font-family="sans" font-size="10.00">create_consensus_sequence</text>
<text text-anchor="middle" x="1165.5" y="-298" font-family="sans" font-size="10.00">strain: CH2502</text>
</g>
<!-- 6&#45;&gt;25 -->
<g id="edge61" class="edge"><title>6&#45;&gt;25</title>
<path fill="none" stroke="grey" stroke-width="2" d="M1194.11,-359.697C1189.74,-351.644 1184.44,-341.894 1179.6,-332.982"/>
<polygon fill="grey" stroke="grey" stroke-width="2" points="1182.63,-331.223 1174.79,-324.104 1176.48,-334.563 1182.63,-331.223"/>
</g>
<!-- 26 -->
<g id="node27" class="node"><title>26</title>
<path fill="none" stroke="#d8b456" stroke-width="2" d="M1404,-324C1404,-324 1273,-324 1273,-324 1267,-324 1261,-318 1261,-312 1261,-312 1261,-300 1261,-300 1261,-294 1267,-288 1273,-288 1273,-288 1404,-288 1404,-288 1410,-288 1416,-294 1416,-300 1416,-300 1416,-312 1416,-312 1416,-318 1410,-324 1404,-324"/>
<text text-anchor="middle" x="1338.5" y="-309" font-family="sans" font-size="10.00">create_consensus_sequence</text>
<text text-anchor="middle" x="1338.5" y="-298" font-family="sans" font-size="10.00">strain: CH2522</text>
</g>
<!-- 6&#45;&gt;26 -->
<g id="edge63" class="edge"><title>6&#45;&gt;26</title>
<path fill="none" stroke="grey" stroke-width="2" d="M1236.52,-359.876C1254.58,-350.512 1277.15,-338.814 1296.45,-328.803"/>
<polygon fill="grey" stroke="grey" stroke-width="2" points="1298.08,-331.9 1305.35,-324.19 1294.86,-325.686 1298.08,-331.9"/>
</g>
<!-- 27 -->
<g id="node28" class="node"><title>27</title>
<path fill="none" stroke="#d8b456" stroke-width="2" d="M1577,-324C1577,-324 1446,-324 1446,-324 1440,-324 1434,-318 1434,-312 1434,-312 1434,-300 1434,-300 1434,-294 1440,-288 1446,-288 1446,-288 1577,-288 1577,-288 1583,-288 1589,-294 1589,-300 1589,-300 1589,-312 1589,-312 1589,-318 1583,-324 1577,-324"/>
<text text-anchor="middle" x="1511.5" y="-309" font-family="sans" font-size="10.00">create_consensus_sequence</text>
<text text-anchor="middle" x="1511.5" y="-298" font-family="sans" font-size="10.00">strain: MHH15083</text>
</g>
<!-- 6&#45;&gt;27 -->
<g id="edge65" class="edge"><title>6&#45;&gt;27</title>
<path fill="none" stroke="grey" stroke-width="2" d="M1273.78,-361.028C1319.29,-350.685 1378.82,-337.155 1426.92,-326.223"/>
<polygon fill="grey" stroke="grey" stroke-width="2" points="1427.71,-329.632 1436.69,-324.003 1426.16,-322.806 1427.71,-329.632"/>
</g>
<!-- 28 -->
<g id="node29" class="node"><title>28</title>
<path fill="none" stroke="#d8b456" stroke-width="2" d="M1750,-324C1750,-324 1619,-324 1619,-324 1613,-324 1607,-318 1607,-312 1607,-312 1607,-300 1607,-300 1607,-294 1613,-288 1619,-288 1619,-288 1750,-288 1750,-288 1756,-288 1762,-294 1762,-300 1762,-300 1762,-312 1762,-312 1762,-318 1756,-324 1750,-324"/>
<text text-anchor="middle" x="1684.5" y="-309" font-family="sans" font-size="10.00">create_consensus_sequence</text>
<text text-anchor="middle" x="1684.5" y="-298" font-family="sans" font-size="10.00">strain: F2097</text>
</g>
<!-- 6&#45;&gt;28 -->
<g id="edge67" class="edge"><title>6&#45;&gt;28</title>
<path fill="none" stroke="grey" stroke-width="2" d="M1273.79,-368.82C1350.59,-359.594 1477.45,-343.513 1596.71,-324.076"/>
<polygon fill="grey" stroke="grey" stroke-width="2" points="1597.45,-327.502 1606.75,-322.429 1596.32,-320.594 1597.45,-327.502"/>
</g>
<!-- 29 -->
<g id="node30" class="node"><title>29</title>
<path fill="none" stroke="#d8b456" stroke-width="2" d="M1923,-324C1923,-324 1792,-324 1792,-324 1786,-324 1780,-318 1780,-312 1780,-312 1780,-300 1780,-300 1780,-294 1786,-288 1792,-288 1792,-288 1923,-288 1923,-288 1929,-288 1935,-294 1935,-300 1935,-300 1935,-312 1935,-312 1935,-318 1929,-324 1923,-324"/>
<text text-anchor="middle" x="1857.5" y="-309" font-family="sans" font-size="10.00">create_consensus_sequence</text>
<text text-anchor="middle" x="1857.5" y="-298" font-family="sans" font-size="10.00">strain: F2167</text>
</g>
<!-- 6&#45;&gt;29 -->
<g id="edge69" class="edge"><title>6&#45;&gt;29</title>
<path fill="none" stroke="grey" stroke-width="2" d="M1273.68,-368.971C1300.24,-366.02 1330.75,-362.734 1358.5,-360 1538.21,-342.296 1586.79,-349.399 1769.83,-324.004"/>
<polygon fill="grey" stroke="grey" stroke-width="2" points="1770.36,-327.463 1779.78,-322.609 1769.39,-320.531 1770.36,-327.463"/>
</g>
<!-- 30 -->
<g id="node31" class="node"><title>30</title>
<path fill="none" stroke="#d8b456" stroke-width="2" d="M2096,-324C2096,-324 1965,-324 1965,-324 1959,-324 1953,-318 1953,-312 1953,-312 1953,-300 1953,-300 1953,-294 1959,-288 1965,-288 1965,-288 2096,-288 2096,-288 2102,-288 2108,-294 2108,-300 2108,-300 2108,-312 2108,-312 2108,-318 2102,-324 2096,-324"/>
<text text-anchor="middle" x="2030.5" y="-309" font-family="sans" font-size="10.00">create_consensus_sequence</text>
<text text-anchor="middle" x="2030.5" y="-298" font-family="sans" font-size="10.00">strain: ESP088</text>
</g>
<!-- 6&#45;&gt;30 -->
<g id="edge71" class="edge"><title>6&#45;&gt;30</title>
<path fill="none" stroke="grey" stroke-width="2" d="M1273.65,-368.589C1300.2,-365.593 1330.72,-362.377 1358.5,-360 1614.75,-338.076 1683.38,-356.567 1942.7,-323.991"/>
<polygon fill="grey" stroke="grey" stroke-width="2" points="1943.31,-327.441 1952.79,-322.709 1942.43,-320.497 1943.31,-327.441"/>
</g>
<!-- 31 -->
<g id="node32" class="node"><title>31</title>
<path fill="none" stroke="#d8b456" stroke-width="2" d="M2269,-324C2269,-324 2138,-324 2138,-324 2132,-324 2126,-318 2126,-312 2126,-312 2126,-300 2126,-300 2126,-294 2132,-288 2138,-288 2138,-288 2269,-288 2269,-288 2275,-288 2281,-294 2281,-300 2281,-300 2281,-312 2281,-312 2281,-318 2275,-324 2269,-324"/>
<text text-anchor="middle" x="2203.5" y="-309" font-family="sans" font-size="10.00">create_consensus_sequence</text>
<text text-anchor="middle" x="2203.5" y="-298" font-family="sans" font-size="10.00">strain: CH2500</text>
</g>
<!-- 6&#45;&gt;31 -->
<g id="edge73" class="edge"><title>6&#45;&gt;31</title>
<path fill="none" stroke="grey" stroke-width="2" d="M1273.63,-368.38C1300.18,-365.361 1330.7,-362.182 1358.5,-360 1691.45,-333.86 1779.94,-363.85 2115.79,-323.964"/>
<polygon fill="grey" stroke="grey" stroke-width="2" points="2116.29,-327.43 2125.8,-322.764 2115.46,-320.48 2116.29,-327.43"/>
</g>
<!-- 32 -->
<g id="node33" class="node"><title>32</title>
<path fill="none" stroke="#d8b456" stroke-width="2" d="M712,-324C712,-324 581,-324 581,-324 575,-324 569,-318 569,-312 569,-312 569,-300 569,-300 569,-294 575,-288 581,-288 581,-288 712,-288 712,-288 718,-288 724,-294 724,-300 724,-300 724,-312 724,-312 724,-318 718,-324 712,-324"/>
<text text-anchor="middle" x="646.5" y="-309" font-family="sans" font-size="10.00">create_consensus_sequence</text>
<text text-anchor="middle" x="646.5" y="-298" font-family="sans" font-size="10.00">strain: MHH15103</text>
</g>
<!-- 6&#45;&gt;32 -->
<g id="edge75" class="edge"><title>6&#45;&gt;32</title>
<path fill="none" stroke="grey" stroke-width="2" d="M1133.37,-361.45C1130.38,-360.932 1127.41,-360.445 1124.5,-360 954.765,-334.04 907.407,-348.439 734.213,-324.164"/>
<polygon fill="grey" stroke="grey" stroke-width="2" points="734.647,-320.69 724.254,-322.745 733.66,-327.62 734.647,-320.69"/>
</g>
<!-- 33 -->
<g id="node34" class="node"><title>33</title>
<path fill="none" stroke="#d8b456" stroke-width="2" d="M885,-324C885,-324 754,-324 754,-324 748,-324 742,-318 742,-312 742,-312 742,-300 742,-300 742,-294 748,-288 754,-288 754,-288 885,-288 885,-288 891,-288 897,-294 897,-300 897,-300 897,-312 897,-312 897,-318 891,-324 885,-324"/>
<text text-anchor="middle" x="819.5" y="-309" font-family="sans" font-size="10.00">create_consensus_sequence</text>
<text text-anchor="middle" x="819.5" y="-298" font-family="sans" font-size="10.00">strain: MHH14911</text>
</g>
<!-- 6&#45;&gt;33 -->
<g id="edge77" class="edge"><title>6&#45;&gt;33</title>
<path fill="none" stroke="grey" stroke-width="2" d="M1133.32,-361.712C1130.35,-361.122 1127.39,-360.549 1124.5,-360 1030.71,-342.211 1004.25,-341.589 907.227,-324.281"/>
<polygon fill="grey" stroke="grey" stroke-width="2" points="907.756,-320.82 897.294,-322.495 906.517,-327.709 907.756,-320.82"/>
</g>
<!-- 7 -->
<g id="node8" class="node"><title>7</title>
<path fill="none" stroke="#56d882" stroke-width="2" d="M1103.5,-396C1103.5,-396 971.5,-396 971.5,-396 965.5,-396 959.5,-390 959.5,-384 959.5,-384 959.5,-372 959.5,-372 959.5,-366 965.5,-360 971.5,-360 971.5,-360 1103.5,-360 1103.5,-360 1109.5,-360 1115.5,-366 1115.5,-372 1115.5,-372 1115.5,-384 1115.5,-384 1115.5,-390 1109.5,-396 1103.5,-396"/>
<text text-anchor="middle" x="1037.5" y="-375.5" font-family="sans" font-size="10.00">ng_mask_intergenic_regions</text>
</g>
<!-- 7&#45;&gt;2 -->
<g id="edge8" class="edge"><title>7&#45;&gt;2</title>
<path fill="none" stroke="grey" stroke-width="2" d="M959.313,-374.542C823.314,-369.455 554.907,-355.506 526.5,-324 493.355,-287.24 512.54,-224.688 527.672,-189.348"/>
<polygon fill="grey" stroke="grey" stroke-width="2" points="530.9,-190.703 531.786,-180.146 524.509,-187.847 530.9,-190.703"/>
</g>
<!-- 8 -->
<g id="node9" class="node"><title>8</title>
<path fill="none" stroke="#d89c56" stroke-width="2" d="M1419.5,-180C1419.5,-180 1313.5,-180 1313.5,-180 1307.5,-180 1301.5,-174 1301.5,-168 1301.5,-168 1301.5,-156 1301.5,-156 1301.5,-150 1307.5,-144 1313.5,-144 1313.5,-144 1419.5,-144 1419.5,-144 1425.5,-144 1431.5,-150 1431.5,-156 1431.5,-156 1431.5,-168 1431.5,-168 1431.5,-174 1425.5,-180 1419.5,-180"/>
<text text-anchor="middle" x="1366.5" y="-159.5" font-family="sans" font-size="10.00">postprocess_alignment</text>
</g>
<!-- 8&#45;&gt;3 -->
<g id="edge9" class="edge"><title>8&#45;&gt;3</title>
<path fill="none" stroke="grey" stroke-width="2" d="M1366.5,-143.697C1366.5,-135.983 1366.5,-126.712 1366.5,-118.112"/>
<polygon fill="grey" stroke="grey" stroke-width="2" points="1370,-118.104 1366.5,-108.104 1363,-118.104 1370,-118.104"/>
</g>
<!-- 9 -->
<g id="node10" class="node"><title>9</title>
<path fill="none" stroke="#88d856" stroke-width="2" d="M2872,-180C2872,-180 2759,-180 2759,-180 2753,-180 2747,-174 2747,-168 2747,-168 2747,-156 2747,-156 2747,-150 2753,-144 2759,-144 2759,-144 2872,-144 2872,-144 2878,-144 2884,-150 2884,-156 2884,-156 2884,-168 2884,-168 2884,-174 2878,-180 2872,-180"/>
<text text-anchor="middle" x="2815.5" y="-165" font-family="sans" font-size="10.00">gene_counts_by_salmon</text>
<text text-anchor="middle" x="2815.5" y="-154" font-family="sans" font-size="10.00">strain: F1659</text>
</g>
<!-- 9&#45;&gt;5 -->
<g id="edge11" class="edge"><title>9&#45;&gt;5</title>
<path fill="none" stroke="grey" stroke-width="2" d="M2746.68,-145.543C2743.58,-144.992 2740.51,-144.474 2737.5,-144 2579.84,-119.198 2394.44,-104.06 2286.43,-96.6255"/>
<polygon fill="grey" stroke="grey" stroke-width="2" points="2286.44,-93.118 2276.22,-95.93 2285.96,-100.102 2286.44,-93.118"/>
</g>
<!-- 10 -->
<g id="node11" class="node"><title>10</title>
<path fill="none" stroke="#88d856" stroke-width="2" d="M3027,-180C3027,-180 2914,-180 2914,-180 2908,-180 2902,-174 2902,-168 2902,-168 2902,-156 2902,-156 2902,-150 2908,-144 2914,-144 2914,-144 3027,-144 3027,-144 3033,-144 3039,-150 3039,-156 3039,-156 3039,-168 3039,-168 3039,-174 3033,-180 3027,-180"/>
<text text-anchor="middle" x="2970.5" y="-165" font-family="sans" font-size="10.00">gene_counts_by_salmon</text>
<text text-anchor="middle" x="2970.5" y="-154" font-family="sans" font-size="10.00">strain: F2167</text>
</g>
<!-- 10&#45;&gt;5 -->
<g id="edge12" class="edge"><title>10&#45;&gt;5</title>
<path fill="none" stroke="grey" stroke-width="2" d="M2901.69,-145.461C2898.59,-144.932 2895.52,-144.441 2892.5,-144 2676.43,-112.395 2419.76,-99.0351 2286.31,-93.886"/>
<polygon fill="grey" stroke="grey" stroke-width="2" points="2286.26,-90.3816 2276.13,-93.5001 2285.99,-97.3766 2286.26,-90.3816"/>
</g>
<!-- 11 -->
<g id="node12" class="node"><title>11</title>
<path fill="none" stroke="#88d856" stroke-width="2" d="M1632,-180C1632,-180 1519,-180 1519,-180 1513,-180 1507,-174 1507,-168 1507,-168 1507,-156 1507,-156 1507,-150 1513,-144 1519,-144 1519,-144 1632,-144 1632,-144 1638,-144 1644,-150 1644,-156 1644,-156 1644,-168 1644,-168 1644,-174 1638,-180 1632,-180"/>
<text text-anchor="middle" x="1575.5" y="-165" font-family="sans" font-size="10.00">gene_counts_by_salmon</text>
<text text-anchor="middle" x="1575.5" y="-154" font-family="sans" font-size="10.00">strain: CH2522</text>
</g>
<!-- 11&#45;&gt;5 -->
<g id="edge13" class="edge"><title>11&#45;&gt;5</title>
<path fill="none" stroke="grey" stroke-width="2" d="M1644.27,-145.389C1647.04,-144.895 1649.8,-144.429 1652.5,-144 1810.42,-118.954 1996.17,-103.894 2104.39,-96.5404"/>
<polygon fill="grey" stroke="grey" stroke-width="2" points="2104.87,-100.016 2114.62,-95.8527 2104.4,-93.0316 2104.87,-100.016"/>
</g>
<!-- 12 -->
<g id="node13" class="node"><title>12</title>
<path fill="none" stroke="#88d856" stroke-width="2" d="M1787,-180C1787,-180 1674,-180 1674,-180 1668,-180 1662,-174 1662,-168 1662,-168 1662,-156 1662,-156 1662,-150 1668,-144 1674,-144 1674,-144 1787,-144 1787,-144 1793,-144 1799,-150 1799,-156 1799,-156 1799,-168 1799,-168 1799,-174 1793,-180 1787,-180"/>
<text text-anchor="middle" x="1730.5" y="-165" font-family="sans" font-size="10.00">gene_counts_by_salmon</text>
<text text-anchor="middle" x="1730.5" y="-154" font-family="sans" font-size="10.00">strain: ESP088</text>
</g>
<!-- 12&#45;&gt;5 -->
<g id="edge14" class="edge"><title>12&#45;&gt;5</title>
<path fill="none" stroke="grey" stroke-width="2" d="M1799.29,-145.521C1802.06,-144.99 1804.8,-144.481 1807.5,-144 1908.71,-125.947 2025.72,-110.729 2104.56,-101.296"/>
<polygon fill="grey" stroke="grey" stroke-width="2" points="2105.43,-104.718 2114.95,-100.061 2104.6,-97.7669 2105.43,-104.718"/>
</g>
<!-- 13 -->
<g id="node14" class="node"><title>13</title>
<path fill="none" stroke="#88d856" stroke-width="2" d="M1942,-180C1942,-180 1829,-180 1829,-180 1823,-180 1817,-174 1817,-168 1817,-168 1817,-156 1817,-156 1817,-150 1823,-144 1829,-144 1829,-144 1942,-144 1942,-144 1948,-144 1954,-150 1954,-156 1954,-156 1954,-168 1954,-168 1954,-174 1948,-180 1942,-180"/>
<text text-anchor="middle" x="1885.5" y="-165" font-family="sans" font-size="10.00">gene_counts_by_salmon</text>
<text text-anchor="middle" x="1885.5" y="-154" font-family="sans" font-size="10.00">strain: F2097</text>
</g>
<!-- 13&#45;&gt;5 -->
<g id="edge15" class="edge"><title>13&#45;&gt;5</title>
<path fill="none" stroke="grey" stroke-width="2" d="M1954.3,-145.465C2000.27,-135.083 2061.09,-121.352 2110.14,-110.274"/>
<polygon fill="grey" stroke="grey" stroke-width="2" points="2111.12,-113.641 2120.11,-108.024 2109.58,-106.813 2111.12,-113.641"/>
</g>
<!-- 14 -->
<g id="node15" class="node"><title>14</title>
<path fill="none" stroke="#88d856" stroke-width="2" d="M2097,-180C2097,-180 1984,-180 1984,-180 1978,-180 1972,-174 1972,-168 1972,-168 1972,-156 1972,-156 1972,-150 1978,-144 1984,-144 1984,-144 2097,-144 2097,-144 2103,-144 2109,-150 2109,-156 2109,-156 2109,-168 2109,-168 2109,-174 2103,-180 2097,-180"/>
<text text-anchor="middle" x="2040.5" y="-165" font-family="sans" font-size="10.00">gene_counts_by_salmon</text>
<text text-anchor="middle" x="2040.5" y="-154" font-family="sans" font-size="10.00">strain: MHH14911</text>
</g>
<!-- 14&#45;&gt;5 -->
<g id="edge16" class="edge"><title>14&#45;&gt;5</title>
<path fill="none" stroke="grey" stroke-width="2" d="M2078.42,-143.876C2099.51,-134.349 2125.96,-122.407 2148.37,-112.283"/>
<polygon fill="grey" stroke="grey" stroke-width="2" points="2150.03,-115.374 2157.71,-108.068 2147.15,-108.994 2150.03,-115.374"/>
</g>
<!-- 15 -->
<g id="node16" class="node"><title>15</title>
<path fill="none" stroke="#88d856" stroke-width="2" d="M2252,-180C2252,-180 2139,-180 2139,-180 2133,-180 2127,-174 2127,-168 2127,-168 2127,-156 2127,-156 2127,-150 2133,-144 2139,-144 2139,-144 2252,-144 2252,-144 2258,-144 2264,-150 2264,-156 2264,-156 2264,-168 2264,-168 2264,-174 2258,-180 2252,-180"/>
<text text-anchor="middle" x="2195.5" y="-165" font-family="sans" font-size="10.00">gene_counts_by_salmon</text>
<text text-anchor="middle" x="2195.5" y="-154" font-family="sans" font-size="10.00">strain: MHH15103</text>
</g>
<!-- 15&#45;&gt;5 -->
<g id="edge17" class="edge"><title>15&#45;&gt;5</title>
<path fill="none" stroke="grey" stroke-width="2" d="M2195.5,-143.697C2195.5,-135.983 2195.5,-126.712 2195.5,-118.112"/>
<polygon fill="grey" stroke="grey" stroke-width="2" points="2199,-118.104 2195.5,-108.104 2192,-118.104 2199,-118.104"/>
</g>
<!-- 16 -->
<g id="node17" class="node"><title>16</title>
<path fill="none" stroke="#88d856" stroke-width="2" d="M2407,-180C2407,-180 2294,-180 2294,-180 2288,-180 2282,-174 2282,-168 2282,-168 2282,-156 2282,-156 2282,-150 2288,-144 2294,-144 2294,-144 2407,-144 2407,-144 2413,-144 2419,-150 2419,-156 2419,-156 2419,-168 2419,-168 2419,-174 2413,-180 2407,-180"/>
<text text-anchor="middle" x="2350.5" y="-165" font-family="sans" font-size="10.00">gene_counts_by_salmon</text>
<text text-anchor="middle" x="2350.5" y="-154" font-family="sans" font-size="10.00">strain: CH2502</text>
</g>
<!-- 16&#45;&gt;5 -->
<g id="edge18" class="edge"><title>16&#45;&gt;5</title>
<path fill="none" stroke="grey" stroke-width="2" d="M2312.58,-143.876C2291.49,-134.349 2265.04,-122.407 2242.63,-112.283"/>
<polygon fill="grey" stroke="grey" stroke-width="2" points="2243.85,-108.994 2233.29,-108.068 2240.97,-115.374 2243.85,-108.994"/>
</g>
<!-- 17 -->
<g id="node18" class="node"><title>17</title>
<path fill="none" stroke="#88d856" stroke-width="2" d="M2562,-180C2562,-180 2449,-180 2449,-180 2443,-180 2437,-174 2437,-168 2437,-168 2437,-156 2437,-156 2437,-150 2443,-144 2449,-144 2449,-144 2562,-144 2562,-144 2568,-144 2574,-150 2574,-156 2574,-156 2574,-168 2574,-168 2574,-174 2568,-180 2562,-180"/>
<text text-anchor="middle" x="2505.5" y="-165" font-family="sans" font-size="10.00">gene_counts_by_salmon</text>
<text text-anchor="middle" x="2505.5" y="-154" font-family="sans" font-size="10.00">strain: CH2500</text>
</g>
<!-- 17&#45;&gt;5 -->
<g id="edge19" class="edge"><title>17&#45;&gt;5</title>
<path fill="none" stroke="grey" stroke-width="2" d="M2436.7,-145.465C2390.73,-135.083 2329.91,-121.352 2280.86,-110.274"/>
<polygon fill="grey" stroke="grey" stroke-width="2" points="2281.42,-106.813 2270.89,-108.024 2279.88,-113.641 2281.42,-106.813"/>
</g>
<!-- 18 -->
<g id="node19" class="node"><title>18</title>
<path fill="none" stroke="#88d856" stroke-width="2" d="M2717,-180C2717,-180 2604,-180 2604,-180 2598,-180 2592,-174 2592,-168 2592,-168 2592,-156 2592,-156 2592,-150 2598,-144 2604,-144 2604,-144 2717,-144 2717,-144 2723,-144 2729,-150 2729,-156 2729,-156 2729,-168 2729,-168 2729,-174 2723,-180 2717,-180"/>
<text text-anchor="middle" x="2660.5" y="-165" font-family="sans" font-size="10.00">gene_counts_by_salmon</text>
<text text-anchor="middle" x="2660.5" y="-154" font-family="sans" font-size="10.00">strain: MHH15083</text>
</g>
<!-- 18&#45;&gt;5 -->
<g id="edge20" class="edge"><title>18&#45;&gt;5</title>
<path fill="none" stroke="grey" stroke-width="2" d="M2591.65,-145.688C2588.56,-145.098 2585.5,-144.532 2582.5,-144 2481.69,-126.14 2365.19,-110.912 2286.56,-101.424"/>
<polygon fill="grey" stroke="grey" stroke-width="2" points="2286.55,-97.8977 2276.21,-100.181 2285.72,-104.848 2286.55,-97.8977"/>
</g>
<!-- 19 -->
<g id="node20" class="node"><title>19</title>
<path fill="none" stroke="#9fd856" stroke-width="2" stroke-dasharray="5,2" d="M1092,-468C1092,-468 985,-468 985,-468 979,-468 973,-462 973,-456 973,-456 973,-444 973,-444 973,-438 979,-432 985,-432 985,-432 1092,-432 1092,-432 1098,-432 1104,-438 1104,-444 1104,-444 1104,-456 1104,-456 1104,-462 1098,-468 1092,-468"/>
<text text-anchor="middle" x="1038.5" y="-447.5" font-family="sans" font-size="10.00">split_multi_allelic_sites</text>
</g>
<!-- 19&#45;&gt;6 -->
<g id="edge21" class="edge"><title>19&#45;&gt;6</title>
<path fill="none" stroke="grey" stroke-width="2" d="M1078.86,-431.876C1101.52,-422.264 1129.97,-410.193 1153.97,-400.013"/>
<polygon fill="grey" stroke="grey" stroke-width="2" points="1155.43,-403.196 1163.27,-396.068 1152.69,-396.752 1155.43,-403.196"/>
</g>
<!-- 19&#45;&gt;7 -->
<g id="edge23" class="edge"><title>19&#45;&gt;7</title>
<path fill="none" stroke="grey" stroke-width="2" d="M1038.25,-431.697C1038.14,-423.983 1038.01,-414.712 1037.89,-406.112"/>
<polygon fill="grey" stroke="grey" stroke-width="2" points="1041.39,-406.053 1037.74,-396.104 1034.39,-406.153 1041.39,-406.053"/>
</g>
<!-- 20 -->
<g id="node21" class="node"><title>20</title>
<path fill="none" stroke="#56b1d8" stroke-width="2" d="M1271,-468C1271,-468 1134,-468 1134,-468 1128,-468 1122,-462 1122,-456 1122,-456 1122,-444 1122,-444 1122,-438 1128,-432 1134,-432 1134,-432 1271,-432 1271,-432 1277,-432 1283,-438 1283,-444 1283,-444 1283,-456 1283,-456 1283,-462 1277,-468 1271,-468"/>
<text text-anchor="middle" x="1202.5" y="-453" font-family="sans" font-size="10.00">ng_create_coding_region_bed</text>
<text text-anchor="middle" x="1202.5" y="-442" font-family="sans" font-size="10.00">TMP_D: seq2geno_temp</text>
</g>
<!-- 20&#45;&gt;6 -->
<g id="edge22" class="edge"><title>20&#45;&gt;6</title>
<path fill="none" stroke="grey" stroke-width="2" d="M1202.75,-431.697C1202.86,-423.983 1202.99,-414.712 1203.11,-406.112"/>
<polygon fill="grey" stroke="grey" stroke-width="2" points="1206.61,-406.153 1203.26,-396.104 1199.61,-406.053 1206.61,-406.153"/>
</g>
<!-- 20&#45;&gt;7 -->
<g id="edge24" class="edge"><title>20&#45;&gt;7</title>
<path fill="none" stroke="grey" stroke-width="2" d="M1162.14,-431.876C1139.48,-422.264 1111.03,-410.193 1087.03,-400.013"/>
<polygon fill="grey" stroke="grey" stroke-width="2" points="1088.31,-396.752 1077.73,-396.068 1085.57,-403.196 1088.31,-396.752"/>
</g>
<!-- 21 -->
<g id="node22" class="node"><title>21</title>
<path fill="none" stroke="#56d8c9" stroke-width="2" d="M1427.5,-252C1427.5,-252 1305.5,-252 1305.5,-252 1299.5,-252 1293.5,-246 1293.5,-240 1293.5,-240 1293.5,-228 1293.5,-228 1293.5,-222 1299.5,-216 1305.5,-216 1305.5,-216 1427.5,-216 1427.5,-216 1433.5,-216 1439.5,-222 1439.5,-228 1439.5,-228 1439.5,-240 1439.5,-240 1439.5,-246 1433.5,-252 1427.5,-252"/>
<text text-anchor="middle" x="1366.5" y="-231.5" font-family="sans" font-size="10.00">create_coding_regions_aln</text>
</g>
<!-- 21&#45;&gt;8 -->
<g id="edge25" class="edge"><title>21&#45;&gt;8</title>
<path fill="none" stroke="grey" stroke-width="2" d="M1366.5,-215.697C1366.5,-207.983 1366.5,-198.712 1366.5,-190.112"/>
<polygon fill="grey" stroke="grey" stroke-width="2" points="1370,-190.104 1366.5,-180.104 1363,-190.104 1370,-190.104"/>
</g>
<!-- 22 -->
<g id="node23" class="node"><title>22</title>
<path fill="none" stroke="#56d86b" stroke-width="2" d="M2417.5,-252C2417.5,-252 2283.5,-252 2283.5,-252 2277.5,-252 2271.5,-246 2271.5,-240 2271.5,-240 2271.5,-228 2271.5,-228 2271.5,-222 2277.5,-216 2283.5,-216 2283.5,-216 2417.5,-216 2417.5,-216 2423.5,-216 2429.5,-222 2429.5,-228 2429.5,-228 2429.5,-240 2429.5,-240 2429.5,-246 2423.5,-252 2417.5,-252"/>
<text text-anchor="middle" x="2350.5" y="-231.5" font-family="sans" font-size="10.00">for_salmon_create_ref_index</text>
</g>
<!-- 22&#45;&gt;9 -->
<g id="edge26" class="edge"><title>22&#45;&gt;9</title>
<path fill="none" stroke="grey" stroke-width="2" d="M2429.72,-223.996C2505.84,-214.924 2624.31,-199.705 2736.51,-180.099"/>
<polygon fill="grey" stroke="grey" stroke-width="2" points="2737.41,-183.494 2746.65,-178.312 2736.2,-176.6 2737.41,-183.494"/>
</g>
<!-- 22&#45;&gt;10 -->
<g id="edge27" class="edge"><title>22&#45;&gt;10</title>
<path fill="none" stroke="grey" stroke-width="2" d="M2429.86,-228.162C2533.78,-221.174 2721.73,-206.293 2891.8,-180.001"/>
<polygon fill="grey" stroke="grey" stroke-width="2" points="2892.34,-183.459 2901.68,-178.457 2891.26,-176.543 2892.34,-183.459"/>
</g>
<!-- 22&#45;&gt;11 -->
<g id="edge28" class="edge"><title>22&#45;&gt;11</title>
<path fill="none" stroke="grey" stroke-width="2" d="M2271.33,-230.635C2143.37,-226.01 1883.14,-213.276 1654.44,-180.175"/>
<polygon fill="grey" stroke="grey" stroke-width="2" points="1654.66,-176.671 1644.26,-178.686 1653.65,-183.597 1654.66,-176.671"/>
</g>
<!-- 22&#45;&gt;12 -->
<g id="edge29" class="edge"><title>22&#45;&gt;12</title>
<path fill="none" stroke="grey" stroke-width="2" d="M2271.44,-228.268C2167.47,-221.379 1978.99,-206.595 1809.38,-180.203"/>
<polygon fill="grey" stroke="grey" stroke-width="2" points="1809.69,-176.708 1799.27,-178.611 1808.6,-183.623 1809.69,-176.708"/>
</g>
<!-- 22&#45;&gt;13 -->
<g id="edge30" class="edge"><title>22&#45;&gt;13</title>
<path fill="none" stroke="grey" stroke-width="2" d="M2271.43,-224.115C2195.12,-215.103 2076.14,-199.906 1964.39,-180.269"/>
<polygon fill="grey" stroke="grey" stroke-width="2" points="1964.75,-176.779 1954.29,-178.479 1963.53,-183.671 1964.75,-176.779"/>
</g>
<!-- 22&#45;&gt;14 -->
<g id="edge31" class="edge"><title>22&#45;&gt;14</title>
<path fill="none" stroke="grey" stroke-width="2" d="M2275.06,-215.966C2227.79,-205.292 2166.98,-191.561 2119.12,-180.754"/>
<polygon fill="grey" stroke="grey" stroke-width="2" points="2119.64,-177.283 2109.12,-178.494 2118.1,-184.111 2119.64,-177.283"/>
</g>
<!-- 22&#45;&gt;15 -->
<g id="edge32" class="edge"><title>22&#45;&gt;15</title>
<path fill="none" stroke="grey" stroke-width="2" d="M2312.58,-215.876C2291.49,-206.349 2265.04,-194.407 2242.63,-184.283"/>
<polygon fill="grey" stroke="grey" stroke-width="2" points="2243.85,-180.994 2233.29,-180.068 2240.97,-187.374 2243.85,-180.994"/>
</g>
<!-- 22&#45;&gt;16 -->
<g id="edge33" class="edge"><title>22&#45;&gt;16</title>
<path fill="none" stroke="grey" stroke-width="2" d="M2350.5,-215.697C2350.5,-207.983 2350.5,-198.712 2350.5,-190.112"/>
<polygon fill="grey" stroke="grey" stroke-width="2" points="2354,-190.104 2350.5,-180.104 2347,-190.104 2354,-190.104"/>
</g>
<!-- 22&#45;&gt;17 -->
<g id="edge34" class="edge"><title>22&#45;&gt;17</title>
<path fill="none" stroke="grey" stroke-width="2" d="M2388.42,-215.876C2409.51,-206.349 2435.96,-194.407 2458.37,-184.283"/>
<polygon fill="grey" stroke="grey" stroke-width="2" points="2460.03,-187.374 2467.71,-180.068 2457.15,-180.994 2460.03,-187.374"/>
</g>
<!-- 22&#45;&gt;18 -->
<g id="edge35" class="edge"><title>22&#45;&gt;18</title>
<path fill="none" stroke="grey" stroke-width="2" d="M2425.94,-215.966C2473.21,-205.292 2534.02,-191.561 2581.88,-180.754"/>
<polygon fill="grey" stroke="grey" stroke-width="2" points="2582.9,-184.111 2591.88,-178.494 2581.36,-177.283 2582.9,-184.111"/>
</g>
<!-- 23 -->
<g id="node24" class="node"><title>23</title>
<path fill="none" stroke="#566bd8" stroke-width="2" stroke-dasharray="5,2" d="M1090.5,-540C1090.5,-540 986.5,-540 986.5,-540 980.5,-540 974.5,-534 974.5,-528 974.5,-528 974.5,-516 974.5,-516 974.5,-510 980.5,-504 986.5,-504 986.5,-504 1090.5,-504 1090.5,-504 1096.5,-504 1102.5,-510 1102.5,-516 1102.5,-516 1102.5,-528 1102.5,-528 1102.5,-534 1096.5,-540 1090.5,-540"/>
<text text-anchor="middle" x="1038.5" y="-519.5" font-family="sans" font-size="10.00">ng_detect_var_for_pop</text>
</g>
<!-- 23&#45;&gt;19 -->
<g id="edge36" class="edge"><title>23&#45;&gt;19</title>
<path fill="none" stroke="grey" stroke-width="2" d="M1038.5,-503.697C1038.5,-495.983 1038.5,-486.712 1038.5,-478.112"/>
<polygon fill="grey" stroke="grey" stroke-width="2" points="1042,-478.104 1038.5,-468.104 1035,-478.104 1042,-478.104"/>
</g>
<!-- 24&#45;&gt;21 -->
<g id="edge37" class="edge"><title>24&#45;&gt;21</title>
<path fill="none" stroke="grey" stroke-width="2" d="M1070.31,-289.572C1073.07,-289.039 1075.81,-288.514 1078.5,-288 1147.4,-274.851 1225.68,-260.481 1283.22,-250.026"/>
<polygon fill="grey" stroke="grey" stroke-width="2" points="1284.14,-253.416 1293.36,-248.186 1282.89,-246.528 1284.14,-253.416"/>
</g>
<!-- 25&#45;&gt;21 -->
<g id="edge38" class="edge"><title>25&#45;&gt;21</title>
<path fill="none" stroke="grey" stroke-width="2" d="M1214.41,-287.966C1242.5,-278.185 1277.96,-265.836 1307.57,-255.524"/>
<polygon fill="grey" stroke="grey" stroke-width="2" points="1309.07,-258.705 1317.37,-252.111 1306.77,-252.094 1309.07,-258.705"/>
</g>
<!-- 26&#45;&gt;21 -->
<g id="edge39" class="edge"><title>26&#45;&gt;21</title>
<path fill="none" stroke="grey" stroke-width="2" d="M1345.42,-287.697C1348.57,-279.813 1352.38,-270.304 1355.88,-261.546"/>
<polygon fill="grey" stroke="grey" stroke-width="2" points="1359.19,-262.689 1359.66,-252.104 1352.69,-260.089 1359.19,-262.689"/>
</g>
<!-- 27&#45;&gt;21 -->
<g id="edge40" class="edge"><title>27&#45;&gt;21</title>
<path fill="none" stroke="grey" stroke-width="2" d="M1476.03,-287.876C1456.38,-278.392 1431.78,-266.513 1410.87,-256.419"/>
<polygon fill="grey" stroke="grey" stroke-width="2" points="1412.38,-253.264 1401.86,-252.068 1409.34,-259.568 1412.38,-253.264"/>
</g>
<!-- 28&#45;&gt;21 -->
<g id="edge41" class="edge"><title>28&#45;&gt;21</title>
<path fill="none" stroke="grey" stroke-width="2" d="M1607.12,-287.966C1559.39,-277.459 1498.2,-263.99 1449.47,-253.263"/>
<polygon fill="grey" stroke="grey" stroke-width="2" points="1450.1,-249.819 1439.58,-251.087 1448.6,-256.655 1450.1,-249.819"/>
</g>
<!-- 29&#45;&gt;21 -->
<g id="edge42" class="edge"><title>29&#45;&gt;21</title>
<path fill="none" stroke="grey" stroke-width="2" d="M1779.76,-289.559C1776.63,-289.017 1773.54,-288.496 1770.5,-288 1659.91,-269.96 1531.51,-253.954 1449.68,-244.371"/>
<polygon fill="grey" stroke="grey" stroke-width="2" points="1450.02,-240.888 1439.68,-243.206 1449.21,-247.841 1450.02,-240.888"/>
</g>
<!-- 30&#45;&gt;21 -->
<g id="edge43" class="edge"><title>30&#45;&gt;21</title>
<path fill="none" stroke="grey" stroke-width="2" d="M1952.78,-289.408C1949.65,-288.908 1946.55,-288.436 1943.5,-288 1768.72,-262.962 1562.37,-247.343 1449.9,-239.997"/>
<polygon fill="grey" stroke="grey" stroke-width="2" points="1449.85,-236.487 1439.65,-239.333 1449.4,-243.472 1449.85,-236.487"/>
</g>
<!-- 31&#45;&gt;21 -->
<g id="edge44" class="edge"><title>31&#45;&gt;21</title>
<path fill="none" stroke="grey" stroke-width="2" d="M2125.79,-289.326C2122.66,-288.849 2119.55,-288.404 2116.5,-288 1875.69,-256.086 1588.67,-242.564 1449.87,-237.559"/>
<polygon fill="grey" stroke="grey" stroke-width="2" points="1449.85,-234.056 1439.73,-237.199 1449.6,-241.051 1449.85,-234.056"/>
</g>
<!-- 32&#45;&gt;21 -->
<g id="edge45" class="edge"><title>32&#45;&gt;21</title>
<path fill="none" stroke="grey" stroke-width="2" d="M724.25,-289.226C727.03,-288.791 729.787,-288.38 732.5,-288 928.863,-260.472 1161.59,-245.489 1283.13,-238.994"/>
<polygon fill="grey" stroke="grey" stroke-width="2" points="1283.66,-242.471 1293.47,-238.448 1283.3,-235.48 1283.66,-242.471"/>
</g>
<!-- 33&#45;&gt;21 -->
<g id="edge46" class="edge"><title>33&#45;&gt;21</title>
<path fill="none" stroke="grey" stroke-width="2" d="M897.266,-289.336C900.042,-288.869 902.793,-288.422 905.5,-288 1036.89,-267.496 1190.5,-251.399 1283.05,-242.55"/>
<polygon fill="grey" stroke="grey" stroke-width="2" points="1283.57,-246.016 1293.2,-241.586 1282.91,-239.048 1283.57,-246.016"/>
</g>
<!-- 34 -->
<g id="node35" class="node"><title>34</title>
<path fill="none" stroke="#d8cb56" stroke-width="2" d="M2448,-324C2448,-324 2311,-324 2311,-324 2305,-324 2299,-318 2299,-312 2299,-312 2299,-300 2299,-300 2299,-294 2305,-288 2311,-288 2311,-288 2448,-288 2448,-288 2454,-288 2460,-294 2460,-300 2460,-300 2460,-312 2460,-312 2460,-318 2454,-324 2448,-324"/>
<text text-anchor="middle" x="2379.5" y="-309" font-family="sans" font-size="10.00">for_salmon_extract_cds_seqs</text>
<text text-anchor="middle" x="2379.5" y="-298" font-family="sans" font-size="10.00">TMP_D: seq2geno_temp</text>
</g>
<!-- 34&#45;&gt;22 -->
<g id="edge47" class="edge"><title>34&#45;&gt;22</title>
<path fill="none" stroke="grey" stroke-width="2" d="M2372.33,-287.697C2369.07,-279.813 2365.13,-270.304 2361.5,-261.546"/>
<polygon fill="grey" stroke="grey" stroke-width="2" points="2364.65,-260.003 2357.59,-252.104 2358.18,-262.683 2364.65,-260.003"/>
</g>
<!-- 35 -->
<g id="node36" class="node"><title>35</title>
<path fill="none" stroke="#56d89a" stroke-width="2" stroke-dasharray="5,2" d="M252.5,-612C252.5,-612 196.5,-612 196.5,-612 190.5,-612 184.5,-606 184.5,-600 184.5,-600 184.5,-588 184.5,-588 184.5,-582 190.5,-576 196.5,-576 196.5,-576 252.5,-576 252.5,-576 258.5,-576 264.5,-582 264.5,-588 264.5,-588 264.5,-600 264.5,-600 264.5,-606 258.5,-612 252.5,-612"/>
<text text-anchor="middle" x="224.5" y="-591.5" font-family="sans" font-size="10.00">ng_sort_bam</text>
</g>
<!-- 35&#45;&gt;23 -->
<g id="edge48" class="edge"><title>35&#45;&gt;23</title>
<path fill="none" stroke="grey" stroke-width="2" d="M264.589,-589.553C393.161,-578.496 796.539,-543.807 964.236,-529.386"/>
<polygon fill="grey" stroke="grey" stroke-width="2" points="964.551,-532.872 974.214,-528.528 963.951,-525.898 964.551,-532.872"/>
</g>
<!-- 36 -->
<g id="node37" class="node"><title>36</title>
<path fill="none" stroke="#56d89a" stroke-width="2" stroke-dasharray="5,2" d="M521.5,-612C521.5,-612 465.5,-612 465.5,-612 459.5,-612 453.5,-606 453.5,-600 453.5,-600 453.5,-588 453.5,-588 453.5,-582 459.5,-576 465.5,-576 465.5,-576 521.5,-576 521.5,-576 527.5,-576 533.5,-582 533.5,-588 533.5,-588 533.5,-600 533.5,-600 533.5,-606 527.5,-612 521.5,-612"/>
<text text-anchor="middle" x="493.5" y="-591.5" font-family="sans" font-size="10.00">ng_sort_bam</text>
</g>
<!-- 36&#45;&gt;23 -->
<g id="edge49" class="edge"><title>36&#45;&gt;23</title>
<path fill="none" stroke="grey" stroke-width="2" d="M533.575,-587.853C624.462,-576.179 847.382,-547.547 964.255,-532.536"/>
<polygon fill="grey" stroke="grey" stroke-width="2" points="964.725,-536.005 974.197,-531.259 963.833,-529.062 964.725,-536.005"/>
</g>
<!-- 37 -->
<g id="node38" class="node"><title>37</title>
<path fill="none" stroke="#56d89a" stroke-width="2" stroke-dasharray="5,2" d="M704.5,-612C704.5,-612 648.5,-612 648.5,-612 642.5,-612 636.5,-606 636.5,-600 636.5,-600 636.5,-588 636.5,-588 636.5,-582 642.5,-576 648.5,-576 648.5,-576 704.5,-576 704.5,-576 710.5,-576 716.5,-582 716.5,-588 716.5,-588 716.5,-600 716.5,-600 716.5,-606 710.5,-612 704.5,-612"/>
<text text-anchor="middle" x="676.5" y="-591.5" font-family="sans" font-size="10.00">ng_sort_bam</text>
</g>
<!-- 37&#45;&gt;23 -->
<g id="edge50" class="edge"><title>37&#45;&gt;23</title>
<path fill="none" stroke="grey" stroke-width="2" d="M716.623,-585.241C776.347,-573.693 889.623,-551.788 964.603,-537.29"/>
<polygon fill="grey" stroke="grey" stroke-width="2" points="965.309,-540.718 974.462,-535.383 963.98,-533.845 965.309,-540.718"/>
</g>
<!-- 38 -->
<g id="node39" class="node"><title>38</title>
<path fill="none" stroke="#56d89a" stroke-width="2" stroke-dasharray="5,2" d="M845.5,-612C845.5,-612 789.5,-612 789.5,-612 783.5,-612 777.5,-606 777.5,-600 777.5,-600 777.5,-588 777.5,-588 777.5,-582 783.5,-576 789.5,-576 789.5,-576 845.5,-576 845.5,-576 851.5,-576 857.5,-582 857.5,-588 857.5,-588 857.5,-600 857.5,-600 857.5,-606 851.5,-612 845.5,-612"/>
<text text-anchor="middle" x="817.5" y="-591.5" font-family="sans" font-size="10.00">ng_sort_bam</text>
</g>
<!-- 38&#45;&gt;23 -->
<g id="edge51" class="edge"><title>38&#45;&gt;23</title>
<path fill="none" stroke="grey" stroke-width="2" d="M857.521,-580.324C890.178,-569.98 936.929,-555.172 974.734,-543.197"/>
<polygon fill="grey" stroke="grey" stroke-width="2" points="976.162,-546.417 984.638,-540.06 974.048,-539.743 976.162,-546.417"/>
</g>
<!-- 39 -->
<g id="node40" class="node"><title>39</title>
<path fill="none" stroke="#56c9d8" stroke-width="2" stroke-dasharray="5,2" d="M1152,-905C1152,-905 1087,-905 1087,-905 1081,-905 1075,-899 1075,-893 1075,-893 1075,-881 1075,-881 1075,-875 1081,-869 1087,-869 1087,-869 1152,-869 1152,-869 1158,-869 1164,-875 1164,-881 1164,-881 1164,-893 1164,-893 1164,-899 1158,-905 1152,-905"/>
<text text-anchor="middle" x="1119.5" y="-884.5" font-family="sans" font-size="10.00">load_reference</text>
</g>
<!-- 39&#45;&gt;23 -->
<g id="edge52" class="edge"><title>39&#45;&gt;23</title>
<path fill="none" stroke="grey" stroke-width="2" d="M1074.76,-879.907C1021.77,-871.768 937.959,-855.695 916.5,-833 887.216,-802.03 897.5,-781.623 897.5,-739 897.5,-739 897.5,-739 897.5,-665 897.5,-609.815 951.786,-568.442 992.99,-544.988"/>
<polygon fill="grey" stroke="grey" stroke-width="2" points="994.756,-548.011 1001.82,-540.116 991.375,-541.881 994.756,-548.011"/>
</g>
<!-- 57 -->
<g id="node58" class="node"><title>57</title>
<path fill="none" stroke="#d85656" stroke-width="2" stroke-dasharray="5,2" d="M245.5,-756C245.5,-756 141.5,-756 141.5,-756 135.5,-756 129.5,-750 129.5,-744 129.5,-744 129.5,-732 129.5,-732 129.5,-726 135.5,-720 141.5,-720 141.5,-720 245.5,-720 245.5,-720 251.5,-720 257.5,-726 257.5,-732 257.5,-732 257.5,-744 257.5,-744 257.5,-750 251.5,-756 245.5,-756"/>
<text text-anchor="middle" x="193.5" y="-735.5" font-family="sans" font-size="10.00">ng_stampy_remapping</text>
</g>
<!-- 39&#45;&gt;57 -->
<g id="edge99" class="edge"><title>39&#45;&gt;57</title>
<path fill="none" stroke="grey" stroke-width="2" d="M1074.82,-884.893C896.706,-880.288 245.388,-861.547 212.5,-833 193.892,-816.848 190.449,-787.955 190.856,-766.451"/>
<polygon fill="grey" stroke="grey" stroke-width="2" points="194.36,-766.436 191.337,-756.282 187.368,-766.105 194.36,-766.436"/>
</g>
<!-- 58 -->
<g id="node59" class="node"><title>58</title>
<path fill="none" stroke="#d85656" stroke-width="2" stroke-dasharray="5,2" d="M467.5,-756C467.5,-756 363.5,-756 363.5,-756 357.5,-756 351.5,-750 351.5,-744 351.5,-744 351.5,-732 351.5,-732 351.5,-726 357.5,-720 363.5,-720 363.5,-720 467.5,-720 467.5,-720 473.5,-720 479.5,-726 479.5,-732 479.5,-732 479.5,-744 479.5,-744 479.5,-750 473.5,-756 467.5,-756"/>
<text text-anchor="middle" x="415.5" y="-735.5" font-family="sans" font-size="10.00">ng_stampy_remapping</text>
</g>
<!-- 39&#45;&gt;58 -->
<g id="edge101" class="edge"><title>39&#45;&gt;58</title>
<path fill="none" stroke="grey" stroke-width="2" d="M1074.86,-885.612C930.421,-883.94 482.379,-875.358 434.5,-833 416.045,-816.673 412.578,-787.808 412.937,-766.358"/>
<polygon fill="grey" stroke="grey" stroke-width="2" points="416.441,-766.365 413.393,-756.217 409.448,-766.05 416.441,-766.365"/>
</g>
<!-- 59 -->
<g id="node60" class="node"><title>59</title>
<path fill="none" stroke="#d85656" stroke-width="2" stroke-dasharray="5,2" d="M689.5,-756C689.5,-756 585.5,-756 585.5,-756 579.5,-756 573.5,-750 573.5,-744 573.5,-744 573.5,-732 573.5,-732 573.5,-726 579.5,-720 585.5,-720 585.5,-720 689.5,-720 689.5,-720 695.5,-720 701.5,-726 701.5,-732 701.5,-732 701.5,-744 701.5,-744 701.5,-750 695.5,-756 689.5,-756"/>
<text text-anchor="middle" x="637.5" y="-735.5" font-family="sans" font-size="10.00">ng_stampy_remapping</text>
</g>
<!-- 39&#45;&gt;59 -->
<g id="edge104" class="edge"><title>39&#45;&gt;59</title>
<path fill="none" stroke="grey" stroke-width="2" d="M1074.93,-883.845C964.891,-878.117 687.009,-861.007 656.5,-833 638.348,-816.337 634.834,-787.524 635.099,-766.178"/>
<polygon fill="grey" stroke="grey" stroke-width="2" points="638.6,-766.226 635.505,-756.093 631.606,-765.944 638.6,-766.226"/>
</g>
<!-- 60 -->
<g id="node61" class="node"><title>60</title>
<path fill="none" stroke="#d85656" stroke-width="2" stroke-dasharray="5,2" d="M857.5,-756C857.5,-756 753.5,-756 753.5,-756 747.5,-756 741.5,-750 741.5,-744 741.5,-744 741.5,-732 741.5,-732 741.5,-726 747.5,-720 753.5,-720 753.5,-720 857.5,-720 857.5,-720 863.5,-720 869.5,-726 869.5,-732 869.5,-732 869.5,-744 869.5,-744 869.5,-750 863.5,-756 857.5,-756"/>
<text text-anchor="middle" x="805.5" y="-735.5" font-family="sans" font-size="10.00">ng_stampy_remapping</text>
</g>
<!-- 39&#45;&gt;60 -->
<g id="edge105" class="edge"><title>39&#45;&gt;60</title>
<path fill="none" stroke="grey" stroke-width="2" d="M1075,-884.486C1025.02,-880.953 943.124,-869.517 883.5,-833 868.941,-824.083 841.839,-789.197 823.733,-764.536"/>
<polygon fill="grey" stroke="grey" stroke-width="2" points="826.453,-762.326 817.738,-756.299 820.793,-766.444 826.453,-762.326"/>
</g>
<!-- 61 -->
<g id="node62" class="node"><title>61</title>
<path fill="none" stroke="#d85656" stroke-width="2" stroke-dasharray="5,2" d="M1090.5,-756C1090.5,-756 986.5,-756 986.5,-756 980.5,-756 974.5,-750 974.5,-744 974.5,-744 974.5,-732 974.5,-732 974.5,-726 980.5,-720 986.5,-720 986.5,-720 1090.5,-720 1090.5,-720 1096.5,-720 1102.5,-726 1102.5,-732 1102.5,-732 1102.5,-744 1102.5,-744 1102.5,-750 1096.5,-756 1090.5,-756"/>
<text text-anchor="middle" x="1038.5" y="-735.5" font-family="sans" font-size="10.00">ng_stampy_remapping</text>
</g>
<!-- 39&#45;&gt;61 -->
<g id="edge107" class="edge"><title>39&#45;&gt;61</title>
<path fill="none" stroke="grey" stroke-width="2" d="M1119.08,-868.875C1117.9,-849.085 1113.73,-816.149 1099.5,-792 1092.87,-780.746 1082.99,-770.668 1073.11,-762.398"/>
<polygon fill="grey" stroke="grey" stroke-width="2" points="1075.25,-759.632 1065.24,-756.166 1070.9,-765.119 1075.25,-759.632"/>
</g>
<!-- 62 -->
<g id="node63" class="node"><title>62</title>
<path fill="none" stroke="#d85656" stroke-width="2" stroke-dasharray="5,2" d="M1282.5,-756C1282.5,-756 1178.5,-756 1178.5,-756 1172.5,-756 1166.5,-750 1166.5,-744 1166.5,-744 1166.5,-732 1166.5,-732 1166.5,-726 1172.5,-720 1178.5,-720 1178.5,-720 1282.5,-720 1282.5,-720 1288.5,-720 1294.5,-726 1294.5,-732 1294.5,-732 1294.5,-744 1294.5,-744 1294.5,-750 1288.5,-756 1282.5,-756"/>
<text text-anchor="middle" x="1230.5" y="-735.5" font-family="sans" font-size="10.00">ng_stampy_remapping</text>
</g>
<!-- 39&#45;&gt;62 -->
<g id="edge109" class="edge"><title>39&#45;&gt;62</title>
<path fill="none" stroke="grey" stroke-width="2" d="M1164.32,-880.6C1217.82,-873.126 1302.45,-857.688 1321.5,-833 1332.63,-818.572 1330.58,-807.798 1321.5,-792 1314.02,-778.993 1301.99,-768.878 1289.09,-761.139"/>
<polygon fill="grey" stroke="grey" stroke-width="2" points="1290.51,-757.925 1280.06,-756.154 1287.12,-764.053 1290.51,-757.925"/>
</g>
<!-- 63 -->
<g id="node64" class="node"><title>63</title>
<path fill="none" stroke="#d85656" stroke-width="2" stroke-dasharray="5,2" d="M1504.5,-756C1504.5,-756 1400.5,-756 1400.5,-756 1394.5,-756 1388.5,-750 1388.5,-744 1388.5,-744 1388.5,-732 1388.5,-732 1388.5,-726 1394.5,-720 1400.5,-720 1400.5,-720 1504.5,-720 1504.5,-720 1510.5,-720 1516.5,-726 1516.5,-732 1516.5,-732 1516.5,-744 1516.5,-744 1516.5,-750 1510.5,-756 1504.5,-756"/>
<text text-anchor="middle" x="1452.5" y="-735.5" font-family="sans" font-size="10.00">ng_stampy_remapping</text>
</g>
<!-- 39&#45;&gt;63 -->
<g id="edge111" class="edge"><title>39&#45;&gt;63</title>
<path fill="none" stroke="grey" stroke-width="2" d="M1164.06,-883.712C1267.81,-877.93 1518.65,-861.155 1543.5,-833 1555.56,-819.339 1552.58,-807.798 1543.5,-792 1536.02,-778.993 1523.99,-768.878 1511.09,-761.139"/>
<polygon fill="grey" stroke="grey" stroke-width="2" points="1512.51,-757.925 1502.06,-756.154 1509.12,-764.053 1512.51,-757.925"/>
</g>
<!-- 64 -->
<g id="node65" class="node"><title>64</title>
<path fill="none" stroke="#d85656" stroke-width="2" stroke-dasharray="5,2" d="M1726.5,-756C1726.5,-756 1622.5,-756 1622.5,-756 1616.5,-756 1610.5,-750 1610.5,-744 1610.5,-744 1610.5,-732 1610.5,-732 1610.5,-726 1616.5,-720 1622.5,-720 1622.5,-720 1726.5,-720 1726.5,-720 1732.5,-720 1738.5,-726 1738.5,-732 1738.5,-732 1738.5,-744 1738.5,-744 1738.5,-750 1732.5,-756 1726.5,-756"/>
<text text-anchor="middle" x="1674.5" y="-735.5" font-family="sans" font-size="10.00">ng_stampy_remapping</text>
</g>
<!-- 39&#45;&gt;64 -->
<g id="edge113" class="edge"><title>39&#45;&gt;64</title>
<path fill="none" stroke="grey" stroke-width="2" d="M1164.13,-885.751C1303.66,-884.513 1724.85,-877.121 1765.5,-833 1777.85,-819.598 1774.58,-807.798 1765.5,-792 1758.02,-778.993 1745.99,-768.878 1733.09,-761.139"/>
<polygon fill="grey" stroke="grey" stroke-width="2" points="1734.51,-757.925 1724.06,-756.154 1731.12,-764.053 1734.51,-757.925"/>
</g>
<!-- 65 -->
<g id="node66" class="node"><title>65</title>
<path fill="none" stroke="#d85656" stroke-width="2" stroke-dasharray="5,2" d="M1948.5,-756C1948.5,-756 1844.5,-756 1844.5,-756 1838.5,-756 1832.5,-750 1832.5,-744 1832.5,-744 1832.5,-732 1832.5,-732 1832.5,-726 1838.5,-720 1844.5,-720 1844.5,-720 1948.5,-720 1948.5,-720 1954.5,-720 1960.5,-726 1960.5,-732 1960.5,-732 1960.5,-744 1960.5,-744 1960.5,-750 1954.5,-756 1948.5,-756"/>
<text text-anchor="middle" x="1896.5" y="-735.5" font-family="sans" font-size="10.00">ng_stampy_remapping</text>
</g>
<!-- 39&#45;&gt;65 -->
<g id="edge115" class="edge"><title>39&#45;&gt;65</title>
<path fill="none" stroke="grey" stroke-width="2" d="M1164.18,-884.952C1337.75,-880.666 1959.03,-863.256 1987.5,-833 1999.99,-819.728 1996.58,-807.798 1987.5,-792 1980.02,-778.993 1967.99,-768.878 1955.09,-761.139"/>
<polygon fill="grey" stroke="grey" stroke-width="2" points="1956.51,-757.925 1946.06,-756.154 1953.12,-764.053 1956.51,-757.925"/>
</g>
<!-- 66 -->
<g id="node67" class="node"><title>66</title>
<path fill="none" stroke="#d85656" stroke-width="2" stroke-dasharray="5,2" d="M2170.5,-756C2170.5,-756 2066.5,-756 2066.5,-756 2060.5,-756 2054.5,-750 2054.5,-744 2054.5,-744 2054.5,-732 2054.5,-732 2054.5,-726 2060.5,-720 2066.5,-720 2066.5,-720 2170.5,-720 2170.5,-720 2176.5,-720 2182.5,-726 2182.5,-732 2182.5,-732 2182.5,-744 2182.5,-744 2182.5,-750 2176.5,-756 2170.5,-756"/>
<text text-anchor="middle" x="2118.5" y="-735.5" font-family="sans" font-size="10.00">ng_stampy_remapping</text>
</g>
<!-- 39&#45;&gt;66 -->
<g id="edge117" class="edge"><title>39&#45;&gt;66</title>
<path fill="none" stroke="grey" stroke-width="2" d="M1164.28,-885.527C1364.92,-883.194 2172.89,-871.433 2209.5,-833 2222.07,-819.806 2218.58,-807.798 2209.5,-792 2202.02,-778.993 2189.99,-768.878 2177.09,-761.139"/>
<polygon fill="grey" stroke="grey" stroke-width="2" points="2178.51,-757.925 2168.06,-756.154 2175.12,-764.053 2178.51,-757.925"/>
</g>
<!-- 67 -->
<g id="node68" class="node"><title>67</title>
<path fill="none" stroke="#b6d856" stroke-width="2" stroke-dasharray="5,2" d="M153,-833C153,-833 12,-833 12,-833 6,-833 0,-827 0,-821 0,-821 0,-804 0,-804 0,-798 6,-792 12,-792 12,-792 153,-792 153,-792 159,-792 165,-798 165,-804 165,-804 165,-821 165,-821 165,-827 159,-833 153,-833"/>
<text text-anchor="middle" x="82.5" y="-821" font-family="sans" font-size="10.00">ng_paired_read_bwa_mapping</text>
<text text-anchor="middle" x="82.5" y="-810" font-family="sans" font-size="10.00">TMP_D: seq2geno_temp</text>
<text text-anchor="middle" x="82.5" y="-799" font-family="sans" font-size="10.00">strain: CH2502</text>
</g>
<!-- 39&#45;&gt;67 -->
<g id="edge119" class="edge"><title>39&#45;&gt;67</title>
<path fill="none" stroke="grey" stroke-width="2" d="M1074.77,-885.728C939.331,-884.423 521.999,-876.856 179.5,-833 178.036,-832.813 176.561,-832.616 175.077,-832.41"/>
<polygon fill="grey" stroke="grey" stroke-width="2" points="175.59,-828.948 165.184,-830.939 174.56,-835.872 175.59,-828.948"/>
</g>
<!-- 68 -->
<g id="node69" class="node"><title>68</title>
<path fill="none" stroke="#b6d856" stroke-width="2" stroke-dasharray="5,2" d="M375,-833C375,-833 234,-833 234,-833 228,-833 222,-827 222,-821 222,-821 222,-804 222,-804 222,-798 228,-792 234,-792 234,-792 375,-792 375,-792 381,-792 387,-798 387,-804 387,-804 387,-821 387,-821 387,-827 381,-833 375,-833"/>
<text text-anchor="middle" x="304.5" y="-821" font-family="sans" font-size="10.00">ng_paired_read_bwa_mapping</text>
<text text-anchor="middle" x="304.5" y="-810" font-family="sans" font-size="10.00">TMP_D: seq2geno_temp</text>
<text text-anchor="middle" x="304.5" y="-799" font-family="sans" font-size="10.00">strain: F1659</text>
</g>
<!-- 39&#45;&gt;68 -->
<g id="edge120" class="edge"><title>39&#45;&gt;68</title>
<path fill="none" stroke="grey" stroke-width="2" d="M1074.77,-884.637C961.567,-880.768 654.747,-867.664 401.5,-833 400.037,-832.8 398.564,-832.591 397.081,-832.375"/>
<polygon fill="grey" stroke="grey" stroke-width="2" points="397.615,-828.916 387.197,-830.842 396.542,-835.833 397.615,-828.916"/>
</g>
<!-- 69 -->
<g id="node70" class="node"><title>69</title>
<path fill="none" stroke="#b6d856" stroke-width="2" stroke-dasharray="5,2" d="M597,-833C597,-833 456,-833 456,-833 450,-833 444,-827 444,-821 444,-821 444,-804 444,-804 444,-798 450,-792 456,-792 456,-792 597,-792 597,-792 603,-792 609,-798 609,-804 609,-804 609,-821 609,-821 609,-827 603,-833 597,-833"/>
<text text-anchor="middle" x="526.5" y="-821" font-family="sans" font-size="10.00">ng_paired_read_bwa_mapping</text>
<text text-anchor="middle" x="526.5" y="-810" font-family="sans" font-size="10.00">TMP_D: seq2geno_temp</text>
<text text-anchor="middle" x="526.5" y="-799" font-family="sans" font-size="10.00">strain: ESP088</text>
</g>
<!-- 39&#45;&gt;69 -->
<g id="edge121" class="edge"><title>39&#45;&gt;69</title>
<path fill="none" stroke="grey" stroke-width="2" d="M1074.86,-882.615C987.751,-875.703 789.131,-858.443 623.5,-833 622.041,-832.776 620.571,-832.545 619.091,-832.308"/>
<polygon fill="grey" stroke="grey" stroke-width="2" points="619.663,-828.855 609.223,-830.659 618.51,-835.759 619.663,-828.855"/>
</g>
<!-- 70 -->
<g id="node71" class="node"><title>70</title>
<path fill="none" stroke="#b6d856" stroke-width="2" stroke-dasharray="5,2" d="M819,-833C819,-833 678,-833 678,-833 672,-833 666,-827 666,-821 666,-821 666,-804 666,-804 666,-798 672,-792 678,-792 678,-792 819,-792 819,-792 825,-792 831,-798 831,-804 831,-804 831,-821 831,-821 831,-827 825,-833 819,-833"/>
<text text-anchor="middle" x="748.5" y="-821" font-family="sans" font-size="10.00">ng_paired_read_bwa_mapping</text>
<text text-anchor="middle" x="748.5" y="-810" font-family="sans" font-size="10.00">TMP_D: seq2geno_temp</text>
<text text-anchor="middle" x="748.5" y="-799" font-family="sans" font-size="10.00">strain: F2097</text>
</g>
<!-- 39&#45;&gt;70 -->
<g id="edge122" class="edge"><title>39&#45;&gt;70</title>
<path fill="none" stroke="grey" stroke-width="2" d="M1074.87,-877.471C1020.62,-867.08 926.31,-848.938 845.5,-833 844.025,-832.709 842.538,-832.415 841.041,-832.119"/>
<polygon fill="grey" stroke="grey" stroke-width="2" points="841.534,-828.649 831.044,-830.137 840.172,-835.515 841.534,-828.649"/>
</g>
<!-- 71 -->
<g id="node72" class="node"><title>71</title>
<path fill="none" stroke="#b6d856" stroke-width="2" stroke-dasharray="5,2" d="M1079,-833C1079,-833 938,-833 938,-833 932,-833 926,-827 926,-821 926,-821 926,-804 926,-804 926,-798 932,-792 938,-792 938,-792 1079,-792 1079,-792 1085,-792 1091,-798 1091,-804 1091,-804 1091,-821 1091,-821 1091,-827 1085,-833 1079,-833"/>
<text text-anchor="middle" x="1008.5" y="-821" font-family="sans" font-size="10.00">ng_paired_read_bwa_mapping</text>
<text text-anchor="middle" x="1008.5" y="-810" font-family="sans" font-size="10.00">TMP_D: seq2geno_temp</text>
<text text-anchor="middle" x="1008.5" y="-799" font-family="sans" font-size="10.00">strain: MHH15083</text>
</g>
<!-- 39&#45;&gt;71 -->
<g id="edge123" class="edge"><title>39&#45;&gt;71</title>
<path fill="none" stroke="grey" stroke-width="2" d="M1093.19,-868.819C1079.48,-859.858 1062.43,-848.723 1047.23,-838.798"/>
<polygon fill="grey" stroke="grey" stroke-width="2" points="1048.82,-835.658 1038.54,-833.12 1045,-841.518 1048.82,-835.658"/>
</g>
<!-- 72 -->
<g id="node73" class="node"><title>72</title>
<path fill="none" stroke="#b6d856" stroke-width="2" stroke-dasharray="5,2" d="M1301,-833C1301,-833 1160,-833 1160,-833 1154,-833 1148,-827 1148,-821 1148,-821 1148,-804 1148,-804 1148,-798 1154,-792 1160,-792 1160,-792 1301,-792 1301,-792 1307,-792 1313,-798 1313,-804 1313,-804 1313,-821 1313,-821 1313,-827 1307,-833 1301,-833"/>
<text text-anchor="middle" x="1230.5" y="-821" font-family="sans" font-size="10.00">ng_paired_read_bwa_mapping</text>
<text text-anchor="middle" x="1230.5" y="-810" font-family="sans" font-size="10.00">TMP_D: seq2geno_temp</text>
<text text-anchor="middle" x="1230.5" y="-799" font-family="sans" font-size="10.00">strain: CH2522</text>
</g>
<!-- 39&#45;&gt;72 -->
<g id="edge124" class="edge"><title>39&#45;&gt;72</title>
<path fill="none" stroke="grey" stroke-width="2" d="M1145.81,-868.819C1159.52,-859.858 1176.57,-848.723 1191.77,-838.798"/>
<polygon fill="grey" stroke="grey" stroke-width="2" points="1194,-841.518 1200.46,-833.12 1190.18,-835.658 1194,-841.518"/>
</g>
<!-- 73 -->
<g id="node74" class="node"><title>73</title>
<path fill="none" stroke="#b6d856" stroke-width="2" stroke-dasharray="5,2" d="M1523,-833C1523,-833 1382,-833 1382,-833 1376,-833 1370,-827 1370,-821 1370,-821 1370,-804 1370,-804 1370,-798 1376,-792 1382,-792 1382,-792 1523,-792 1523,-792 1529,-792 1535,-798 1535,-804 1535,-804 1535,-821 1535,-821 1535,-827 1529,-833 1523,-833"/>
<text text-anchor="middle" x="1452.5" y="-821" font-family="sans" font-size="10.00">ng_paired_read_bwa_mapping</text>
<text text-anchor="middle" x="1452.5" y="-810" font-family="sans" font-size="10.00">TMP_D: seq2geno_temp</text>
<text text-anchor="middle" x="1452.5" y="-799" font-family="sans" font-size="10.00">strain: CH2500</text>
</g>
<!-- 39&#45;&gt;73 -->
<g id="edge125" class="edge"><title>39&#45;&gt;73</title>
<path fill="none" stroke="grey" stroke-width="2" d="M1164.06,-876.298C1213.86,-865.456 1295.86,-847.603 1359.73,-833.697"/>
<polygon fill="grey" stroke="grey" stroke-width="2" points="1360.79,-837.049 1369.82,-831.501 1359.3,-830.209 1360.79,-837.049"/>
</g>
<!-- 74 -->
<g id="node75" class="node"><title>74</title>
<path fill="none" stroke="#b6d856" stroke-width="2" stroke-dasharray="5,2" d="M1745,-833C1745,-833 1604,-833 1604,-833 1598,-833 1592,-827 1592,-821 1592,-821 1592,-804 1592,-804 1592,-798 1598,-792 1604,-792 1604,-792 1745,-792 1745,-792 1751,-792 1757,-798 1757,-804 1757,-804 1757,-821 1757,-821 1757,-827 1751,-833 1745,-833"/>
<text text-anchor="middle" x="1674.5" y="-821" font-family="sans" font-size="10.00">ng_paired_read_bwa_mapping</text>
<text text-anchor="middle" x="1674.5" y="-810" font-family="sans" font-size="10.00">TMP_D: seq2geno_temp</text>
<text text-anchor="middle" x="1674.5" y="-799" font-family="sans" font-size="10.00">strain: MHH14911</text>
</g>
<!-- 39&#45;&gt;74 -->
<g id="edge126" class="edge"><title>39&#45;&gt;74</title>
<path fill="none" stroke="grey" stroke-width="2" d="M1164.2,-882.073C1246.34,-874.58 1426.69,-856.843 1577.5,-833 1578.96,-832.769 1580.43,-832.532 1581.91,-832.29"/>
<polygon fill="grey" stroke="grey" stroke-width="2" points="1582.5,-835.739 1591.77,-830.61 1581.32,-828.839 1582.5,-835.739"/>
</g>
<!-- 75 -->
<g id="node76" class="node"><title>75</title>
<path fill="none" stroke="#b6d856" stroke-width="2" stroke-dasharray="5,2" d="M1967,-833C1967,-833 1826,-833 1826,-833 1820,-833 1814,-827 1814,-821 1814,-821 1814,-804 1814,-804 1814,-798 1820,-792 1826,-792 1826,-792 1967,-792 1967,-792 1973,-792 1979,-798 1979,-804 1979,-804 1979,-821 1979,-821 1979,-827 1973,-833 1967,-833"/>
<text text-anchor="middle" x="1896.5" y="-821" font-family="sans" font-size="10.00">ng_paired_read_bwa_mapping</text>
<text text-anchor="middle" x="1896.5" y="-810" font-family="sans" font-size="10.00">TMP_D: seq2geno_temp</text>
<text text-anchor="middle" x="1896.5" y="-799" font-family="sans" font-size="10.00">strain: MHH15103</text>
</g>
<!-- 39&#45;&gt;75 -->
<g id="edge127" class="edge"><title>39&#45;&gt;75</title>
<path fill="none" stroke="grey" stroke-width="2" d="M1164.25,-884.38C1273.33,-880.027 1561.41,-866.088 1799.5,-833 1800.96,-832.797 1802.44,-832.585 1803.92,-832.366"/>
<polygon fill="grey" stroke="grey" stroke-width="2" points="1804.46,-835.824 1813.8,-830.819 1803.38,-828.908 1804.46,-835.824"/>
</g>
<!-- 76 -->
<g id="node77" class="node"><title>76</title>
<path fill="none" stroke="#b6d856" stroke-width="2" stroke-dasharray="5,2" d="M2189,-833C2189,-833 2048,-833 2048,-833 2042,-833 2036,-827 2036,-821 2036,-821 2036,-804 2036,-804 2036,-798 2042,-792 2048,-792 2048,-792 2189,-792 2189,-792 2195,-792 2201,-798 2201,-804 2201,-804 2201,-821 2201,-821 2201,-827 2195,-833 2189,-833"/>
<text text-anchor="middle" x="2118.5" y="-821" font-family="sans" font-size="10.00">ng_paired_read_bwa_mapping</text>
<text text-anchor="middle" x="2118.5" y="-810" font-family="sans" font-size="10.00">TMP_D: seq2geno_temp</text>
<text text-anchor="middle" x="2118.5" y="-799" font-family="sans" font-size="10.00">strain: F2167</text>
</g>
<!-- 39&#45;&gt;76 -->
<g id="edge128" class="edge"><title>39&#45;&gt;76</title>
<path fill="none" stroke="grey" stroke-width="2" d="M1164.29,-885.578C1296.18,-883.86 1694.41,-875.277 2021.5,-833 2022.96,-832.811 2024.44,-832.612 2025.92,-832.405"/>
<polygon fill="grey" stroke="grey" stroke-width="2" points="2026.44,-835.867 2035.81,-830.926 2025.41,-828.944 2026.44,-835.867"/>
</g>
<!-- 40 -->
<g id="node41" class="node"><title>40</title>
<path fill="none" stroke="#56d89a" stroke-width="2" stroke-dasharray="5,2" d="M1066.5,-612C1066.5,-612 1010.5,-612 1010.5,-612 1004.5,-612 998.5,-606 998.5,-600 998.5,-600 998.5,-588 998.5,-588 998.5,-582 1004.5,-576 1010.5,-576 1010.5,-576 1066.5,-576 1066.5,-576 1072.5,-576 1078.5,-582 1078.5,-588 1078.5,-588 1078.5,-600 1078.5,-600 1078.5,-606 1072.5,-612 1066.5,-612"/>
<text text-anchor="middle" x="1038.5" y="-591.5" font-family="sans" font-size="10.00">ng_sort_bam</text>
</g>
<!-- 40&#45;&gt;23 -->
<g id="edge53" class="edge"><title>40&#45;&gt;23</title>
<path fill="none" stroke="grey" stroke-width="2" d="M1038.5,-575.697C1038.5,-567.983 1038.5,-558.712 1038.5,-550.112"/>
<polygon fill="grey" stroke="grey" stroke-width="2" points="1042,-550.104 1038.5,-540.104 1035,-550.104 1042,-550.104"/>
</g>
<!-- 41 -->
<g id="node42" class="node"><title>41</title>
<path fill="none" stroke="#56d89a" stroke-width="2" stroke-dasharray="5,2" d="M1165.5,-612C1165.5,-612 1109.5,-612 1109.5,-612 1103.5,-612 1097.5,-606 1097.5,-600 1097.5,-600 1097.5,-588 1097.5,-588 1097.5,-582 1103.5,-576 1109.5,-576 1109.5,-576 1165.5,-576 1165.5,-576 1171.5,-576 1177.5,-582 1177.5,-588 1177.5,-588 1177.5,-600 1177.5,-600 1177.5,-606 1171.5,-612 1165.5,-612"/>
<text text-anchor="middle" x="1137.5" y="-591.5" font-family="sans" font-size="10.00">ng_sort_bam</text>
</g>
<!-- 41&#45;&gt;23 -->
<g id="edge54" class="edge"><title>41&#45;&gt;23</title>
<path fill="none" stroke="grey" stroke-width="2" d="M1113.28,-575.876C1100.58,-566.893 1084.84,-555.763 1071.08,-546.034"/>
<polygon fill="grey" stroke="grey" stroke-width="2" points="1073,-543.105 1062.81,-540.19 1068.96,-548.821 1073,-543.105"/>
</g>
<!-- 42 -->
<g id="node43" class="node"><title>42</title>
<path fill="none" stroke="#56d89a" stroke-width="2" stroke-dasharray="5,2" d="M1265.5,-612C1265.5,-612 1209.5,-612 1209.5,-612 1203.5,-612 1197.5,-606 1197.5,-600 1197.5,-600 1197.5,-588 1197.5,-588 1197.5,-582 1203.5,-576 1209.5,-576 1209.5,-576 1265.5,-576 1265.5,-576 1271.5,-576 1277.5,-582 1277.5,-588 1277.5,-588 1277.5,-600 1277.5,-600 1277.5,-606 1271.5,-612 1265.5,-612"/>
<text text-anchor="middle" x="1237.5" y="-591.5" font-family="sans" font-size="10.00">ng_sort_bam</text>
</g>
<!-- 42&#45;&gt;23 -->
<g id="edge55" class="edge"><title>42&#45;&gt;23</title>
<path fill="none" stroke="grey" stroke-width="2" d="M1197.23,-578.834C1168.41,-568.697 1129.17,-554.894 1096.92,-543.548"/>
<polygon fill="grey" stroke="grey" stroke-width="2" points="1097.74,-540.129 1087.15,-540.113 1095.42,-546.733 1097.74,-540.129"/>
</g>
<!-- 43 -->
<g id="node44" class="node"><title>43</title>
<path fill="none" stroke="#56d89a" stroke-width="2" stroke-dasharray="5,2" d="M1366.5,-612C1366.5,-612 1310.5,-612 1310.5,-612 1304.5,-612 1298.5,-606 1298.5,-600 1298.5,-600 1298.5,-588 1298.5,-588 1298.5,-582 1304.5,-576 1310.5,-576 1310.5,-576 1366.5,-576 1366.5,-576 1372.5,-576 1378.5,-582 1378.5,-588 1378.5,-588 1378.5,-600 1378.5,-600 1378.5,-606 1372.5,-612 1366.5,-612"/>
<text text-anchor="middle" x="1338.5" y="-591.5" font-family="sans" font-size="10.00">ng_sort_bam</text>
</g>
<!-- 43&#45;&gt;23 -->
<g id="edge56" class="edge"><title>43&#45;&gt;23</title>
<path fill="none" stroke="grey" stroke-width="2" d="M1298.31,-579.399C1294.34,-578.193 1290.35,-577.038 1286.5,-576 1228.63,-560.404 1162.19,-546.409 1112.65,-536.722"/>
<polygon fill="grey" stroke="grey" stroke-width="2" points="1113.14,-533.252 1102.66,-534.782 1111.81,-540.124 1113.14,-533.252"/>
</g>
<!-- 44 -->
<g id="node45" class="node"><title>44</title>
<path fill="none" stroke="#56d89a" stroke-width="2" stroke-dasharray="5,2" d="M1467.5,-612C1467.5,-612 1411.5,-612 1411.5,-612 1405.5,-612 1399.5,-606 1399.5,-600 1399.5,-600 1399.5,-588 1399.5,-588 1399.5,-582 1405.5,-576 1411.5,-576 1411.5,-576 1467.5,-576 1467.5,-576 1473.5,-576 1479.5,-582 1479.5,-588 1479.5,-588 1479.5,-600 1479.5,-600 1479.5,-606 1473.5,-612 1467.5,-612"/>
<text text-anchor="middle" x="1439.5" y="-591.5" font-family="sans" font-size="10.00">ng_sort_bam</text>
</g>
<!-- 44&#45;&gt;23 -->
<g id="edge57" class="edge"><title>44&#45;&gt;23</title>
<path fill="none" stroke="grey" stroke-width="2" d="M1399.38,-579.156C1395.39,-578 1391.38,-576.922 1387.5,-576 1294.02,-553.782 1184.13,-538.898 1113,-530.7"/>
<polygon fill="grey" stroke="grey" stroke-width="2" points="1113.13,-527.191 1102.79,-529.538 1112.33,-534.146 1113.13,-527.191"/>
</g>
<!-- 45 -->
<g id="node46" class="node"><title>45</title>
<path fill="none" stroke="#56d89a" stroke-width="2" stroke-dasharray="5,2" d="M1568.5,-612C1568.5,-612 1512.5,-612 1512.5,-612 1506.5,-612 1500.5,-606 1500.5,-600 1500.5,-600 1500.5,-588 1500.5,-588 1500.5,-582 1506.5,-576 1512.5,-576 1512.5,-576 1568.5,-576 1568.5,-576 1574.5,-576 1580.5,-582 1580.5,-588 1580.5,-588 1580.5,-600 1580.5,-600 1580.5,-606 1574.5,-612 1568.5,-612"/>
<text text-anchor="middle" x="1540.5" y="-591.5" font-family="sans" font-size="10.00">ng_sort_bam</text>
</g>
<!-- 45&#45;&gt;23 -->
<g id="edge58" class="edge"><title>45&#45;&gt;23</title>
<path fill="none" stroke="grey" stroke-width="2" d="M1500.41,-579.02C1496.41,-577.891 1492.4,-576.857 1488.5,-576 1357.93,-547.268 1202.4,-533.326 1112.59,-527.2"/>
<polygon fill="grey" stroke="grey" stroke-width="2" points="1112.72,-523.701 1102.51,-526.526 1112.25,-530.685 1112.72,-523.701"/>
</g>
<!-- 46 -->
<g id="node47" class="node"><title>46</title>
<path fill="none" stroke="#70d856" stroke-width="2" stroke-dasharray="5,2" d="M1565,-396C1565,-396 1380,-396 1380,-396 1374,-396 1368,-390 1368,-384 1368,-384 1368,-372 1368,-372 1368,-366 1374,-360 1380,-360 1380,-360 1565,-360 1565,-360 1571,-360 1577,-366 1577,-372 1577,-372 1577,-384 1577,-384 1577,-390 1571,-396 1565,-396"/>
<text text-anchor="middle" x="1472.5" y="-381" font-family="sans" font-size="10.00">for_consensus_create_ref_regional_seq</text>
<text text-anchor="middle" x="1472.5" y="-370" font-family="sans" font-size="10.00">TMP_D: seq2geno_temp</text>
</g>
<!-- 46&#45;&gt;24 -->
<g id="edge60" class="edge"><title>46&#45;&gt;24</title>
<path fill="none" stroke="grey" stroke-width="2" d="M1367.72,-364.683C1290.66,-355.208 1183.17,-341.126 1080.22,-324.24"/>
<polygon fill="grey" stroke="grey" stroke-width="2" points="1080.71,-320.773 1070.28,-322.597 1079.57,-327.68 1080.71,-320.773"/>
</g>
<!-- 46&#45;&gt;25 -->
<g id="edge62" class="edge"><title>46&#45;&gt;25</title>
<path fill="none" stroke="grey" stroke-width="2" d="M1397.79,-359.966C1353.23,-349.805 1296.51,-336.872 1250.28,-326.33"/>
<polygon fill="grey" stroke="grey" stroke-width="2" points="1250.8,-322.861 1240.28,-324.05 1249.25,-329.686 1250.8,-322.861"/>
</g>
<!-- 46&#45;&gt;26 -->
<g id="edge64" class="edge"><title>46&#45;&gt;26</title>
<path fill="none" stroke="grey" stroke-width="2" d="M1439.72,-359.876C1421.87,-350.554 1399.6,-338.919 1380.5,-328.939"/>
<polygon fill="grey" stroke="grey" stroke-width="2" points="1381.89,-325.718 1371.41,-324.19 1378.65,-331.922 1381.89,-325.718"/>
</g>
<!-- 46&#45;&gt;27 -->
<g id="edge66" class="edge"><title>46&#45;&gt;27</title>
<path fill="none" stroke="grey" stroke-width="2" d="M1482.14,-359.697C1486.63,-351.644 1492.06,-341.894 1497.02,-332.982"/>
<polygon fill="grey" stroke="grey" stroke-width="2" points="1500.16,-334.544 1501.97,-324.104 1494.05,-331.137 1500.16,-334.544"/>
</g>
<!-- 46&#45;&gt;28 -->
<g id="edge68" class="edge"><title>46&#45;&gt;28</title>
<path fill="none" stroke="grey" stroke-width="2" d="M1524.09,-359.966C1553.97,-350.1 1591.76,-337.622 1623.16,-327.255"/>
<polygon fill="grey" stroke="grey" stroke-width="2" points="1624.28,-330.57 1632.68,-324.111 1622.09,-323.923 1624.28,-330.57"/>
</g>
<!-- 46&#45;&gt;29 -->
<g id="edge70" class="edge"><title>46&#45;&gt;29</title>
<path fill="none" stroke="grey" stroke-width="2" d="M1570.55,-359.992C1626.1,-350.254 1697.15,-337.629 1769.51,-324.17"/>
<polygon fill="grey" stroke="grey" stroke-width="2" points="1770.54,-327.539 1779.72,-322.265 1769.25,-320.657 1770.54,-327.539"/>
</g>
<!-- 46&#45;&gt;30 -->
<g id="edge72" class="edge"><title>46&#45;&gt;30</title>
<path fill="none" stroke="grey" stroke-width="2" d="M1577.12,-367.676C1670.44,-358.793 1810.98,-344.026 1942.88,-324.024"/>
<polygon fill="grey" stroke="grey" stroke-width="2" points="1943.41,-327.484 1952.77,-322.513 1942.35,-320.564 1943.41,-327.484"/>
</g>
<!-- 46&#45;&gt;31 -->
<g id="edge74" class="edge"><title>46&#45;&gt;31</title>
<path fill="none" stroke="grey" stroke-width="2" d="M1577.18,-371.958C1702.75,-365.103 1919.74,-350.69 2115.59,-324.031"/>
<polygon fill="grey" stroke="grey" stroke-width="2" points="2116.35,-327.458 2125.78,-322.629 2115.4,-320.524 2116.35,-327.458"/>
</g>
<!-- 46&#45;&gt;32 -->
<g id="edge76" class="edge"><title>46&#45;&gt;32</title>
<path fill="none" stroke="grey" stroke-width="2" d="M1367.51,-367.155C1339.87,-364.686 1310.07,-362.135 1282.5,-360 1041.6,-341.342 977.145,-355.423 734.438,-324.163"/>
<polygon fill="grey" stroke="grey" stroke-width="2" points="734.609,-320.656 724.241,-322.837 733.706,-327.598 734.609,-320.656"/>
</g>
<!-- 46&#45;&gt;33 -->
<g id="edge78" class="edge"><title>46&#45;&gt;33</title>
<path fill="none" stroke="grey" stroke-width="2" d="M1367.87,-367.498C1221.38,-354.156 967.059,-330.846 907.335,-323.999"/>
<polygon fill="grey" stroke="grey" stroke-width="2" points="907.611,-320.506 897.255,-322.739 906.743,-327.452 907.611,-320.506"/>
</g>
<!-- 47 -->
<g id="node48" class="node"><title>47</title>
<path fill="none" stroke="#569ad8" stroke-width="2" stroke-dasharray="5,2" d="M238,-684C238,-684 179,-684 179,-684 173,-684 167,-678 167,-672 167,-672 167,-660 167,-660 167,-654 173,-648 179,-648 179,-648 238,-648 238,-648 244,-648 250,-654 250,-660 250,-660 250,-672 250,-672 250,-678 244,-684 238,-684"/>
<text text-anchor="middle" x="208.5" y="-663.5" font-family="sans" font-size="10.00">ng_sam2bam</text>
</g>
<!-- 47&#45;&gt;35 -->
<g id="edge79" class="edge"><title>47&#45;&gt;35</title>
<path fill="none" stroke="grey" stroke-width="2" d="M212.455,-647.697C214.218,-639.983 216.337,-630.712 218.303,-622.112"/>
<polygon fill="grey" stroke="grey" stroke-width="2" points="221.774,-622.633 220.59,-612.104 214.95,-621.073 221.774,-622.633"/>
</g>
<!-- 48 -->
<g id="node49" class="node"><title>48</title>
<path fill="none" stroke="#569ad8" stroke-width="2" stroke-dasharray="5,2" d="M484,-684C484,-684 425,-684 425,-684 419,-684 413,-678 413,-672 413,-672 413,-660 413,-660 413,-654 419,-648 425,-648 425,-648 484,-648 484,-648 490,-648 496,-654 496,-660 496,-660 496,-672 496,-672 496,-678 490,-684 484,-684"/>
<text text-anchor="middle" x="454.5" y="-663.5" font-family="sans" font-size="10.00">ng_sam2bam</text>
</g>
<!-- 48&#45;&gt;36 -->
<g id="edge80" class="edge"><title>48&#45;&gt;36</title>
<path fill="none" stroke="grey" stroke-width="2" d="M464.14,-647.697C468.627,-639.644 474.059,-629.894 479.024,-620.982"/>
<polygon fill="grey" stroke="grey" stroke-width="2" points="482.161,-622.544 483.97,-612.104 476.046,-619.137 482.161,-622.544"/>
</g>
<!-- 49 -->
<g id="node50" class="node"><title>49</title>
<path fill="none" stroke="#569ad8" stroke-width="2" stroke-dasharray="5,2" d="M686,-684C686,-684 627,-684 627,-684 621,-684 615,-678 615,-672 615,-672 615,-660 615,-660 615,-654 621,-648 627,-648 627,-648 686,-648 686,-648 692,-648 698,-654 698,-660 698,-660 698,-672 698,-672 698,-678 692,-684 686,-684"/>
<text text-anchor="middle" x="656.5" y="-663.5" font-family="sans" font-size="10.00">ng_sam2bam</text>
</g>
<!-- 49&#45;&gt;37 -->
<g id="edge81" class="edge"><title>49&#45;&gt;37</title>
<path fill="none" stroke="grey" stroke-width="2" d="M661.444,-647.697C663.672,-639.898 666.355,-630.509 668.835,-621.829"/>
<polygon fill="grey" stroke="grey" stroke-width="2" points="672.231,-622.681 671.613,-612.104 665.5,-620.758 672.231,-622.681"/>
</g>
<!-- 50 -->
<g id="node51" class="node"><title>50</title>
<path fill="none" stroke="#569ad8" stroke-width="2" stroke-dasharray="5,2" d="M841,-684C841,-684 782,-684 782,-684 776,-684 770,-678 770,-672 770,-672 770,-660 770,-660 770,-654 776,-648 782,-648 782,-648 841,-648 841,-648 847,-648 853,-654 853,-660 853,-660 853,-672 853,-672 853,-678 847,-684 841,-684"/>
<text text-anchor="middle" x="811.5" y="-663.5" font-family="sans" font-size="10.00">ng_sam2bam</text>
</g>
<!-- 50&#45;&gt;38 -->
<g id="edge82" class="edge"><title>50&#45;&gt;38</title>
<path fill="none" stroke="grey" stroke-width="2" d="M812.983,-647.697C813.644,-639.983 814.439,-630.712 815.176,-622.112"/>
<polygon fill="grey" stroke="grey" stroke-width="2" points="818.667,-622.367 816.034,-612.104 811.693,-621.769 818.667,-622.367"/>
</g>
<!-- 51 -->
<g id="node52" class="node"><title>51</title>
<path fill="none" stroke="#569ad8" stroke-width="2" stroke-dasharray="5,2" d="M1068,-684C1068,-684 1009,-684 1009,-684 1003,-684 997,-678 997,-672 997,-672 997,-660 997,-660 997,-654 1003,-648 1009,-648 1009,-648 1068,-648 1068,-648 1074,-648 1080,-654 1080,-660 1080,-660 1080,-672 1080,-672 1080,-678 1074,-684 1068,-684"/>
<text text-anchor="middle" x="1038.5" y="-663.5" font-family="sans" font-size="10.00">ng_sam2bam</text>
</g>
<!-- 51&#45;&gt;40 -->
<g id="edge83" class="edge"><title>51&#45;&gt;40</title>
<path fill="none" stroke="grey" stroke-width="2" d="M1038.5,-647.697C1038.5,-639.983 1038.5,-630.712 1038.5,-622.112"/>
<polygon fill="grey" stroke="grey" stroke-width="2" points="1042,-622.104 1038.5,-612.104 1035,-622.104 1042,-622.104"/>
</g>
<!-- 52 -->
<g id="node53" class="node"><title>52</title>
<path fill="none" stroke="#569ad8" stroke-width="2" stroke-dasharray="5,2" d="M1229,-684C1229,-684 1170,-684 1170,-684 1164,-684 1158,-678 1158,-672 1158,-672 1158,-660 1158,-660 1158,-654 1164,-648 1170,-648 1170,-648 1229,-648 1229,-648 1235,-648 1241,-654 1241,-660 1241,-660 1241,-672 1241,-672 1241,-678 1235,-684 1229,-684"/>
<text text-anchor="middle" x="1199.5" y="-663.5" font-family="sans" font-size="10.00">ng_sam2bam</text>
</g>
<!-- 52&#45;&gt;41 -->
<g id="edge84" class="edge"><title>52&#45;&gt;41</title>
<path fill="none" stroke="grey" stroke-width="2" d="M1184.17,-647.697C1176.74,-639.305 1167.68,-629.07 1159.52,-619.861"/>
<polygon fill="grey" stroke="grey" stroke-width="2" points="1161.9,-617.27 1152.65,-612.104 1156.66,-621.911 1161.9,-617.27"/>
</g>
<!-- 53 -->
<g id="node54" class="node"><title>53</title>
<path fill="none" stroke="#569ad8" stroke-width="2" stroke-dasharray="5,2" d="M1421,-684C1421,-684 1362,-684 1362,-684 1356,-684 1350,-678 1350,-672 1350,-672 1350,-660 1350,-660 1350,-654 1356,-648 1362,-648 1362,-648 1421,-648 1421,-648 1427,-648 1433,-654 1433,-660 1433,-660 1433,-672 1433,-672 1433,-678 1427,-684 1421,-684"/>
<text text-anchor="middle" x="1391.5" y="-663.5" font-family="sans" font-size="10.00">ng_sam2bam</text>
</g>
<!-- 53&#45;&gt;42 -->
<g id="edge85" class="edge"><title>53&#45;&gt;42</title>
<path fill="none" stroke="grey" stroke-width="2" d="M1353.83,-647.876C1332.87,-638.349 1306.6,-626.407 1284.32,-616.283"/>
<polygon fill="grey" stroke="grey" stroke-width="2" points="1285.6,-613.02 1275.05,-612.068 1282.71,-619.393 1285.6,-613.02"/>
</g>
<!-- 54 -->
<g id="node55" class="node"><title>54</title>
<path fill="none" stroke="#569ad8" stroke-width="2" stroke-dasharray="5,2" d="M1628,-684C1628,-684 1569,-684 1569,-684 1563,-684 1557,-678 1557,-672 1557,-672 1557,-660 1557,-660 1557,-654 1563,-648 1569,-648 1569,-648 1628,-648 1628,-648 1634,-648 1640,-654 1640,-660 1640,-660 1640,-672 1640,-672 1640,-678 1634,-684 1628,-684"/>
<text text-anchor="middle" x="1598.5" y="-663.5" font-family="sans" font-size="10.00">ng_sam2bam</text>
</g>
<!-- 54&#45;&gt;43 -->
<g id="edge86" class="edge"><title>54&#45;&gt;43</title>
<path fill="none" stroke="grey" stroke-width="2" d="M1556.84,-655.248C1514.69,-645.179 1447.76,-628.634 1390.5,-612 1389.78,-611.791 1389.06,-611.579 1388.33,-611.365"/>
<polygon fill="grey" stroke="grey" stroke-width="2" points="1389.32,-608.006 1378.73,-608.444 1387.28,-614.703 1389.32,-608.006"/>
</g>
<!-- 55 -->
<g id="node56" class="node"><title>55</title>
<path fill="none" stroke="#569ad8" stroke-width="2" stroke-dasharray="5,2" d="M1842,-684C1842,-684 1783,-684 1783,-684 1777,-684 1771,-678 1771,-672 1771,-672 1771,-660 1771,-660 1771,-654 1777,-648 1783,-648 1783,-648 1842,-648 1842,-648 1848,-648 1854,-654 1854,-660 1854,-660 1854,-672 1854,-672 1854,-678 1848,-684 1842,-684"/>
<text text-anchor="middle" x="1812.5" y="-663.5" font-family="sans" font-size="10.00">ng_sam2bam</text>
</g>
<!-- 55&#45;&gt;44 -->
<g id="edge87" class="edge"><title>55&#45;&gt;44</title>
<path fill="none" stroke="grey" stroke-width="2" d="M1770.79,-660.176C1709.17,-652.586 1590.4,-636.181 1491.5,-612 1490.77,-611.822 1490.04,-611.64 1489.31,-611.452"/>
<polygon fill="grey" stroke="grey" stroke-width="2" points="1490.21,-608.07 1479.64,-608.791 1488.35,-614.819 1490.21,-608.07"/>
</g>
<!-- 56 -->
<g id="node57" class="node"><title>56</title>
<path fill="none" stroke="#569ad8" stroke-width="2" stroke-dasharray="5,2" d="M2060,-684C2060,-684 2001,-684 2001,-684 1995,-684 1989,-678 1989,-672 1989,-672 1989,-660 1989,-660 1989,-654 1995,-648 2001,-648 2001,-648 2060,-648 2060,-648 2066,-648 2072,-654 2072,-660 2072,-660 2072,-672 2072,-672 2072,-678 2066,-684 2060,-684"/>
<text text-anchor="middle" x="2030.5" y="-663.5" font-family="sans" font-size="10.00">ng_sam2bam</text>
</g>
<!-- 56&#45;&gt;45 -->
<g id="edge88" class="edge"><title>56&#45;&gt;45</title>
<path fill="none" stroke="grey" stroke-width="2" d="M1988.72,-659.032C1898.96,-646.208 1687.97,-616.067 1590.94,-602.205"/>
<polygon fill="grey" stroke="grey" stroke-width="2" points="1591.19,-598.706 1580.79,-600.756 1590.2,-605.635 1591.19,-598.706"/>
</g>
<!-- 57&#45;&gt;47 -->
<g id="edge89" class="edge"><title>57&#45;&gt;47</title>
<path fill="none" stroke="grey" stroke-width="2" d="M197.208,-719.697C198.861,-711.983 200.847,-702.712 202.69,-694.112"/>
<polygon fill="grey" stroke="grey" stroke-width="2" points="206.162,-694.616 204.835,-684.104 199.317,-693.149 206.162,-694.616"/>
</g>
<!-- 58&#45;&gt;48 -->
<g id="edge90" class="edge"><title>58&#45;&gt;48</title>
<path fill="none" stroke="grey" stroke-width="2" d="M425.14,-719.697C429.627,-711.644 435.059,-701.894 440.024,-692.982"/>
<polygon fill="grey" stroke="grey" stroke-width="2" points="443.161,-694.544 444.97,-684.104 437.046,-691.137 443.161,-694.544"/>
</g>
<!-- 59&#45;&gt;49 -->
<g id="edge91" class="edge"><title>59&#45;&gt;49</title>
<path fill="none" stroke="grey" stroke-width="2" d="M642.197,-719.697C644.313,-711.898 646.862,-702.509 649.218,-693.829"/>
<polygon fill="grey" stroke="grey" stroke-width="2" points="652.616,-694.672 651.857,-684.104 645.86,-692.838 652.616,-694.672"/>
</g>
<!-- 60&#45;&gt;50 -->
<g id="edge92" class="edge"><title>60&#45;&gt;50</title>
<path fill="none" stroke="grey" stroke-width="2" d="M806.983,-719.697C807.644,-711.983 808.439,-702.712 809.176,-694.112"/>
<polygon fill="grey" stroke="grey" stroke-width="2" points="812.667,-694.367 810.034,-684.104 805.693,-693.769 812.667,-694.367"/>
</g>
<!-- 61&#45;&gt;51 -->
<g id="edge93" class="edge"><title>61&#45;&gt;51</title>
<path fill="none" stroke="grey" stroke-width="2" d="M1038.5,-719.697C1038.5,-711.983 1038.5,-702.712 1038.5,-694.112"/>
<polygon fill="grey" stroke="grey" stroke-width="2" points="1042,-694.104 1038.5,-684.104 1035,-694.104 1042,-694.104"/>
</g>
<!-- 62&#45;&gt;52 -->
<g id="edge94" class="edge"><title>62&#45;&gt;52</title>
<path fill="none" stroke="grey" stroke-width="2" d="M1222.84,-719.697C1219.31,-711.728 1215.04,-702.1 1211.13,-693.264"/>
<polygon fill="grey" stroke="grey" stroke-width="2" points="1214.32,-691.831 1207.07,-684.104 1207.92,-694.665 1214.32,-691.831"/>
</g>
<!-- 63&#45;&gt;53 -->
<g id="edge95" class="edge"><title>63&#45;&gt;53</title>
<path fill="none" stroke="grey" stroke-width="2" d="M1437.42,-719.697C1430.11,-711.305 1421.19,-701.07 1413.16,-691.861"/>
<polygon fill="grey" stroke="grey" stroke-width="2" points="1415.61,-689.344 1406.41,-684.104 1410.34,-693.943 1415.61,-689.344"/>
</g>
<!-- 64&#45;&gt;54 -->
<g id="edge96" class="edge"><title>64&#45;&gt;54</title>
<path fill="none" stroke="grey" stroke-width="2" d="M1655.71,-719.697C1646.33,-711.05 1634.82,-700.449 1624.59,-691.027"/>
<polygon fill="grey" stroke="grey" stroke-width="2" points="1626.8,-688.305 1617.07,-684.104 1622.05,-693.454 1626.8,-688.305"/>
</g>
<!-- 65&#45;&gt;55 -->
<g id="edge97" class="edge"><title>65&#45;&gt;55</title>
<path fill="none" stroke="grey" stroke-width="2" d="M1875.74,-719.697C1865.26,-710.965 1852.39,-700.24 1841,-690.75"/>
<polygon fill="grey" stroke="grey" stroke-width="2" points="1842.95,-687.817 1833.03,-684.104 1838.47,-693.195 1842.95,-687.817"/>
</g>
<!-- 66&#45;&gt;56 -->
<g id="edge98" class="edge"><title>66&#45;&gt;56</title>
<path fill="none" stroke="grey" stroke-width="2" d="M2096.75,-719.697C2085.66,-710.881 2072.03,-700.032 2060.01,-690.474"/>
<polygon fill="grey" stroke="grey" stroke-width="2" points="2062.01,-687.59 2052,-684.104 2057.65,-693.069 2062.01,-687.59"/>
</g>
<!-- 67&#45;&gt;57 -->
<g id="edge100" class="edge"><title>67&#45;&gt;57</title>
<path fill="none" stroke="grey" stroke-width="2" d="M112.538,-791.88C126.815,-782.556 143.961,-771.356 158.792,-761.669"/>
<polygon fill="grey" stroke="grey" stroke-width="2" points="160.759,-764.565 167.218,-756.166 156.931,-758.705 160.759,-764.565"/>
</g>
<!-- 68&#45;&gt;58 -->
<g id="edge102" class="edge"><title>68&#45;&gt;58</title>
<path fill="none" stroke="grey" stroke-width="2" d="M334.538,-791.88C348.815,-782.556 365.961,-771.356 380.792,-761.669"/>
<polygon fill="grey" stroke="grey" stroke-width="2" points="382.759,-764.565 389.218,-756.166 378.931,-758.705 382.759,-764.565"/>
</g>
<!-- 69&#45;&gt;59 -->
<g id="edge103" class="edge"><title>69&#45;&gt;59</title>
<path fill="none" stroke="grey" stroke-width="2" d="M556.538,-791.88C570.815,-782.556 587.961,-771.356 602.792,-761.669"/>
<polygon fill="grey" stroke="grey" stroke-width="2" points="604.759,-764.565 611.218,-756.166 600.931,-758.705 604.759,-764.565"/>
</g>
<!-- 70&#45;&gt;60 -->
<g id="edge106" class="edge"><title>70&#45;&gt;60</title>
<path fill="none" stroke="grey" stroke-width="2" d="M764.076,-791.689C770.738,-783.215 778.596,-773.22 785.667,-764.226"/>
<polygon fill="grey" stroke="grey" stroke-width="2" points="788.454,-766.344 791.883,-756.319 782.951,-762.018 788.454,-766.344"/>
</g>
<!-- 71&#45;&gt;61 -->
<g id="edge108" class="edge"><title>71&#45;&gt;61</title>
<path fill="none" stroke="grey" stroke-width="2" d="M1016.7,-791.689C1020.03,-783.647 1023.92,-774.236 1027.49,-765.61"/>
<polygon fill="grey" stroke="grey" stroke-width="2" points="1030.74,-766.898 1031.33,-756.319 1024.28,-764.221 1030.74,-766.898"/>
</g>
<!-- 72&#45;&gt;62 -->
<g id="edge110" class="edge"><title>72&#45;&gt;62</title>
<path fill="none" stroke="grey" stroke-width="2" d="M1230.5,-791.689C1230.5,-783.907 1230.5,-774.842 1230.5,-766.447"/>
<polygon fill="grey" stroke="grey" stroke-width="2" points="1234,-766.319 1230.5,-756.319 1227,-766.32 1234,-766.319"/>
</g>
<!-- 73&#45;&gt;63 -->
<g id="edge112" class="edge"><title>73&#45;&gt;63</title>
<path fill="none" stroke="grey" stroke-width="2" d="M1452.5,-791.689C1452.5,-783.907 1452.5,-774.842 1452.5,-766.447"/>
<polygon fill="grey" stroke="grey" stroke-width="2" points="1456,-766.319 1452.5,-756.319 1449,-766.32 1456,-766.319"/>
</g>
<!-- 74&#45;&gt;64 -->
<g id="edge114" class="edge"><title>74&#45;&gt;64</title>
<path fill="none" stroke="grey" stroke-width="2" d="M1674.5,-791.689C1674.5,-783.907 1674.5,-774.842 1674.5,-766.447"/>
<polygon fill="grey" stroke="grey" stroke-width="2" points="1678,-766.319 1674.5,-756.319 1671,-766.32 1678,-766.319"/>
</g>
<!-- 75&#45;&gt;65 -->
<g id="edge116" class="edge"><title>75&#45;&gt;65</title>
<path fill="none" stroke="grey" stroke-width="2" d="M1896.5,-791.689C1896.5,-783.907 1896.5,-774.842 1896.5,-766.447"/>
<polygon fill="grey" stroke="grey" stroke-width="2" points="1900,-766.319 1896.5,-756.319 1893,-766.32 1900,-766.319"/>
</g>
<!-- 76&#45;&gt;66 -->
<g id="edge118" class="edge"><title>76&#45;&gt;66</title>
<path fill="none" stroke="grey" stroke-width="2" d="M2118.5,-791.689C2118.5,-783.907 2118.5,-774.842 2118.5,-766.447"/>
<polygon fill="grey" stroke="grey" stroke-width="2" points="2122,-766.319 2118.5,-756.319 2115,-766.32 2122,-766.319"/>
</g>
</g>
</svg>
