<?xml version="1.0" encoding="UTF-8" standalone="no"?>
<!DOCTYPE svg PUBLIC "-//W3C//DTD SVG 1.1//EN"
 "http://www.w3.org/Graphics/SVG/1.1/DTD/svg11.dtd">
<!-- Generated by graphviz version 2.38.0 (20140413.2041)
 -->
<!-- Title: snakemake_dag Pages: 1 -->
<svg width="1604pt" height="636pt"
 viewBox="0.00 0.00 1603.50 636.00" xmlns="http://www.w3.org/2000/svg" xmlns:xlink="http://www.w3.org/1999/xlink">
<g id="graph0" class="graph" transform="scale(1 1) rotate(0) translate(4 632)">
<title>snakemake_dag</title>
<polygon fill="white" stroke="none" points="-4,4 -4,-632 1599.5,-632 1599.5,4 -4,4"/>
<!-- 0 -->
<g id="node1" class="node"><title>0</title>
<path fill="none" stroke="#d87556" stroke-width="2" d="M918.5,-36C918.5,-36 888.5,-36 888.5,-36 882.5,-36 876.5,-30 876.5,-24 876.5,-24 876.5,-12 876.5,-12 876.5,-6 882.5,-0 888.5,-0 888.5,-0 918.5,-0 918.5,-0 924.5,-0 930.5,-6 930.5,-12 930.5,-12 930.5,-24 930.5,-24 930.5,-30 924.5,-36 918.5,-36"/>
<text text-anchor="middle" x="903.5" y="-15.5" font-family="sans" font-size="10.00">all</text>
</g>
<!-- 1 -->
<g id="node2" class="node"><title>1</title>
<path fill="none" stroke="#d86656" stroke-width="2" d="M564.5,-108C564.5,-108 496.5,-108 496.5,-108 490.5,-108 484.5,-102 484.5,-96 484.5,-96 484.5,-84 484.5,-84 484.5,-78 490.5,-72 496.5,-72 496.5,-72 564.5,-72 564.5,-72 570.5,-72 576.5,-78 576.5,-84 576.5,-84 576.5,-96 576.5,-96 576.5,-102 570.5,-108 564.5,-108"/>
<text text-anchor="middle" x="530.5" y="-87.5" font-family="sans" font-size="10.00">syn_snps_table</text>
</g>
<!-- 1&#45;&gt;0 -->
<g id="edge1" class="edge"><title>1&#45;&gt;0</title>
<path fill="none" stroke="grey" stroke-width="2" d="M576.611,-80.3464C651.326,-66.3248 797.393,-38.9128 866.094,-26.0199"/>
<polygon fill="grey" stroke="grey" stroke-width="2" points="866.859,-29.4374 876.042,-24.1529 865.568,-22.5575 866.859,-29.4374"/>
</g>
<!-- 2 -->
<g id="node3" class="node"><title>2</title>
<path fill="none" stroke="#d89556" stroke-width="2" d="M1258,-108C1258,-108 1175,-108 1175,-108 1169,-108 1163,-102 1163,-96 1163,-96 1163,-84 1163,-84 1163,-78 1169,-72 1175,-72 1175,-72 1258,-72 1258,-72 1264,-72 1270,-78 1270,-84 1270,-84 1270,-96 1270,-96 1270,-102 1264,-108 1258,-108"/>
<text text-anchor="middle" x="1216.5" y="-87.5" font-family="sans" font-size="10.00">create_indel_table</text>
</g>
<!-- 2&#45;&gt;0 -->
<g id="edge2" class="edge"><title>2&#45;&gt;0</title>
<path fill="none" stroke="grey" stroke-width="2" d="M1162.69,-76.9666C1099.31,-62.7914 995.691,-39.6178 940.626,-27.3029"/>
<polygon fill="grey" stroke="grey" stroke-width="2" points="941.131,-23.8294 930.608,-25.0625 939.603,-30.6607 941.131,-23.8294"/>
</g>
<!-- 3 -->
<g id="node4" class="node"><title>3</title>
<path fill="none" stroke="#ced856" stroke-width="2" d="M972,-180C972,-180 835,-180 835,-180 829,-180 823,-174 823,-168 823,-168 823,-156 823,-156 823,-150 829,-144 835,-144 835,-144 972,-144 972,-144 978,-144 984,-150 984,-156 984,-156 984,-168 984,-168 984,-174 978,-180 972,-180"/>
<text text-anchor="middle" x="903.5" y="-159.5" font-family="sans" font-size="10.00">create_and_make_expr_table</text>
</g>
<!-- 3&#45;&gt;0 -->
<g id="edge3" class="edge"><title>3&#45;&gt;0</title>
<path fill="none" stroke="grey" stroke-width="2" d="M903.5,-143.871C903.5,-119.67 903.5,-75.2108 903.5,-46.3932"/>
<polygon fill="grey" stroke="grey" stroke-width="2" points="907,-46.1892 903.5,-36.1893 900,-46.1893 907,-46.1892"/>
</g>
<!-- 4 -->
<g id="node5" class="node"><title>4</title>
<path fill="none" stroke="#56b1d8" stroke-width="2" d="M806.5,-108C806.5,-108 720.5,-108 720.5,-108 714.5,-108 708.5,-102 708.5,-96 708.5,-96 708.5,-84 708.5,-84 708.5,-78 714.5,-72 720.5,-72 720.5,-72 806.5,-72 806.5,-72 812.5,-72 818.5,-78 818.5,-84 818.5,-84 818.5,-96 818.5,-96 818.5,-102 812.5,-108 806.5,-108"/>
<text text-anchor="middle" x="763.5" y="-87.5" font-family="sans" font-size="10.00">nonsyn_snps_table</text>
</g>
<!-- 4&#45;&gt;0 -->
<g id="edge4" class="edge"><title>4&#45;&gt;0</title>
<path fill="none" stroke="grey" stroke-width="2" d="M797.748,-71.8761C818.762,-61.3692 845.651,-47.9245 867.057,-37.2217"/>
<polygon fill="grey" stroke="grey" stroke-width="2" points="868.784,-40.2714 876.163,-32.6687 865.653,-34.0104 868.784,-40.2714"/>
</g>
<!-- 5 -->
<g id="node6" class="node"><title>5</title>
<path fill="none" stroke="#56d87b" stroke-width="2" d="M1425,-180C1425,-180 1336,-180 1336,-180 1330,-180 1324,-174 1324,-168 1324,-168 1324,-156 1324,-156 1324,-150 1330,-144 1336,-144 1336,-144 1425,-144 1425,-144 1431,-144 1437,-150 1437,-156 1437,-156 1437,-168 1437,-168 1437,-174 1431,-180 1425,-180"/>
<text text-anchor="middle" x="1380.5" y="-159.5" font-family="sans" font-size="10.00">compute_gpa_table</text>
</g>
<!-- 5&#45;&gt;0 -->
<g id="edge5" class="edge"><title>5&#45;&gt;0</title>
<path fill="none" stroke="grey" stroke-width="2" d="M1366.63,-143.972C1348.67,-123.209 1315.26,-88.8115 1278.5,-72 1218.71,-44.6569 1023.49,-27.6905 940.918,-21.5748"/>
<polygon fill="grey" stroke="grey" stroke-width="2" points="940.958,-18.0685 930.73,-20.8331 940.45,-25.05 940.958,-18.0685"/>
</g>
<!-- 6 -->
<g id="node7" class="node"><title>6</title>
<path fill="none" stroke="#56d86b" stroke-width="2" d="M532.5,-180C532.5,-180 470.5,-180 470.5,-180 464.5,-180 458.5,-174 458.5,-168 458.5,-168 458.5,-156 458.5,-156 458.5,-150 464.5,-144 470.5,-144 470.5,-144 532.5,-144 532.5,-144 538.5,-144 544.5,-150 544.5,-156 544.5,-156 544.5,-168 544.5,-168 544.5,-174 538.5,-180 532.5,-180"/>
<text text-anchor="middle" x="501.5" y="-159.5" font-family="sans" font-size="10.00">all_snps_table</text>
</g>
<!-- 6&#45;&gt;1 -->
<g id="edge6" class="edge"><title>6&#45;&gt;1</title>
<path fill="none" stroke="grey" stroke-width="2" d="M508.669,-143.697C511.935,-135.813 515.874,-126.304 519.502,-117.546"/>
<polygon fill="grey" stroke="grey" stroke-width="2" points="522.82,-118.683 523.414,-108.104 516.353,-116.003 522.82,-118.683"/>
</g>
<!-- 6&#45;&gt;4 -->
<g id="edge10" class="edge"><title>6&#45;&gt;4</title>
<path fill="none" stroke="grey" stroke-width="2" d="M544.764,-149.441C586.644,-138.252 650.666,-121.147 698.642,-108.329"/>
<polygon fill="grey" stroke="grey" stroke-width="2" points="699.559,-111.706 708.317,-105.744 697.752,-104.944 699.559,-111.706"/>
</g>
<!-- 7 -->
<g id="node8" class="node"><title>7</title>
<path fill="none" stroke="#9fd856" stroke-width="2" d="M1245,-180C1245,-180 1188,-180 1188,-180 1182,-180 1176,-174 1176,-168 1176,-168 1176,-156 1176,-156 1176,-150 1182,-144 1188,-144 1188,-144 1245,-144 1245,-144 1251,-144 1257,-150 1257,-156 1257,-156 1257,-168 1257,-168 1257,-174 1251,-180 1245,-180"/>
<text text-anchor="middle" x="1216.5" y="-159.5" font-family="sans" font-size="10.00">vcf_to_indels</text>
</g>
<!-- 7&#45;&gt;2 -->
<g id="edge7" class="edge"><title>7&#45;&gt;2</title>
<path fill="none" stroke="grey" stroke-width="2" d="M1216.5,-143.697C1216.5,-135.983 1216.5,-126.712 1216.5,-118.112"/>
<polygon fill="grey" stroke="grey" stroke-width="2" points="1220,-118.104 1216.5,-108.104 1213,-118.104 1220,-118.104"/>
</g>
<!-- 8 -->
<g id="node9" class="node"><title>8</title>
<path fill="none" stroke="#56d0d8" stroke-width="2" d="M1406.5,-396C1406.5,-396 1294.5,-396 1294.5,-396 1288.5,-396 1282.5,-390 1282.5,-384 1282.5,-384 1282.5,-372 1282.5,-372 1282.5,-366 1288.5,-360 1294.5,-360 1294.5,-360 1406.5,-360 1406.5,-360 1412.5,-360 1418.5,-366 1418.5,-372 1418.5,-372 1418.5,-384 1418.5,-384 1418.5,-390 1412.5,-396 1406.5,-396"/>
<text text-anchor="middle" x="1350.5" y="-375.5" font-family="sans" font-size="10.00">compute_gpa_raw_table</text>
</g>
<!-- 8&#45;&gt;2 -->
<g id="edge8" class="edge"><title>8&#45;&gt;2</title>
<path fill="none" stroke="grey" stroke-width="2" d="M1346.73,-359.886C1337.41,-319.886 1310.7,-218.059 1265.5,-144 1259.3,-133.845 1250.96,-123.933 1242.92,-115.48"/>
<polygon fill="grey" stroke="grey" stroke-width="2" points="1245.21,-112.816 1235.69,-108.163 1240.23,-117.736 1245.21,-112.816"/>
</g>
<!-- 8&#45;&gt;5 -->
<g id="edge11" class="edge"><title>8&#45;&gt;5</title>
<path fill="none" stroke="grey" stroke-width="2" d="M1352.9,-359.849C1358.09,-322.832 1370.38,-235.181 1376.66,-190.386"/>
<polygon fill="grey" stroke="grey" stroke-width="2" points="1380.16,-190.622 1378.08,-180.232 1373.23,-189.65 1380.16,-190.622"/>
</g>
<!-- 35 -->
<g id="node36" class="node"><title>35</title>
<path fill="none" stroke="#56d8b9" stroke-width="2" d="M1255,-324C1255,-324 1178,-324 1178,-324 1172,-324 1166,-318 1166,-312 1166,-312 1166,-300 1166,-300 1166,-294 1172,-288 1178,-288 1178,-288 1255,-288 1255,-288 1261,-288 1267,-294 1267,-300 1267,-300 1267,-312 1267,-312 1267,-318 1261,-324 1255,-324"/>
<text text-anchor="middle" x="1216.5" y="-303.5" font-family="sans" font-size="10.00">sort_gene_family</text>
</g>
<!-- 8&#45;&gt;35 -->
<g id="edge58" class="edge"><title>8&#45;&gt;35</title>
<path fill="none" stroke="grey" stroke-width="2" d="M1317.72,-359.876C1299.87,-350.554 1277.6,-338.919 1258.5,-328.939"/>
<polygon fill="grey" stroke="grey" stroke-width="2" points="1259.89,-325.718 1249.41,-324.19 1256.65,-331.922 1259.89,-325.718"/>
</g>
<!-- 9 -->
<g id="node10" class="node"><title>9</title>
<path fill="none" stroke="#5682d8" stroke-width="2" d="M934,-324C934,-324 873,-324 873,-324 867,-324 861,-318 861,-312 861,-312 861,-300 861,-300 861,-294 867,-288 873,-288 873,-288 934,-288 934,-288 940,-288 946,-294 946,-300 946,-300 946,-312 946,-312 946,-318 940,-324 934,-324"/>
<text text-anchor="middle" x="903.5" y="-303.5" font-family="sans" font-size="10.00">write_dict_file</text>
</g>
<!-- 9&#45;&gt;3 -->
<g id="edge9" class="edge"><title>9&#45;&gt;3</title>
<path fill="none" stroke="grey" stroke-width="2" d="M903.5,-287.871C903.5,-263.67 903.5,-219.211 903.5,-190.393"/>
<polygon fill="grey" stroke="grey" stroke-width="2" points="907,-190.189 903.5,-180.189 900,-190.189 907,-190.189"/>
</g>
<!-- 10 -->
<g id="node11" class="node"><title>10</title>
<path fill="none" stroke="#61d856" stroke-width="2" d="M309,-252C309,-252 220,-252 220,-252 214,-252 208,-246 208,-240 208,-240 208,-228 208,-228 208,-222 214,-216 220,-216 220,-216 309,-216 309,-216 315,-216 321,-222 321,-228 321,-228 321,-240 321,-240 321,-246 315,-252 309,-252"/>
<text text-anchor="middle" x="264.5" y="-231.5" font-family="sans" font-size="10.00">compute_flatcounts</text>
</g>
<!-- 10&#45;&gt;6 -->
<g id="edge12" class="edge"><title>10&#45;&gt;6</title>
<path fill="none" stroke="grey" stroke-width="2" d="M321.267,-216.233C359.86,-204.835 410.572,-189.856 448.37,-178.692"/>
<polygon fill="grey" stroke="grey" stroke-width="2" points="449.577,-181.985 458.176,-175.796 447.594,-175.272 449.577,-181.985"/>
</g>
<!-- 11 -->
<g id="node12" class="node"><title>11</title>
<path fill="none" stroke="#61d856" stroke-width="2" d="M754,-324C754,-324 665,-324 665,-324 659,-324 653,-318 653,-312 653,-312 653,-300 653,-300 653,-294 659,-288 665,-288 665,-288 754,-288 754,-288 760,-288 766,-294 766,-300 766,-300 766,-312 766,-312 766,-318 760,-324 754,-324"/>
<text text-anchor="middle" x="709.5" y="-303.5" font-family="sans" font-size="10.00">compute_flatcounts</text>
</g>
<!-- 11&#45;&gt;6 -->
<g id="edge13" class="edge"><title>11&#45;&gt;6</title>
<path fill="none" stroke="grey" stroke-width="2" d="M710.963,-287.909C711.676,-268.046 709.644,-235.509 691.5,-216 656.631,-178.507 597.682,-166.73 554.675,-163.42"/>
<polygon fill="grey" stroke="grey" stroke-width="2" points="554.863,-159.925 544.659,-162.779 554.415,-166.911 554.863,-159.925"/>
</g>
<!-- 12 -->
<g id="node13" class="node"><title>12</title>
<path fill="none" stroke="#61d856" stroke-width="2" d="M178,-252C178,-252 89,-252 89,-252 83,-252 77,-246 77,-240 77,-240 77,-228 77,-228 77,-222 83,-216 89,-216 89,-216 178,-216 178,-216 184,-216 190,-222 190,-228 190,-228 190,-240 190,-240 190,-246 184,-252 178,-252"/>
<text text-anchor="middle" x="133.5" y="-231.5" font-family="sans" font-size="10.00">compute_flatcounts</text>
</g>
<!-- 12&#45;&gt;6 -->
<g id="edge14" class="edge"><title>12&#45;&gt;6</title>
<path fill="none" stroke="grey" stroke-width="2" d="M190.154,-217.888C192.971,-217.229 195.765,-216.596 198.5,-216 285.313,-197.089 387.265,-180.373 448.011,-170.986"/>
<polygon fill="grey" stroke="grey" stroke-width="2" points="448.776,-174.41 458.129,-169.432 447.713,-167.491 448.776,-174.41"/>
</g>
<!-- 13 -->
<g id="node14" class="node"><title>13</title>
<path fill="none" stroke="#bed856" stroke-width="2" d="M386,-252C386,-252 351,-252 351,-252 345,-252 339,-246 339,-240 339,-240 339,-228 339,-228 339,-222 345,-216 351,-216 351,-216 386,-216 386,-216 392,-216 398,-222 398,-228 398,-228 398,-240 398,-240 398,-246 392,-252 386,-252"/>
<text text-anchor="middle" x="368.5" y="-231.5" font-family="sans" font-size="10.00">filter_vcf</text>
</g>
<!-- 13&#45;&gt;6 -->
<g id="edge15" class="edge"><title>13&#45;&gt;6</title>
<path fill="none" stroke="grey" stroke-width="2" d="M398.017,-217.465C416.201,-207.894 439.795,-195.477 459.86,-184.916"/>
<polygon fill="grey" stroke="grey" stroke-width="2" points="461.58,-187.966 468.8,-180.211 458.32,-181.771 461.58,-187.966"/>
</g>
<!-- 14 -->
<g id="node15" class="node"><title>14</title>
<path fill="none" stroke="#bed856" stroke-width="2" d="M594,-252C594,-252 559,-252 559,-252 553,-252 547,-246 547,-240 547,-240 547,-228 547,-228 547,-222 553,-216 559,-216 559,-216 594,-216 594,-216 600,-216 606,-222 606,-228 606,-228 606,-240 606,-240 606,-246 600,-252 594,-252"/>
<text text-anchor="middle" x="576.5" y="-231.5" font-family="sans" font-size="10.00">filter_vcf</text>
</g>
<!-- 14&#45;&gt;6 -->
<g id="edge16" class="edge"><title>14&#45;&gt;6</title>
<path fill="none" stroke="grey" stroke-width="2" d="M557.961,-215.697C548.697,-207.05 537.338,-196.449 527.243,-187.027"/>
<polygon fill="grey" stroke="grey" stroke-width="2" points="529.525,-184.369 519.826,-180.104 524.749,-189.486 529.525,-184.369"/>
</g>
<!-- 15 -->
<g id="node16" class="node"><title>15</title>
<path fill="none" stroke="#61d856" stroke-width="2" d="M517,-252C517,-252 428,-252 428,-252 422,-252 416,-246 416,-240 416,-240 416,-228 416,-228 416,-222 422,-216 428,-216 428,-216 517,-216 517,-216 523,-216 529,-222 529,-228 529,-228 529,-240 529,-240 529,-246 523,-252 517,-252"/>
<text text-anchor="middle" x="472.5" y="-231.5" font-family="sans" font-size="10.00">compute_flatcounts</text>
</g>
<!-- 15&#45;&gt;6 -->
<g id="edge17" class="edge"><title>15&#45;&gt;6</title>
<path fill="none" stroke="grey" stroke-width="2" d="M479.669,-215.697C482.935,-207.813 486.874,-198.304 490.502,-189.546"/>
<polygon fill="grey" stroke="grey" stroke-width="2" points="493.82,-190.683 494.414,-180.104 487.353,-188.003 493.82,-190.683"/>
</g>
<!-- 16 -->
<g id="node17" class="node"><title>16</title>
<path fill="none" stroke="#bed856" stroke-width="2" d="M47,-252C47,-252 12,-252 12,-252 6,-252 0,-246 0,-240 0,-240 0,-228 0,-228 0,-222 6,-216 12,-216 12,-216 47,-216 47,-216 53,-216 59,-222 59,-228 59,-228 59,-240 59,-240 59,-246 53,-252 47,-252"/>
<text text-anchor="middle" x="29.5" y="-231.5" font-family="sans" font-size="10.00">filter_vcf</text>
</g>
<!-- 16&#45;&gt;6 -->
<g id="edge18" class="edge"><title>16&#45;&gt;6</title>
<path fill="none" stroke="grey" stroke-width="2" d="M59.0579,-218.769C61.872,-217.721 64.7147,-216.774 67.5,-216 201.283,-178.817 365.471,-167.712 448.304,-164.401"/>
<polygon fill="grey" stroke="grey" stroke-width="2" points="448.616,-167.892 458.477,-164.018 448.352,-160.897 448.616,-167.892"/>
</g>
<!-- 17 -->
<g id="node18" class="node"><title>17</title>
<path fill="none" stroke="#bed856" stroke-width="2" d="M671,-252C671,-252 636,-252 636,-252 630,-252 624,-246 624,-240 624,-240 624,-228 624,-228 624,-222 630,-216 636,-216 636,-216 671,-216 671,-216 677,-216 683,-222 683,-228 683,-228 683,-240 683,-240 683,-246 677,-252 671,-252"/>
<text text-anchor="middle" x="653.5" y="-231.5" font-family="sans" font-size="10.00">filter_vcf</text>
</g>
<!-- 17&#45;&gt;6 -->
<g id="edge19" class="edge"><title>17&#45;&gt;6</title>
<path fill="none" stroke="grey" stroke-width="2" d="M623.832,-219.337C602.228,-209.388 572.548,-195.719 547.832,-184.337"/>
<polygon fill="grey" stroke="grey" stroke-width="2" points="549.177,-181.103 538.63,-180.099 546.249,-187.462 549.177,-181.103"/>
</g>
<!-- 18 -->
<g id="node19" class="node"><title>18</title>
<path fill="none" stroke="#56d88a" stroke-width="2" d="M1238,-252C1238,-252 1195,-252 1195,-252 1189,-252 1183,-246 1183,-240 1183,-240 1183,-228 1183,-228 1183,-222 1189,-216 1195,-216 1195,-216 1238,-216 1238,-216 1244,-216 1250,-222 1250,-228 1250,-228 1250,-240 1250,-240 1250,-246 1244,-252 1238,-252"/>
<text text-anchor="middle" x="1216.5" y="-231.5" font-family="sans" font-size="10.00">aln_to_vcf</text>
</g>
<!-- 18&#45;&gt;7 -->
<g id="edge20" class="edge"><title>18&#45;&gt;7</title>
<path fill="none" stroke="grey" stroke-width="2" d="M1216.5,-215.697C1216.5,-207.983 1216.5,-198.712 1216.5,-190.112"/>
<polygon fill="grey" stroke="grey" stroke-width="2" points="1220,-190.104 1216.5,-180.104 1213,-190.104 1220,-190.104"/>
</g>
<!-- 19 -->
<g id="node20" class="node"><title>19</title>
<path fill="none" stroke="#d8b456" stroke-width="2" d="M1199,-468C1199,-468 1158,-468 1158,-468 1152,-468 1146,-462 1146,-456 1146,-456 1146,-444 1146,-444 1146,-438 1152,-432 1158,-432 1158,-432 1199,-432 1199,-432 1205,-432 1211,-438 1211,-444 1211,-444 1211,-456 1211,-456 1211,-462 1205,-468 1199,-468"/>
<text text-anchor="middle" x="1178.5" y="-447.5" font-family="sans" font-size="10.00">create_gff</text>
</g>
<!-- 19&#45;&gt;8 -->
<g id="edge21" class="edge"><title>19&#45;&gt;8</title>
<path fill="none" stroke="grey" stroke-width="2" d="M1211.26,-435.669C1236.13,-425.547 1270.79,-411.44 1299.31,-399.833"/>
<polygon fill="grey" stroke="grey" stroke-width="2" points="1300.78,-403.014 1308.72,-396.002 1298.14,-396.53 1300.78,-403.014"/>
</g>
<!-- 19&#45;&gt;35 -->
<g id="edge57" class="edge"><title>19&#45;&gt;35</title>
<path fill="none" stroke="grey" stroke-width="2" d="M1183.08,-431.871C1189.59,-407.564 1201.56,-362.819 1209.27,-334.013"/>
<polygon fill="grey" stroke="grey" stroke-width="2" points="1212.7,-334.754 1211.9,-324.189 1205.93,-332.945 1212.7,-334.754"/>
</g>
<!-- 20 -->
<g id="node21" class="node"><title>20</title>
<path fill="none" stroke="#d8b456" stroke-width="2" d="M1378,-468C1378,-468 1337,-468 1337,-468 1331,-468 1325,-462 1325,-456 1325,-456 1325,-444 1325,-444 1325,-438 1331,-432 1337,-432 1337,-432 1378,-432 1378,-432 1384,-432 1390,-438 1390,-444 1390,-444 1390,-456 1390,-456 1390,-462 1384,-468 1378,-468"/>
<text text-anchor="middle" x="1357.5" y="-447.5" font-family="sans" font-size="10.00">create_gff</text>
</g>
<!-- 20&#45;&gt;8 -->
<g id="edge22" class="edge"><title>20&#45;&gt;8</title>
<path fill="none" stroke="grey" stroke-width="2" d="M1355.77,-431.697C1355,-423.983 1354.07,-414.712 1353.21,-406.112"/>
<polygon fill="grey" stroke="grey" stroke-width="2" points="1356.69,-405.706 1352.21,-396.104 1349.72,-406.403 1356.69,-405.706"/>
</g>
<!-- 20&#45;&gt;35 -->
<g id="edge56" class="edge"><title>20&#45;&gt;35</title>
<path fill="none" stroke="grey" stroke-width="2" d="M1324.82,-432.824C1308.2,-423.557 1288.43,-410.825 1273.5,-396 1255.01,-377.638 1239.5,-352.261 1229.34,-333.302"/>
<polygon fill="grey" stroke="grey" stroke-width="2" points="1232.39,-331.566 1224.67,-324.307 1226.17,-334.794 1232.39,-331.566"/>
</g>
<!-- 21 -->
<g id="node22" class="node"><title>21</title>
<path fill="none" stroke="#d8b456" stroke-width="2" d="M1467,-468C1467,-468 1426,-468 1426,-468 1420,-468 1414,-462 1414,-456 1414,-456 1414,-444 1414,-444 1414,-438 1420,-432 1426,-432 1426,-432 1467,-432 1467,-432 1473,-432 1479,-438 1479,-444 1479,-444 1479,-456 1479,-456 1479,-462 1473,-468 1467,-468"/>
<text text-anchor="middle" x="1446.5" y="-447.5" font-family="sans" font-size="10.00">create_gff</text>
</g>
<!-- 21&#45;&gt;8 -->
<g id="edge23" class="edge"><title>21&#45;&gt;8</title>
<path fill="none" stroke="grey" stroke-width="2" d="M1422.77,-431.697C1410.56,-422.796 1395.51,-411.823 1382.32,-402.199"/>
<polygon fill="grey" stroke="grey" stroke-width="2" points="1384.1,-399.168 1373.96,-396.104 1379.98,-404.824 1384.1,-399.168"/>
</g>
<!-- 21&#45;&gt;35 -->
<g id="edge55" class="edge"><title>21&#45;&gt;35</title>
<path fill="none" stroke="grey" stroke-width="2" d="M1447.83,-431.807C1448.38,-411.847 1446.04,-379.215 1427.5,-360 1406.88,-338.634 1332.01,-323.522 1277.3,-315.041"/>
<polygon fill="grey" stroke="grey" stroke-width="2" points="1277.75,-311.568 1267.34,-313.534 1276.7,-318.49 1277.75,-311.568"/>
</g>
<!-- 22 -->
<g id="node23" class="node"><title>22</title>
<path fill="none" stroke="#d8b456" stroke-width="2" d="M1295,-468C1295,-468 1254,-468 1254,-468 1248,-468 1242,-462 1242,-456 1242,-456 1242,-444 1242,-444 1242,-438 1248,-432 1254,-432 1254,-432 1295,-432 1295,-432 1301,-432 1307,-438 1307,-444 1307,-444 1307,-456 1307,-456 1307,-462 1301,-468 1295,-468"/>
<text text-anchor="middle" x="1274.5" y="-447.5" font-family="sans" font-size="10.00">create_gff</text>
</g>
<!-- 22&#45;&gt;8 -->
<g id="edge24" class="edge"><title>22&#45;&gt;8</title>
<path fill="none" stroke="grey" stroke-width="2" d="M1293.29,-431.697C1302.67,-423.05 1314.18,-412.449 1324.41,-403.027"/>
<polygon fill="grey" stroke="grey" stroke-width="2" points="1326.95,-405.454 1331.93,-396.104 1322.2,-400.305 1326.95,-405.454"/>
</g>
<!-- 22&#45;&gt;35 -->
<g id="edge54" class="edge"><title>22&#45;&gt;35</title>
<path fill="none" stroke="grey" stroke-width="2" d="M1261.42,-431.622C1254.4,-421.631 1246.08,-408.595 1240.5,-396 1231.67,-376.062 1225.44,-352.135 1221.55,-334.113"/>
<polygon fill="grey" stroke="grey" stroke-width="2" points="1224.96,-333.35 1219.52,-324.26 1218.1,-334.76 1224.96,-333.35"/>
</g>
<!-- 23 -->
<g id="node24" class="node"><title>23</title>
<path fill="none" stroke="#56d8c9" stroke-width="2" d="M882.5,-396C882.5,-396 828.5,-396 828.5,-396 822.5,-396 816.5,-390 816.5,-384 816.5,-384 816.5,-372 816.5,-372 816.5,-366 822.5,-360 828.5,-360 828.5,-360 882.5,-360 882.5,-360 888.5,-360 894.5,-366 894.5,-372 894.5,-372 894.5,-384 894.5,-384 894.5,-390 888.5,-396 882.5,-396"/>
<text text-anchor="middle" x="855.5" y="-375.5" font-family="sans" font-size="10.00">gene_counts</text>
</g>
<!-- 23&#45;&gt;9 -->
<g id="edge25" class="edge"><title>23&#45;&gt;9</title>
<path fill="none" stroke="grey" stroke-width="2" d="M867.365,-359.697C873.003,-351.474 879.854,-341.483 886.069,-332.421"/>
<polygon fill="grey" stroke="grey" stroke-width="2" points="889.003,-334.331 891.771,-324.104 883.229,-330.372 889.003,-334.331"/>
</g>
<!-- 24 -->
<g id="node25" class="node"><title>24</title>
<path fill="none" stroke="#56d8c9" stroke-width="2" d="M978.5,-396C978.5,-396 924.5,-396 924.5,-396 918.5,-396 912.5,-390 912.5,-384 912.5,-384 912.5,-372 912.5,-372 912.5,-366 918.5,-360 924.5,-360 924.5,-360 978.5,-360 978.5,-360 984.5,-360 990.5,-366 990.5,-372 990.5,-372 990.5,-384 990.5,-384 990.5,-390 984.5,-396 978.5,-396"/>
<text text-anchor="middle" x="951.5" y="-375.5" font-family="sans" font-size="10.00">gene_counts</text>
</g>
<!-- 24&#45;&gt;9 -->
<g id="edge26" class="edge"><title>24&#45;&gt;9</title>
<path fill="none" stroke="grey" stroke-width="2" d="M939.635,-359.697C933.997,-351.474 927.146,-341.483 920.931,-332.421"/>
<polygon fill="grey" stroke="grey" stroke-width="2" points="923.771,-330.372 915.229,-324.104 917.997,-334.331 923.771,-330.372"/>
</g>
<!-- 25 -->
<g id="node26" class="node"><title>25</title>
<path fill="none" stroke="#56d8c9" stroke-width="2" d="M1074.5,-396C1074.5,-396 1020.5,-396 1020.5,-396 1014.5,-396 1008.5,-390 1008.5,-384 1008.5,-384 1008.5,-372 1008.5,-372 1008.5,-366 1014.5,-360 1020.5,-360 1020.5,-360 1074.5,-360 1074.5,-360 1080.5,-360 1086.5,-366 1086.5,-372 1086.5,-372 1086.5,-384 1086.5,-384 1086.5,-390 1080.5,-396 1074.5,-396"/>
<text text-anchor="middle" x="1047.5" y="-375.5" font-family="sans" font-size="10.00">gene_counts</text>
</g>
<!-- 25&#45;&gt;9 -->
<g id="edge27" class="edge"><title>25&#45;&gt;9</title>
<path fill="none" stroke="grey" stroke-width="2" d="M1012.27,-359.876C992.923,-350.469 968.727,-338.708 948.073,-328.667"/>
<polygon fill="grey" stroke="grey" stroke-width="2" points="949.386,-325.414 938.862,-324.19 946.325,-331.71 949.386,-325.414"/>
</g>
<!-- 26 -->
<g id="node27" class="node"><title>26</title>
<path fill="none" stroke="#56d8c9" stroke-width="2" d="M786.5,-396C786.5,-396 732.5,-396 732.5,-396 726.5,-396 720.5,-390 720.5,-384 720.5,-384 720.5,-372 720.5,-372 720.5,-366 726.5,-360 732.5,-360 732.5,-360 786.5,-360 786.5,-360 792.5,-360 798.5,-366 798.5,-372 798.5,-372 798.5,-384 798.5,-384 798.5,-390 792.5,-396 786.5,-396"/>
<text text-anchor="middle" x="759.5" y="-375.5" font-family="sans" font-size="10.00">gene_counts</text>
</g>
<!-- 26&#45;&gt;9 -->
<g id="edge28" class="edge"><title>26&#45;&gt;9</title>
<path fill="none" stroke="grey" stroke-width="2" d="M794.726,-359.876C814.077,-350.469 838.273,-338.708 858.927,-328.667"/>
<polygon fill="grey" stroke="grey" stroke-width="2" points="860.675,-331.71 868.138,-324.19 857.614,-325.414 860.675,-331.71"/>
</g>
<!-- 27 -->
<g id="node28" class="node"><title>27</title>
<path fill="none" stroke="#d88556" stroke-width="2" d="M286.5,-324C286.5,-324 244.5,-324 244.5,-324 238.5,-324 232.5,-318 232.5,-312 232.5,-312 232.5,-300 232.5,-300 232.5,-294 238.5,-288 244.5,-288 244.5,-288 286.5,-288 286.5,-288 292.5,-288 298.5,-294 298.5,-300 298.5,-300 298.5,-312 298.5,-312 298.5,-318 292.5,-324 286.5,-324"/>
<text text-anchor="middle" x="265.5" y="-303.5" font-family="sans" font-size="10.00">count_cov</text>
</g>
<!-- 27&#45;&gt;10 -->
<g id="edge29" class="edge"><title>27&#45;&gt;10</title>
<path fill="none" stroke="grey" stroke-width="2" d="M265.253,-287.697C265.143,-279.983 265.01,-270.712 264.887,-262.112"/>
<polygon fill="grey" stroke="grey" stroke-width="2" points="268.387,-262.053 264.744,-252.104 261.388,-262.153 268.387,-262.053"/>
</g>
<!-- 28 -->
<g id="node29" class="node"><title>28</title>
<path fill="none" stroke="#d88556" stroke-width="2" d="M690.5,-396C690.5,-396 648.5,-396 648.5,-396 642.5,-396 636.5,-390 636.5,-384 636.5,-384 636.5,-372 636.5,-372 636.5,-366 642.5,-360 648.5,-360 648.5,-360 690.5,-360 690.5,-360 696.5,-360 702.5,-366 702.5,-372 702.5,-372 702.5,-384 702.5,-384 702.5,-390 696.5,-396 690.5,-396"/>
<text text-anchor="middle" x="669.5" y="-375.5" font-family="sans" font-size="10.00">count_cov</text>
</g>
<!-- 28&#45;&gt;11 -->
<g id="edge30" class="edge"><title>28&#45;&gt;11</title>
<path fill="none" stroke="grey" stroke-width="2" d="M679.388,-359.697C683.989,-351.644 689.56,-341.894 694.653,-332.982"/>
<polygon fill="grey" stroke="grey" stroke-width="2" points="697.804,-334.523 699.726,-324.104 691.726,-331.05 697.804,-334.523"/>
</g>
<!-- 29 -->
<g id="node30" class="node"><title>29</title>
<path fill="none" stroke="#d88556" stroke-width="2" d="M176.5,-396C176.5,-396 134.5,-396 134.5,-396 128.5,-396 122.5,-390 122.5,-384 122.5,-384 122.5,-372 122.5,-372 122.5,-366 128.5,-360 134.5,-360 134.5,-360 176.5,-360 176.5,-360 182.5,-360 188.5,-366 188.5,-372 188.5,-372 188.5,-384 188.5,-384 188.5,-390 182.5,-396 176.5,-396"/>
<text text-anchor="middle" x="155.5" y="-375.5" font-family="sans" font-size="10.00">count_cov</text>
</g>
<!-- 29&#45;&gt;12 -->
<g id="edge31" class="edge"><title>29&#45;&gt;12</title>
<path fill="none" stroke="grey" stroke-width="2" d="M152.846,-359.871C149.097,-335.67 142.209,-291.211 137.744,-262.393"/>
<polygon fill="grey" stroke="grey" stroke-width="2" points="141.153,-261.535 136.163,-252.189 134.236,-262.607 141.153,-261.535"/>
</g>
<!-- 30 -->
<g id="node31" class="node"><title>30</title>
<path fill="none" stroke="#5692d8" stroke-width="2" d="M383.5,-324C383.5,-324 333.5,-324 333.5,-324 327.5,-324 321.5,-318 321.5,-312 321.5,-312 321.5,-300 321.5,-300 321.5,-294 327.5,-288 333.5,-288 333.5,-288 383.5,-288 383.5,-288 389.5,-288 395.5,-294 395.5,-300 395.5,-300 395.5,-312 395.5,-312 395.5,-318 389.5,-324 383.5,-324"/>
<text text-anchor="middle" x="358.5" y="-303.5" font-family="sans" font-size="10.00">process_vcf</text>
</g>
<!-- 30&#45;&gt;13 -->
<g id="edge32" class="edge"><title>30&#45;&gt;13</title>
<path fill="none" stroke="grey" stroke-width="2" d="M360.972,-287.697C362.074,-279.983 363.398,-270.712 364.627,-262.112"/>
<polygon fill="grey" stroke="grey" stroke-width="2" points="368.107,-262.499 366.057,-252.104 361.177,-261.509 368.107,-262.499"/>
</g>
<!-- 31 -->
<g id="node32" class="node"><title>31</title>
<path fill="none" stroke="#5692d8" stroke-width="2" d="M524.5,-324C524.5,-324 474.5,-324 474.5,-324 468.5,-324 462.5,-318 462.5,-312 462.5,-312 462.5,-300 462.5,-300 462.5,-294 468.5,-288 474.5,-288 474.5,-288 524.5,-288 524.5,-288 530.5,-288 536.5,-294 536.5,-300 536.5,-300 536.5,-312 536.5,-312 536.5,-318 530.5,-324 524.5,-324"/>
<text text-anchor="middle" x="499.5" y="-303.5" font-family="sans" font-size="10.00">process_vcf</text>
</g>
<!-- 31&#45;&gt;14 -->
<g id="edge33" class="edge"><title>31&#45;&gt;14</title>
<path fill="none" stroke="grey" stroke-width="2" d="M518.534,-287.697C528.045,-279.05 539.707,-268.449 550.07,-259.027"/>
<polygon fill="grey" stroke="grey" stroke-width="2" points="552.64,-261.421 557.685,-252.104 547.931,-256.241 552.64,-261.421"/>
</g>
<!-- 32 -->
<g id="node33" class="node"><title>32</title>
<path fill="none" stroke="#d88556" stroke-width="2" d="M434.5,-396C434.5,-396 392.5,-396 392.5,-396 386.5,-396 380.5,-390 380.5,-384 380.5,-384 380.5,-372 380.5,-372 380.5,-366 386.5,-360 392.5,-360 392.5,-360 434.5,-360 434.5,-360 440.5,-360 446.5,-366 446.5,-372 446.5,-372 446.5,-384 446.5,-384 446.5,-390 440.5,-396 434.5,-396"/>
<text text-anchor="middle" x="413.5" y="-375.5" font-family="sans" font-size="10.00">count_cov</text>
</g>
<!-- 32&#45;&gt;15 -->
<g id="edge34" class="edge"><title>32&#45;&gt;15</title>
<path fill="none" stroke="grey" stroke-width="2" d="M420.617,-359.871C430.761,-335.457 449.471,-290.426 461.433,-261.635"/>
<polygon fill="grey" stroke="grey" stroke-width="2" points="464.753,-262.767 465.358,-252.189 458.289,-260.081 464.753,-262.767"/>
</g>
<!-- 33 -->
<g id="node34" class="node"><title>33</title>
<path fill="none" stroke="#5692d8" stroke-width="2" d="M74.5,-324C74.5,-324 24.5,-324 24.5,-324 18.5,-324 12.5,-318 12.5,-312 12.5,-312 12.5,-300 12.5,-300 12.5,-294 18.5,-288 24.5,-288 24.5,-288 74.5,-288 74.5,-288 80.5,-288 86.5,-294 86.5,-300 86.5,-300 86.5,-312 86.5,-312 86.5,-318 80.5,-324 74.5,-324"/>
<text text-anchor="middle" x="49.5" y="-303.5" font-family="sans" font-size="10.00">process_vcf</text>
</g>
<!-- 33&#45;&gt;16 -->
<g id="edge35" class="edge"><title>33&#45;&gt;16</title>
<path fill="none" stroke="grey" stroke-width="2" d="M44.5562,-287.697C42.328,-279.898 39.6453,-270.509 37.1655,-261.829"/>
<polygon fill="grey" stroke="grey" stroke-width="2" points="40.4996,-260.758 34.387,-252.104 33.7689,-262.681 40.4996,-260.758"/>
</g>
<!-- 34 -->
<g id="node35" class="node"><title>34</title>
<path fill="none" stroke="#5692d8" stroke-width="2" d="M617.5,-324C617.5,-324 567.5,-324 567.5,-324 561.5,-324 555.5,-318 555.5,-312 555.5,-312 555.5,-300 555.5,-300 555.5,-294 561.5,-288 567.5,-288 567.5,-288 617.5,-288 617.5,-288 623.5,-288 629.5,-294 629.5,-300 629.5,-300 629.5,-312 629.5,-312 629.5,-318 623.5,-324 617.5,-324"/>
<text text-anchor="middle" x="592.5" y="-303.5" font-family="sans" font-size="10.00">process_vcf</text>
</g>
<!-- 34&#45;&gt;17 -->
<g id="edge36" class="edge"><title>34&#45;&gt;17</title>
<path fill="none" stroke="grey" stroke-width="2" d="M607.579,-287.697C614.892,-279.305 623.81,-269.07 631.835,-259.861"/>
<polygon fill="grey" stroke="grey" stroke-width="2" points="634.664,-261.943 638.595,-252.104 629.386,-257.344 634.664,-261.943"/>
</g>
<!-- 35&#45;&gt;18 -->
<g id="edge37" class="edge"><title>35&#45;&gt;18</title>
<path fill="none" stroke="grey" stroke-width="2" d="M1216.5,-287.697C1216.5,-279.983 1216.5,-270.712 1216.5,-262.112"/>
<polygon fill="grey" stroke="grey" stroke-width="2" points="1220,-262.104 1216.5,-252.104 1213,-262.104 1220,-262.104"/>
</g>
<!-- 36 -->
<g id="node37" class="node"><title>36</title>
<path fill="none" stroke="#d8c356" stroke-width="2" d="M1205.5,-556C1205.5,-556 1121.5,-556 1121.5,-556 1115.5,-556 1109.5,-550 1109.5,-544 1109.5,-544 1109.5,-516 1109.5,-516 1109.5,-510 1115.5,-504 1121.5,-504 1121.5,-504 1205.5,-504 1205.5,-504 1211.5,-504 1217.5,-510 1217.5,-516 1217.5,-516 1217.5,-544 1217.5,-544 1217.5,-550 1211.5,-556 1205.5,-556"/>
<text text-anchor="middle" x="1163.5" y="-544" font-family="sans" font-size="10.00">create_assembly</text>
<text text-anchor="middle" x="1163.5" y="-533" font-family="sans" font-size="10.00">TMP_D: tmp</text>
<text text-anchor="middle" x="1163.5" y="-522" font-family="sans" font-size="10.00">assembler: spades</text>
<text text-anchor="middle" x="1163.5" y="-511" font-family="sans" font-size="10.00">strain: F1659</text>
</g>
<!-- 36&#45;&gt;19 -->
<g id="edge38" class="edge"><title>36&#45;&gt;19</title>
<path fill="none" stroke="grey" stroke-width="2" d="M1168.33,-503.891C1169.89,-495.749 1171.64,-486.679 1173.23,-478.381"/>
<polygon fill="grey" stroke="grey" stroke-width="2" points="1176.7,-478.892 1175.15,-468.411 1169.83,-477.57 1176.7,-478.892"/>
</g>
<!-- 37 -->
<g id="node38" class="node"><title>37</title>
<path fill="none" stroke="#d8c356" stroke-width="2" d="M1457.5,-556C1457.5,-556 1373.5,-556 1373.5,-556 1367.5,-556 1361.5,-550 1361.5,-544 1361.5,-544 1361.5,-516 1361.5,-516 1361.5,-510 1367.5,-504 1373.5,-504 1373.5,-504 1457.5,-504 1457.5,-504 1463.5,-504 1469.5,-510 1469.5,-516 1469.5,-516 1469.5,-544 1469.5,-544 1469.5,-550 1463.5,-556 1457.5,-556"/>
<text text-anchor="middle" x="1415.5" y="-544" font-family="sans" font-size="10.00">create_assembly</text>
<text text-anchor="middle" x="1415.5" y="-533" font-family="sans" font-size="10.00">TMP_D: tmp</text>
<text text-anchor="middle" x="1415.5" y="-522" font-family="sans" font-size="10.00">assembler: spades</text>
<text text-anchor="middle" x="1415.5" y="-511" font-family="sans" font-size="10.00">strain: CH2502</text>
</g>
<!-- 37&#45;&gt;20 -->
<g id="edge39" class="edge"><title>37&#45;&gt;20</title>
<path fill="none" stroke="grey" stroke-width="2" d="M1396.83,-503.891C1390.3,-495.116 1382.98,-485.262 1376.43,-476.459"/>
<polygon fill="grey" stroke="grey" stroke-width="2" points="1379.22,-474.347 1370.45,-468.411 1373.6,-478.524 1379.22,-474.347"/>
</g>
<!-- 38 -->
<g id="node39" class="node"><title>38</title>
<path fill="none" stroke="#d8c356" stroke-width="2" d="M1583.5,-556C1583.5,-556 1499.5,-556 1499.5,-556 1493.5,-556 1487.5,-550 1487.5,-544 1487.5,-544 1487.5,-516 1487.5,-516 1487.5,-510 1493.5,-504 1499.5,-504 1499.5,-504 1583.5,-504 1583.5,-504 1589.5,-504 1595.5,-510 1595.5,-516 1595.5,-516 1595.5,-544 1595.5,-544 1595.5,-550 1589.5,-556 1583.5,-556"/>
<text text-anchor="middle" x="1541.5" y="-544" font-family="sans" font-size="10.00">create_assembly</text>
<text text-anchor="middle" x="1541.5" y="-533" font-family="sans" font-size="10.00">TMP_D: tmp</text>
<text text-anchor="middle" x="1541.5" y="-522" font-family="sans" font-size="10.00">assembler: spades</text>
<text text-anchor="middle" x="1541.5" y="-511" font-family="sans" font-size="10.00">strain: CH2522</text>
</g>
<!-- 38&#45;&gt;21 -->
<g id="edge40" class="edge"><title>38&#45;&gt;21</title>
<path fill="none" stroke="grey" stroke-width="2" d="M1510.92,-503.891C1499.48,-494.502 1486.54,-483.877 1475.28,-474.626"/>
<polygon fill="grey" stroke="grey" stroke-width="2" points="1477.36,-471.811 1467.41,-468.17 1472.92,-477.221 1477.36,-471.811"/>
</g>
<!-- 39 -->
<g id="node40" class="node"><title>39</title>
<path fill="none" stroke="#d8c356" stroke-width="2" d="M1331.5,-556C1331.5,-556 1247.5,-556 1247.5,-556 1241.5,-556 1235.5,-550 1235.5,-544 1235.5,-544 1235.5,-516 1235.5,-516 1235.5,-510 1241.5,-504 1247.5,-504 1247.5,-504 1331.5,-504 1331.5,-504 1337.5,-504 1343.5,-510 1343.5,-516 1343.5,-516 1343.5,-544 1343.5,-544 1343.5,-550 1337.5,-556 1331.5,-556"/>
<text text-anchor="middle" x="1289.5" y="-544" font-family="sans" font-size="10.00">create_assembly</text>
<text text-anchor="middle" x="1289.5" y="-533" font-family="sans" font-size="10.00">TMP_D: tmp</text>
<text text-anchor="middle" x="1289.5" y="-522" font-family="sans" font-size="10.00">assembler: spades</text>
<text text-anchor="middle" x="1289.5" y="-511" font-family="sans" font-size="10.00">strain: CH2500</text>
</g>
<!-- 39&#45;&gt;22 -->
<g id="edge41" class="edge"><title>39&#45;&gt;22</title>
<path fill="none" stroke="grey" stroke-width="2" d="M1284.67,-503.891C1283.11,-495.749 1281.36,-486.679 1279.77,-478.381"/>
<polygon fill="grey" stroke="grey" stroke-width="2" points="1283.17,-477.57 1277.85,-468.411 1276.3,-478.892 1283.17,-477.57"/>
</g>
<!-- 40 -->
<g id="node41" class="node"><title>40</title>
<path fill="none" stroke="#d8a456" stroke-width="2" d="M858.5,-468C858.5,-468 794.5,-468 794.5,-468 788.5,-468 782.5,-462 782.5,-456 782.5,-456 782.5,-444 782.5,-444 782.5,-438 788.5,-432 794.5,-432 794.5,-432 858.5,-432 858.5,-432 864.5,-432 870.5,-438 870.5,-444 870.5,-444 870.5,-456 870.5,-456 870.5,-462 864.5,-468 858.5,-468"/>
<text text-anchor="middle" x="826.5" y="-453" font-family="sans" font-size="10.00">convert_to_sin</text>
<text text-anchor="middle" x="826.5" y="-442" font-family="sans" font-size="10.00">TMP_D: tmp</text>
</g>
<!-- 40&#45;&gt;23 -->
<g id="edge42" class="edge"><title>40&#45;&gt;23</title>
<path fill="none" stroke="grey" stroke-width="2" d="M833.669,-431.697C836.935,-423.813 840.874,-414.304 844.502,-405.546"/>
<polygon fill="grey" stroke="grey" stroke-width="2" points="847.82,-406.683 848.414,-396.104 841.353,-404.003 847.82,-406.683"/>
</g>
<!-- 41 -->
<g id="node42" class="node"><title>41</title>
<path fill="none" stroke="#d8a456" stroke-width="2" d="M971.5,-468C971.5,-468 907.5,-468 907.5,-468 901.5,-468 895.5,-462 895.5,-456 895.5,-456 895.5,-444 895.5,-444 895.5,-438 901.5,-432 907.5,-432 907.5,-432 971.5,-432 971.5,-432 977.5,-432 983.5,-438 983.5,-444 983.5,-444 983.5,-456 983.5,-456 983.5,-462 977.5,-468 971.5,-468"/>
<text text-anchor="middle" x="939.5" y="-453" font-family="sans" font-size="10.00">convert_to_sin</text>
<text text-anchor="middle" x="939.5" y="-442" font-family="sans" font-size="10.00">TMP_D: tmp</text>
</g>
<!-- 41&#45;&gt;24 -->
<g id="edge43" class="edge"><title>41&#45;&gt;24</title>
<path fill="none" stroke="grey" stroke-width="2" d="M942.466,-431.697C943.789,-423.983 945.378,-414.712 946.852,-406.112"/>
<polygon fill="grey" stroke="grey" stroke-width="2" points="950.328,-406.552 948.568,-396.104 943.428,-405.369 950.328,-406.552"/>
</g>
<!-- 42 -->
<g id="node43" class="node"><title>42</title>
<path fill="none" stroke="#d8a456" stroke-width="2" d="M1079.5,-468C1079.5,-468 1015.5,-468 1015.5,-468 1009.5,-468 1003.5,-462 1003.5,-456 1003.5,-456 1003.5,-444 1003.5,-444 1003.5,-438 1009.5,-432 1015.5,-432 1015.5,-432 1079.5,-432 1079.5,-432 1085.5,-432 1091.5,-438 1091.5,-444 1091.5,-444 1091.5,-456 1091.5,-456 1091.5,-462 1085.5,-468 1079.5,-468"/>
<text text-anchor="middle" x="1047.5" y="-453" font-family="sans" font-size="10.00">convert_to_sin</text>
<text text-anchor="middle" x="1047.5" y="-442" font-family="sans" font-size="10.00">TMP_D: tmp</text>
</g>
<!-- 42&#45;&gt;25 -->
<g id="edge44" class="edge"><title>42&#45;&gt;25</title>
<path fill="none" stroke="grey" stroke-width="2" d="M1047.5,-431.697C1047.5,-423.983 1047.5,-414.712 1047.5,-406.112"/>
<polygon fill="grey" stroke="grey" stroke-width="2" points="1051,-406.104 1047.5,-396.104 1044,-406.104 1051,-406.104"/>
</g>
<!-- 43 -->
<g id="node44" class="node"><title>43</title>
<path fill="none" stroke="#d8a456" stroke-width="2" d="M748.5,-468C748.5,-468 684.5,-468 684.5,-468 678.5,-468 672.5,-462 672.5,-456 672.5,-456 672.5,-444 672.5,-444 672.5,-438 678.5,-432 684.5,-432 684.5,-432 748.5,-432 748.5,-432 754.5,-432 760.5,-438 760.5,-444 760.5,-444 760.5,-456 760.5,-456 760.5,-462 754.5,-468 748.5,-468"/>
<text text-anchor="middle" x="716.5" y="-453" font-family="sans" font-size="10.00">convert_to_sin</text>
<text text-anchor="middle" x="716.5" y="-442" font-family="sans" font-size="10.00">TMP_D: tmp</text>
</g>
<!-- 43&#45;&gt;26 -->
<g id="edge45" class="edge"><title>43&#45;&gt;26</title>
<path fill="none" stroke="grey" stroke-width="2" d="M727.129,-431.697C732.128,-423.559 738.191,-413.689 743.712,-404.701"/>
<polygon fill="grey" stroke="grey" stroke-width="2" points="746.741,-406.457 748.993,-396.104 740.777,-402.793 746.741,-406.457"/>
</g>
<!-- 44 -->
<g id="node45" class="node"><title>44</title>
<path fill="none" stroke="#80d856" stroke-width="2" d="M285.5,-468C285.5,-468 247.5,-468 247.5,-468 241.5,-468 235.5,-462 235.5,-456 235.5,-456 235.5,-444 235.5,-444 235.5,-438 241.5,-432 247.5,-432 247.5,-432 285.5,-432 285.5,-432 291.5,-432 297.5,-438 297.5,-444 297.5,-444 297.5,-456 297.5,-456 297.5,-462 291.5,-468 285.5,-468"/>
<text text-anchor="middle" x="266.5" y="-447.5" font-family="sans" font-size="10.00">sort_bam</text>
</g>
<!-- 44&#45;&gt;27 -->
<g id="edge46" class="edge"><title>44&#45;&gt;27</title>
<path fill="none" stroke="grey" stroke-width="2" d="M266.379,-431.871C266.209,-407.67 265.896,-363.211 265.693,-334.393"/>
<polygon fill="grey" stroke="grey" stroke-width="2" points="269.191,-334.164 265.621,-324.189 262.192,-334.214 269.191,-334.164"/>
</g>
<!-- 47 -->
<g id="node48" class="node"><title>47</title>
<path fill="none" stroke="#8fd856" stroke-width="2" d="M350.5,-396C350.5,-396 306.5,-396 306.5,-396 300.5,-396 294.5,-390 294.5,-384 294.5,-384 294.5,-372 294.5,-372 294.5,-366 300.5,-360 306.5,-360 306.5,-360 350.5,-360 350.5,-360 356.5,-360 362.5,-366 362.5,-372 362.5,-372 362.5,-384 362.5,-384 362.5,-390 356.5,-396 350.5,-396"/>
<text text-anchor="middle" x="328.5" y="-375.5" font-family="sans" font-size="10.00">create_vcf</text>
</g>
<!-- 44&#45;&gt;47 -->
<g id="edge66" class="edge"><title>44&#45;&gt;47</title>
<path fill="none" stroke="grey" stroke-width="2" d="M281.826,-431.697C289.259,-423.305 298.323,-413.07 306.48,-403.861"/>
<polygon fill="grey" stroke="grey" stroke-width="2" points="309.34,-405.911 313.35,-396.104 304.1,-401.27 309.34,-405.911"/>
</g>
<!-- 45 -->
<g id="node46" class="node"><title>45</title>
<path fill="none" stroke="#80d856" stroke-width="2" d="M615.5,-468C615.5,-468 577.5,-468 577.5,-468 571.5,-468 565.5,-462 565.5,-456 565.5,-456 565.5,-444 565.5,-444 565.5,-438 571.5,-432 577.5,-432 577.5,-432 615.5,-432 615.5,-432 621.5,-432 627.5,-438 627.5,-444 627.5,-444 627.5,-456 627.5,-456 627.5,-462 621.5,-468 615.5,-468"/>
<text text-anchor="middle" x="596.5" y="-447.5" font-family="sans" font-size="10.00">sort_bam</text>
</g>
<!-- 45&#45;&gt;28 -->
<g id="edge47" class="edge"><title>45&#45;&gt;28</title>
<path fill="none" stroke="grey" stroke-width="2" d="M614.545,-431.697C623.562,-423.05 634.618,-412.449 644.443,-403.027"/>
<polygon fill="grey" stroke="grey" stroke-width="2" points="646.867,-405.552 651.663,-396.104 642.022,-400.499 646.867,-405.552"/>
</g>
<!-- 51 -->
<g id="node52" class="node"><title>51</title>
<path fill="none" stroke="#8fd856" stroke-width="2" d="M606.5,-396C606.5,-396 562.5,-396 562.5,-396 556.5,-396 550.5,-390 550.5,-384 550.5,-384 550.5,-372 550.5,-372 550.5,-366 556.5,-360 562.5,-360 562.5,-360 606.5,-360 606.5,-360 612.5,-360 618.5,-366 618.5,-372 618.5,-372 618.5,-384 618.5,-384 618.5,-390 612.5,-396 606.5,-396"/>
<text text-anchor="middle" x="584.5" y="-375.5" font-family="sans" font-size="10.00">create_vcf</text>
</g>
<!-- 45&#45;&gt;51 -->
<g id="edge74" class="edge"><title>45&#45;&gt;51</title>
<path fill="none" stroke="grey" stroke-width="2" d="M593.534,-431.697C592.211,-423.983 590.622,-414.712 589.148,-406.112"/>
<polygon fill="grey" stroke="grey" stroke-width="2" points="592.572,-405.369 587.432,-396.104 585.672,-406.552 592.572,-405.369"/>
</g>
<!-- 46 -->
<g id="node47" class="node"><title>46</title>
<path fill="none" stroke="#80d856" stroke-width="2" d="M174.5,-468C174.5,-468 136.5,-468 136.5,-468 130.5,-468 124.5,-462 124.5,-456 124.5,-456 124.5,-444 124.5,-444 124.5,-438 130.5,-432 136.5,-432 136.5,-432 174.5,-432 174.5,-432 180.5,-432 186.5,-438 186.5,-444 186.5,-444 186.5,-456 186.5,-456 186.5,-462 180.5,-468 174.5,-468"/>
<text text-anchor="middle" x="155.5" y="-447.5" font-family="sans" font-size="10.00">sort_bam</text>
</g>
<!-- 46&#45;&gt;29 -->
<g id="edge48" class="edge"><title>46&#45;&gt;29</title>
<path fill="none" stroke="grey" stroke-width="2" d="M155.5,-431.697C155.5,-423.983 155.5,-414.712 155.5,-406.112"/>
<polygon fill="grey" stroke="grey" stroke-width="2" points="159,-406.104 155.5,-396.104 152,-406.104 159,-406.104"/>
</g>
<!-- 50 -->
<g id="node51" class="node"><title>50</title>
<path fill="none" stroke="#8fd856" stroke-width="2" d="M92.5,-396C92.5,-396 48.5,-396 48.5,-396 42.5,-396 36.5,-390 36.5,-384 36.5,-384 36.5,-372 36.5,-372 36.5,-366 42.5,-360 48.5,-360 48.5,-360 92.5,-360 92.5,-360 98.5,-360 104.5,-366 104.5,-372 104.5,-372 104.5,-384 104.5,-384 104.5,-390 98.5,-396 92.5,-396"/>
<text text-anchor="middle" x="70.5" y="-375.5" font-family="sans" font-size="10.00">create_vcf</text>
</g>
<!-- 46&#45;&gt;50 -->
<g id="edge71" class="edge"><title>46&#45;&gt;50</title>
<path fill="none" stroke="grey" stroke-width="2" d="M134.489,-431.697C123.784,-422.881 110.61,-412.032 99.0044,-402.474"/>
<polygon fill="grey" stroke="grey" stroke-width="2" points="101.214,-399.76 91.2695,-396.104 96.7639,-405.163 101.214,-399.76"/>
</g>
<!-- 47&#45;&gt;30 -->
<g id="edge49" class="edge"><title>47&#45;&gt;30</title>
<path fill="none" stroke="grey" stroke-width="2" d="M335.916,-359.697C339.294,-351.813 343.37,-342.304 347.123,-333.546"/>
<polygon fill="grey" stroke="grey" stroke-width="2" points="350.447,-334.675 351.17,-324.104 344.013,-331.917 350.447,-334.675"/>
</g>
<!-- 48 -->
<g id="node49" class="node"><title>48</title>
<path fill="none" stroke="#8fd856" stroke-width="2" d="M520.5,-396C520.5,-396 476.5,-396 476.5,-396 470.5,-396 464.5,-390 464.5,-384 464.5,-384 464.5,-372 464.5,-372 464.5,-366 470.5,-360 476.5,-360 476.5,-360 520.5,-360 520.5,-360 526.5,-360 532.5,-366 532.5,-372 532.5,-372 532.5,-384 532.5,-384 532.5,-390 526.5,-396 520.5,-396"/>
<text text-anchor="middle" x="498.5" y="-375.5" font-family="sans" font-size="10.00">create_vcf</text>
</g>
<!-- 48&#45;&gt;31 -->
<g id="edge50" class="edge"><title>48&#45;&gt;31</title>
<path fill="none" stroke="grey" stroke-width="2" d="M498.747,-359.697C498.857,-351.983 498.99,-342.712 499.113,-334.112"/>
<polygon fill="grey" stroke="grey" stroke-width="2" points="502.612,-334.153 499.256,-324.104 495.613,-334.053 502.612,-334.153"/>
</g>
<!-- 49 -->
<g id="node50" class="node"><title>49</title>
<path fill="none" stroke="#80d856" stroke-width="2" d="M432.5,-468C432.5,-468 394.5,-468 394.5,-468 388.5,-468 382.5,-462 382.5,-456 382.5,-456 382.5,-444 382.5,-444 382.5,-438 388.5,-432 394.5,-432 394.5,-432 432.5,-432 432.5,-432 438.5,-432 444.5,-438 444.5,-444 444.5,-444 444.5,-456 444.5,-456 444.5,-462 438.5,-468 432.5,-468"/>
<text text-anchor="middle" x="413.5" y="-447.5" font-family="sans" font-size="10.00">sort_bam</text>
</g>
<!-- 49&#45;&gt;32 -->
<g id="edge51" class="edge"><title>49&#45;&gt;32</title>
<path fill="none" stroke="grey" stroke-width="2" d="M413.5,-431.697C413.5,-423.983 413.5,-414.712 413.5,-406.112"/>
<polygon fill="grey" stroke="grey" stroke-width="2" points="417,-406.104 413.5,-396.104 410,-406.104 417,-406.104"/>
</g>
<!-- 49&#45;&gt;48 -->
<g id="edge68" class="edge"><title>49&#45;&gt;48</title>
<path fill="none" stroke="grey" stroke-width="2" d="M434.511,-431.697C445.216,-422.881 458.39,-412.032 469.996,-402.474"/>
<polygon fill="grey" stroke="grey" stroke-width="2" points="472.236,-405.163 477.73,-396.104 467.786,-399.76 472.236,-405.163"/>
</g>
<!-- 50&#45;&gt;33 -->
<g id="edge52" class="edge"><title>50&#45;&gt;33</title>
<path fill="none" stroke="grey" stroke-width="2" d="M65.309,-359.697C62.9694,-351.898 60.1526,-342.509 57.5487,-333.829"/>
<polygon fill="grey" stroke="grey" stroke-width="2" points="60.8572,-332.677 54.6313,-324.104 54.1525,-334.688 60.8572,-332.677"/>
</g>
<!-- 51&#45;&gt;34 -->
<g id="edge53" class="edge"><title>51&#45;&gt;34</title>
<path fill="none" stroke="grey" stroke-width="2" d="M586.478,-359.697C587.359,-351.983 588.419,-342.712 589.401,-334.112"/>
<polygon fill="grey" stroke="grey" stroke-width="2" points="592.887,-334.437 590.545,-324.104 585.932,-333.642 592.887,-334.437"/>
</g>
<!-- 52 -->
<g id="node53" class="node"><title>52</title>
<path fill="none" stroke="#afd856" stroke-width="2" d="M859,-548C859,-548 786,-548 786,-548 780,-548 774,-542 774,-536 774,-536 774,-524 774,-524 774,-518 780,-512 786,-512 786,-512 859,-512 859,-512 865,-512 871,-518 871,-524 871,-524 871,-536 871,-536 871,-542 865,-548 859,-548"/>
<text text-anchor="middle" x="822.5" y="-533" font-family="sans" font-size="10.00">rna_mapping</text>
<text text-anchor="middle" x="822.5" y="-522" font-family="sans" font-size="10.00">sample: CH2500</text>
</g>
<!-- 52&#45;&gt;40 -->
<g id="edge59" class="edge"><title>52&#45;&gt;40</title>
<path fill="none" stroke="grey" stroke-width="2" d="M823.388,-511.689C823.89,-501.894 824.53,-489.422 825.098,-478.335"/>
<polygon fill="grey" stroke="grey" stroke-width="2" points="828.598,-478.428 825.615,-468.262 821.607,-478.07 828.598,-478.428"/>
</g>
<!-- 53 -->
<g id="node54" class="node"><title>53</title>
<path fill="none" stroke="#afd856" stroke-width="2" d="M974,-548C974,-548 901,-548 901,-548 895,-548 889,-542 889,-536 889,-536 889,-524 889,-524 889,-518 895,-512 901,-512 901,-512 974,-512 974,-512 980,-512 986,-518 986,-524 986,-524 986,-536 986,-536 986,-542 980,-548 974,-548"/>
<text text-anchor="middle" x="937.5" y="-533" font-family="sans" font-size="10.00">rna_mapping</text>
<text text-anchor="middle" x="937.5" y="-522" font-family="sans" font-size="10.00">sample: CH2502</text>
</g>
<!-- 53&#45;&gt;41 -->
<g id="edge60" class="edge"><title>53&#45;&gt;41</title>
<path fill="none" stroke="grey" stroke-width="2" d="M937.944,-511.689C938.195,-501.894 938.515,-489.422 938.799,-478.335"/>
<polygon fill="grey" stroke="grey" stroke-width="2" points="942.3,-478.349 939.057,-468.262 935.302,-478.169 942.3,-478.349"/>
</g>
<!-- 54 -->
<g id="node55" class="node"><title>54</title>
<path fill="none" stroke="#afd856" stroke-width="2" d="M1079.5,-548C1079.5,-548 1015.5,-548 1015.5,-548 1009.5,-548 1003.5,-542 1003.5,-536 1003.5,-536 1003.5,-524 1003.5,-524 1003.5,-518 1009.5,-512 1015.5,-512 1015.5,-512 1079.5,-512 1079.5,-512 1085.5,-512 1091.5,-518 1091.5,-524 1091.5,-524 1091.5,-536 1091.5,-536 1091.5,-542 1085.5,-548 1079.5,-548"/>
<text text-anchor="middle" x="1047.5" y="-533" font-family="sans" font-size="10.00">rna_mapping</text>
<text text-anchor="middle" x="1047.5" y="-522" font-family="sans" font-size="10.00">sample: F1659</text>
</g>
<!-- 54&#45;&gt;42 -->
<g id="edge61" class="edge"><title>54&#45;&gt;42</title>
<path fill="none" stroke="grey" stroke-width="2" d="M1047.5,-511.689C1047.5,-501.894 1047.5,-489.422 1047.5,-478.335"/>
<polygon fill="grey" stroke="grey" stroke-width="2" points="1051,-478.262 1047.5,-468.262 1044,-478.262 1051,-478.262"/>
</g>
<!-- 55 -->
<g id="node56" class="node"><title>55</title>
<path fill="none" stroke="#afd856" stroke-width="2" d="M744,-548C744,-548 671,-548 671,-548 665,-548 659,-542 659,-536 659,-536 659,-524 659,-524 659,-518 665,-512 671,-512 671,-512 744,-512 744,-512 750,-512 756,-518 756,-524 756,-524 756,-536 756,-536 756,-542 750,-548 744,-548"/>
<text text-anchor="middle" x="707.5" y="-533" font-family="sans" font-size="10.00">rna_mapping</text>
<text text-anchor="middle" x="707.5" y="-522" font-family="sans" font-size="10.00">sample: CH2522</text>
</g>
<!-- 55&#45;&gt;43 -->
<g id="edge62" class="edge"><title>55&#45;&gt;43</title>
<path fill="none" stroke="grey" stroke-width="2" d="M709.497,-511.689C710.628,-501.894 712.067,-489.422 713.346,-478.335"/>
<polygon fill="grey" stroke="grey" stroke-width="2" points="716.839,-478.598 714.508,-468.262 709.885,-477.795 716.839,-478.598"/>
</g>
<!-- 56 -->
<g id="node57" class="node"><title>56</title>
<path fill="none" stroke="#d8d356" stroke-width="2" d="M299,-556C299,-556 234,-556 234,-556 228,-556 222,-550 222,-544 222,-544 222,-516 222,-516 222,-510 228,-504 234,-504 234,-504 299,-504 299,-504 305,-504 311,-510 311,-516 311,-516 311,-544 311,-544 311,-550 305,-556 299,-556"/>
<text text-anchor="middle" x="266.5" y="-544" font-family="sans" font-size="10.00">mapping</text>
<text text-anchor="middle" x="266.5" y="-533" font-family="sans" font-size="10.00">TMP_D: tmp</text>
<text text-anchor="middle" x="266.5" y="-522" font-family="sans" font-size="10.00">mapper: bwa</text>
<text text-anchor="middle" x="266.5" y="-511" font-family="sans" font-size="10.00">strain: CH2522</text>
</g>
<!-- 56&#45;&gt;44 -->
<g id="edge63" class="edge"><title>56&#45;&gt;44</title>
<path fill="none" stroke="grey" stroke-width="2" d="M266.5,-503.891C266.5,-495.84 266.5,-486.88 266.5,-478.658"/>
<polygon fill="grey" stroke="grey" stroke-width="2" points="270,-478.411 266.5,-468.411 263,-478.411 270,-478.411"/>
</g>
<!-- 57 -->
<g id="node58" class="node"><title>57</title>
<path fill="none" stroke="#d8d356" stroke-width="2" d="M629,-556C629,-556 564,-556 564,-556 558,-556 552,-550 552,-544 552,-544 552,-516 552,-516 552,-510 558,-504 564,-504 564,-504 629,-504 629,-504 635,-504 641,-510 641,-516 641,-516 641,-544 641,-544 641,-550 635,-556 629,-556"/>
<text text-anchor="middle" x="596.5" y="-544" font-family="sans" font-size="10.00">mapping</text>
<text text-anchor="middle" x="596.5" y="-533" font-family="sans" font-size="10.00">TMP_D: tmp</text>
<text text-anchor="middle" x="596.5" y="-522" font-family="sans" font-size="10.00">mapper: bwa</text>
<text text-anchor="middle" x="596.5" y="-511" font-family="sans" font-size="10.00">strain: CH2500</text>
</g>
<!-- 57&#45;&gt;45 -->
<g id="edge64" class="edge"><title>57&#45;&gt;45</title>
<path fill="none" stroke="grey" stroke-width="2" d="M596.5,-503.891C596.5,-495.84 596.5,-486.88 596.5,-478.658"/>
<polygon fill="grey" stroke="grey" stroke-width="2" points="600,-478.411 596.5,-468.411 593,-478.411 600,-478.411"/>
</g>
<!-- 58 -->
<g id="node59" class="node"><title>58</title>
<path fill="none" stroke="#d8d356" stroke-width="2" d="M187.5,-556C187.5,-556 131.5,-556 131.5,-556 125.5,-556 119.5,-550 119.5,-544 119.5,-544 119.5,-516 119.5,-516 119.5,-510 125.5,-504 131.5,-504 131.5,-504 187.5,-504 187.5,-504 193.5,-504 199.5,-510 199.5,-516 199.5,-516 199.5,-544 199.5,-544 199.5,-550 193.5,-556 187.5,-556"/>
<text text-anchor="middle" x="159.5" y="-544" font-family="sans" font-size="10.00">mapping</text>
<text text-anchor="middle" x="159.5" y="-533" font-family="sans" font-size="10.00">TMP_D: tmp</text>
<text text-anchor="middle" x="159.5" y="-522" font-family="sans" font-size="10.00">mapper: bwa</text>
<text text-anchor="middle" x="159.5" y="-511" font-family="sans" font-size="10.00">strain: F1659</text>
</g>
<!-- 58&#45;&gt;46 -->
<g id="edge65" class="edge"><title>58&#45;&gt;46</title>
<path fill="none" stroke="grey" stroke-width="2" d="M158.212,-503.891C157.799,-495.84 157.34,-486.88 156.918,-478.658"/>
<polygon fill="grey" stroke="grey" stroke-width="2" points="160.401,-478.218 156.393,-468.411 153.41,-478.577 160.401,-478.218"/>
</g>
<!-- 59 -->
<g id="node60" class="node"><title>59</title>
<path fill="none" stroke="#56d89a" stroke-width="2" d="M537,-628C537,-628 472,-628 472,-628 466,-628 460,-622 460,-616 460,-616 460,-604 460,-604 460,-598 466,-592 472,-592 472,-592 537,-592 537,-592 543,-592 549,-598 549,-604 549,-604 549,-616 549,-616 549,-622 543,-628 537,-628"/>
<text text-anchor="middle" x="504.5" y="-607.5" font-family="sans" font-size="10.00">load_reference</text>
</g>
<!-- 59&#45;&gt;47 -->
<g id="edge67" class="edge"><title>59&#45;&gt;47</title>
<path fill="none" stroke="grey" stroke-width="2" d="M459.742,-604.624C426.759,-598.951 383.46,-585.922 358.5,-556 322.976,-513.414 322.341,-444.517 325.258,-406.459"/>
<polygon fill="grey" stroke="grey" stroke-width="2" points="328.775,-406.42 326.195,-396.145 321.804,-405.787 328.775,-406.42"/>
</g>
<!-- 59&#45;&gt;48 -->
<g id="edge69" class="edge"><title>59&#45;&gt;48</title>
<path fill="none" stroke="grey" stroke-width="2" d="M504.049,-591.713C503.015,-552.072 500.466,-454.359 499.215,-406.42"/>
<polygon fill="grey" stroke="grey" stroke-width="2" points="502.708,-406.08 498.948,-396.174 495.71,-406.262 502.708,-406.08"/>
</g>
<!-- 59&#45;&gt;50 -->
<g id="edge72" class="edge"><title>59&#45;&gt;50</title>
<path fill="none" stroke="grey" stroke-width="2" d="M459.706,-609.168C367.459,-608.558 160.716,-601.955 110.5,-556 68.6502,-517.701 65.8838,-445.706 67.9244,-406.369"/>
<polygon fill="grey" stroke="grey" stroke-width="2" points="71.4297,-406.404 68.599,-396.194 64.445,-405.941 71.4297,-406.404"/>
</g>
<!-- 59&#45;&gt;51 -->
<g id="edge73" class="edge"><title>59&#45;&gt;51</title>
<path fill="none" stroke="grey" stroke-width="2" d="M508.343,-591.775C515.77,-559.678 533.415,-488.823 556.5,-432 560.143,-423.034 564.834,-413.587 569.331,-405.193"/>
<polygon fill="grey" stroke="grey" stroke-width="2" points="572.501,-406.692 574.26,-396.244 566.37,-403.315 572.501,-406.692"/>
</g>
<!-- 59&#45;&gt;52 -->
<g id="edge75" class="edge"><title>59&#45;&gt;52</title>
<path fill="none" stroke="grey" stroke-width="2" d="M549.369,-602.731C601.76,-594.754 690.657,-579.169 764.5,-556 768.502,-554.744 772.603,-553.306 776.683,-551.767"/>
<polygon fill="grey" stroke="grey" stroke-width="2" points="778.104,-554.969 786.113,-548.034 775.527,-548.461 778.104,-554.969"/>
</g>
<!-- 59&#45;&gt;53 -->
<g id="edge76" class="edge"><title>59&#45;&gt;53</title>
<path fill="none" stroke="grey" stroke-width="2" d="M549.163,-606.541C620.255,-601.773 763.021,-588.699 879.5,-556 883.833,-554.784 888.268,-553.314 892.66,-551.705"/>
<polygon fill="grey" stroke="grey" stroke-width="2" points="894.109,-554.897 902.152,-548.001 891.564,-548.376 894.109,-554.897"/>
</g>
<!-- 59&#45;&gt;54 -->
<g id="edge77" class="edge"><title>59&#45;&gt;54</title>
<path fill="none" stroke="grey" stroke-width="2" d="M549.02,-609.087C636.216,-608.194 834.912,-600.898 994.5,-556 998.356,-554.915 1002.28,-553.573 1006.16,-552.077"/>
<polygon fill="grey" stroke="grey" stroke-width="2" points="1007.77,-555.195 1015.65,-548.105 1005.07,-548.738 1007.77,-555.195"/>
</g>
<!-- 59&#45;&gt;55 -->
<g id="edge78" class="edge"><title>59&#45;&gt;55</title>
<path fill="none" stroke="grey" stroke-width="2" d="M549.169,-593.409C577.966,-583.177 616.129,-569.278 649.5,-556 652.704,-554.725 655.997,-553.386 659.308,-552.018"/>
<polygon fill="grey" stroke="grey" stroke-width="2" points="660.756,-555.205 668.628,-548.114 658.052,-548.749 660.756,-555.205"/>
</g>
<!-- 59&#45;&gt;56 -->
<g id="edge79" class="edge"><title>59&#45;&gt;56</title>
<path fill="none" stroke="grey" stroke-width="2" d="M459.914,-597.306C423.423,-587.376 370.651,-572.192 325.5,-556 323.88,-555.419 322.241,-554.817 320.59,-554.199"/>
<polygon fill="grey" stroke="grey" stroke-width="2" points="321.657,-550.859 311.068,-550.51 319.129,-557.386 321.657,-550.859"/>
</g>
<!-- 59&#45;&gt;57 -->
<g id="edge80" class="edge"><title>59&#45;&gt;57</title>
<path fill="none" stroke="grey" stroke-width="2" d="M524.918,-591.689C534.896,-583.229 547.23,-572.772 558.832,-562.936"/>
<polygon fill="grey" stroke="grey" stroke-width="2" points="561.345,-565.394 566.71,-556.257 556.819,-560.054 561.345,-565.394"/>
</g>
<!-- 59&#45;&gt;58 -->
<g id="edge81" class="edge"><title>59&#45;&gt;58</title>
<path fill="none" stroke="grey" stroke-width="2" d="M459.842,-604.564C401.789,-597.971 297.749,-583.322 212.5,-556 211.434,-555.658 210.362,-555.3 209.287,-554.927"/>
<polygon fill="grey" stroke="grey" stroke-width="2" points="210.162,-551.515 199.571,-551.227 207.671,-558.057 210.162,-551.515"/>
</g>
<!-- 60 -->
<g id="node61" class="node"><title>60</title>
<path fill="none" stroke="#d8d356" stroke-width="2" d="M445,-556C445,-556 380,-556 380,-556 374,-556 368,-550 368,-544 368,-544 368,-516 368,-516 368,-510 374,-504 380,-504 380,-504 445,-504 445,-504 451,-504 457,-510 457,-516 457,-516 457,-544 457,-544 457,-550 451,-556 445,-556"/>
<text text-anchor="middle" x="412.5" y="-544" font-family="sans" font-size="10.00">mapping</text>
<text text-anchor="middle" x="412.5" y="-533" font-family="sans" font-size="10.00">TMP_D: tmp</text>
<text text-anchor="middle" x="412.5" y="-522" font-family="sans" font-size="10.00">mapper: bwa</text>
<text text-anchor="middle" x="412.5" y="-511" font-family="sans" font-size="10.00">strain: CH2502</text>
</g>
<!-- 59&#45;&gt;60 -->
<g id="edge82" class="edge"><title>59&#45;&gt;60</title>
<path fill="none" stroke="grey" stroke-width="2" d="M484.082,-591.689C474.104,-583.229 461.77,-572.772 450.168,-562.936"/>
<polygon fill="grey" stroke="grey" stroke-width="2" points="452.181,-560.054 442.29,-556.257 447.655,-565.394 452.181,-560.054"/>
</g>
<!-- 60&#45;&gt;49 -->
<g id="edge70" class="edge"><title>60&#45;&gt;49</title>
<path fill="none" stroke="grey" stroke-width="2" d="M412.822,-503.891C412.925,-495.84 413.04,-486.88 413.145,-478.658"/>
<polygon fill="grey" stroke="grey" stroke-width="2" points="416.648,-478.455 413.277,-468.411 409.649,-478.365 416.648,-478.455"/>
</g>
</g>
</svg>
