<?xml version="1.0" encoding="UTF-8" standalone="no"?>
<!DOCTYPE svg PUBLIC "-//W3C//DTD SVG 1.1//EN"
 "http://www.w3.org/Graphics/SVG/1.1/DTD/svg11.dtd">
<!-- Generated by graphviz version 2.38.0 (20140413.2041)
 -->
<!-- Title: snakemake_dag Pages: 1 -->
<svg width="2055pt" height="724pt"
 viewBox="0.00 0.00 2054.50 724.00" xmlns="http://www.w3.org/2000/svg" xmlns:xlink="http://www.w3.org/1999/xlink">
<g id="graph0" class="graph" transform="scale(1 1) rotate(0) translate(4 720)">
<title>snakemake_dag</title>
<polygon fill="white" stroke="none" points="-4,4 -4,-720 2050.5,-720 2050.5,4 -4,4"/>
<!-- 0 -->
<g id="node1" class="node"><title>0</title>
<path fill="none" stroke="#56d0d8" stroke-width="2" d="M1365.5,-36C1365.5,-36 1335.5,-36 1335.5,-36 1329.5,-36 1323.5,-30 1323.5,-24 1323.5,-24 1323.5,-12 1323.5,-12 1323.5,-6 1329.5,-0 1335.5,-0 1335.5,-0 1365.5,-0 1365.5,-0 1371.5,-0 1377.5,-6 1377.5,-12 1377.5,-12 1377.5,-24 1377.5,-24 1377.5,-30 1371.5,-36 1365.5,-36"/>
<text text-anchor="middle" x="1350.5" y="-15.5" font-family="sans" font-size="10.00">all</text>
</g>
<!-- 1 -->
<g id="node2" class="node"><title>1</title>
<path fill="none" stroke="#d86656" stroke-width="2" d="M886,-108C886,-108 805,-108 805,-108 799,-108 793,-102 793,-96 793,-96 793,-84 793,-84 793,-78 799,-72 805,-72 805,-72 886,-72 886,-72 892,-72 898,-78 898,-84 898,-84 898,-96 898,-96 898,-102 892,-108 886,-108"/>
<text text-anchor="middle" x="845.5" y="-87.5" font-family="sans" font-size="10.00">covert_snps_table</text>
</g>
<!-- 1&#45;&gt;0 -->
<g id="edge1" class="edge"><title>1&#45;&gt;0</title>
<path fill="none" stroke="grey" stroke-width="2" d="M898.115,-81.7069C1000.56,-67.5069 1224.51,-36.4643 1313.23,-24.1662"/>
<polygon fill="grey" stroke="grey" stroke-width="2" points="1313.94,-27.6017 1323.36,-22.7618 1312.98,-20.668 1313.94,-27.6017"/>
</g>
<!-- 2 -->
<g id="node3" class="node"><title>2</title>
<path fill="none" stroke="#88d856" stroke-width="2" d="M1490,-108C1490,-108 1401,-108 1401,-108 1395,-108 1389,-102 1389,-96 1389,-96 1389,-84 1389,-84 1389,-78 1395,-72 1401,-72 1401,-72 1490,-72 1490,-72 1496,-72 1502,-78 1502,-84 1502,-84 1502,-96 1502,-96 1502,-102 1496,-108 1490,-108"/>
<text text-anchor="middle" x="1445.5" y="-87.5" font-family="sans" font-size="10.00">compute_gpa_table</text>
</g>
<!-- 2&#45;&gt;0 -->
<g id="edge2" class="edge"><title>2&#45;&gt;0</title>
<path fill="none" stroke="grey" stroke-width="2" d="M1422.02,-71.6966C1409.94,-62.796 1395.05,-51.8232 1381.98,-42.1989"/>
<polygon fill="grey" stroke="grey" stroke-width="2" points="1383.84,-39.2187 1373.71,-36.1043 1379.69,-44.8541 1383.84,-39.2187"/>
</g>
<!-- 3 -->
<g id="node4" class="node"><title>3</title>
<path fill="none" stroke="#5673d8" stroke-width="2" d="M1231.5,-108C1231.5,-108 1169.5,-108 1169.5,-108 1163.5,-108 1157.5,-102 1157.5,-96 1157.5,-96 1157.5,-84 1157.5,-84 1157.5,-78 1163.5,-72 1169.5,-72 1169.5,-72 1231.5,-72 1231.5,-72 1237.5,-72 1243.5,-78 1243.5,-84 1243.5,-84 1243.5,-96 1243.5,-96 1243.5,-102 1237.5,-108 1231.5,-108"/>
<text text-anchor="middle" x="1200.5" y="-87.5" font-family="sans" font-size="10.00">find_best_tree</text>
</g>
<!-- 3&#45;&gt;0 -->
<g id="edge3" class="edge"><title>3&#45;&gt;0</title>
<path fill="none" stroke="grey" stroke-width="2" d="M1237.19,-71.8761C1260.52,-60.9904 1290.6,-46.9511 1313.91,-36.0749"/>
<polygon fill="grey" stroke="grey" stroke-width="2" points="1315.54,-39.1767 1323.12,-31.7761 1312.58,-32.8334 1315.54,-39.1767"/>
</g>
<!-- 4 -->
<g id="node5" class="node"><title>4</title>
<path fill="none" stroke="#61d856" stroke-width="2" d="M1419,-252C1419,-252 1282,-252 1282,-252 1276,-252 1270,-246 1270,-240 1270,-240 1270,-228 1270,-228 1270,-222 1276,-216 1282,-216 1282,-216 1419,-216 1419,-216 1425,-216 1431,-222 1431,-228 1431,-228 1431,-240 1431,-240 1431,-246 1425,-252 1419,-252"/>
<text text-anchor="middle" x="1350.5" y="-231.5" font-family="sans" font-size="10.00">create_and_make_expr_table</text>
</g>
<!-- 4&#45;&gt;0 -->
<g id="edge4" class="edge"><title>4&#45;&gt;0</title>
<path fill="none" stroke="grey" stroke-width="2" d="M1350.5,-215.849C1350.5,-178.832 1350.5,-91.1809 1350.5,-46.3863"/>
<polygon fill="grey" stroke="grey" stroke-width="2" points="1354,-46.2324 1350.5,-36.2325 1347,-46.2325 1354,-46.2324"/>
</g>
<!-- 5 -->
<g id="node6" class="node"><title>5</title>
<path fill="none" stroke="#56d89a" stroke-width="2" d="M1620,-108C1620,-108 1537,-108 1537,-108 1531,-108 1525,-102 1525,-96 1525,-96 1525,-84 1525,-84 1525,-78 1531,-72 1537,-72 1537,-72 1620,-72 1620,-72 1626,-72 1632,-78 1632,-84 1632,-84 1632,-96 1632,-96 1632,-102 1626,-108 1620,-108"/>
<text text-anchor="middle" x="1578.5" y="-87.5" font-family="sans" font-size="10.00">create_indel_table</text>
</g>
<!-- 5&#45;&gt;0 -->
<g id="edge5" class="edge"><title>5&#45;&gt;0</title>
<path fill="none" stroke="grey" stroke-width="2" d="M1524.76,-72.4996C1482.52,-59.5314 1424.79,-41.8082 1387.57,-30.3815"/>
<polygon fill="grey" stroke="grey" stroke-width="2" points="1388.23,-26.9239 1377.65,-27.3347 1386.18,-33.6156 1388.23,-26.9239"/>
</g>
<!-- 6 -->
<g id="node7" class="node"><title>6</title>
<path fill="none" stroke="#d87556" stroke-width="2" d="M888.5,-180C888.5,-180 802.5,-180 802.5,-180 796.5,-180 790.5,-174 790.5,-168 790.5,-168 790.5,-156 790.5,-156 790.5,-150 796.5,-144 802.5,-144 802.5,-144 888.5,-144 888.5,-144 894.5,-144 900.5,-150 900.5,-156 900.5,-156 900.5,-168 900.5,-168 900.5,-174 894.5,-180 888.5,-180"/>
<text text-anchor="middle" x="845.5" y="-159.5" font-family="sans" font-size="10.00">nonsyn_snps_table</text>
</g>
<!-- 6&#45;&gt;1 -->
<g id="edge6" class="edge"><title>6&#45;&gt;1</title>
<path fill="none" stroke="grey" stroke-width="2" d="M845.5,-143.697C845.5,-135.983 845.5,-126.712 845.5,-118.112"/>
<polygon fill="grey" stroke="grey" stroke-width="2" points="849,-118.104 845.5,-108.104 842,-118.104 849,-118.104"/>
</g>
<!-- 7 -->
<g id="node8" class="node"><title>7</title>
<path fill="none" stroke="#56d87b" stroke-width="2" d="M760.5,-180C760.5,-180 692.5,-180 692.5,-180 686.5,-180 680.5,-174 680.5,-168 680.5,-168 680.5,-156 680.5,-156 680.5,-150 686.5,-144 692.5,-144 692.5,-144 760.5,-144 760.5,-144 766.5,-144 772.5,-150 772.5,-156 772.5,-156 772.5,-168 772.5,-168 772.5,-174 766.5,-180 760.5,-180"/>
<text text-anchor="middle" x="726.5" y="-159.5" font-family="sans" font-size="10.00">syn_snps_table</text>
</g>
<!-- 7&#45;&gt;1 -->
<g id="edge7" class="edge"><title>7&#45;&gt;1</title>
<path fill="none" stroke="grey" stroke-width="2" d="M755.611,-143.876C771.17,-134.724 790.519,-123.342 807.276,-113.485"/>
<polygon fill="grey" stroke="grey" stroke-width="2" points="809.433,-116.277 816.277,-108.19 805.883,-110.243 809.433,-116.277"/>
</g>
<!-- 8 -->
<g id="node9" class="node"><title>8</title>
<path fill="none" stroke="#56d8a9" stroke-width="2" d="M1793.5,-468C1793.5,-468 1681.5,-468 1681.5,-468 1675.5,-468 1669.5,-462 1669.5,-456 1669.5,-456 1669.5,-444 1669.5,-444 1669.5,-438 1675.5,-432 1681.5,-432 1681.5,-432 1793.5,-432 1793.5,-432 1799.5,-432 1805.5,-438 1805.5,-444 1805.5,-444 1805.5,-456 1805.5,-456 1805.5,-462 1799.5,-468 1793.5,-468"/>
<text text-anchor="middle" x="1737.5" y="-453" font-family="sans" font-size="10.00">compute_gpa_raw_table</text>
<text text-anchor="middle" x="1737.5" y="-442" font-family="sans" font-size="10.00">gene_sorter: roary</text>
</g>
<!-- 8&#45;&gt;2 -->
<g id="edge8" class="edge"><title>8&#45;&gt;2</title>
<path fill="none" stroke="grey" stroke-width="2" d="M1669.46,-437.244C1601,-421.053 1505.5,-384.565 1505.5,-307 1505.5,-307 1505.5,-307 1505.5,-233 1505.5,-189.719 1481.56,-144.454 1463.92,-116.983"/>
<polygon fill="grey" stroke="grey" stroke-width="2" points="1466.66,-114.785 1458.22,-108.377 1460.82,-118.648 1466.66,-114.785"/>
</g>
<!-- 65 -->
<g id="node66" class="node"><title>65</title>
<path fill="none" stroke="#70d856" stroke-width="2" d="M1728,-396C1728,-396 1651,-396 1651,-396 1645,-396 1639,-390 1639,-384 1639,-384 1639,-372 1639,-372 1639,-366 1645,-360 1651,-360 1651,-360 1728,-360 1728,-360 1734,-360 1740,-366 1740,-372 1740,-372 1740,-384 1740,-384 1740,-390 1734,-396 1728,-396"/>
<text text-anchor="middle" x="1689.5" y="-381" font-family="sans" font-size="10.00">sort_gene_family</text>
<text text-anchor="middle" x="1689.5" y="-370" font-family="sans" font-size="10.00">fam: ...</text>
</g>
<!-- 8&#45;&gt;65 -->
<g id="edge100" class="edge"><title>8&#45;&gt;65</title>
<path fill="none" stroke="grey" stroke-width="2" d="M1725.63,-431.697C1720,-423.474 1713.15,-413.483 1706.93,-404.421"/>
<polygon fill="grey" stroke="grey" stroke-width="2" points="1709.77,-402.372 1701.23,-396.104 1704,-406.331 1709.77,-402.372"/>
</g>
<!-- 9 -->
<g id="node10" class="node"><title>9</title>
<path fill="none" stroke="#b6d856" stroke-width="2" d="M1173.5,-180C1173.5,-180 1067.5,-180 1067.5,-180 1061.5,-180 1055.5,-174 1055.5,-168 1055.5,-168 1055.5,-156 1055.5,-156 1055.5,-150 1061.5,-144 1067.5,-144 1067.5,-144 1173.5,-144 1173.5,-144 1179.5,-144 1185.5,-150 1185.5,-156 1185.5,-156 1185.5,-168 1185.5,-168 1185.5,-174 1179.5,-180 1173.5,-180"/>
<text text-anchor="middle" x="1120.5" y="-159.5" font-family="sans" font-size="10.00">postprocess_alignment</text>
</g>
<!-- 9&#45;&gt;3 -->
<g id="edge9" class="edge"><title>9&#45;&gt;3</title>
<path fill="none" stroke="grey" stroke-width="2" d="M1140.28,-143.697C1150.25,-134.965 1162.51,-124.24 1173.36,-114.75"/>
<polygon fill="grey" stroke="grey" stroke-width="2" points="1175.73,-117.323 1180.95,-108.104 1171.12,-112.055 1175.73,-117.323"/>
</g>
<!-- 10 -->
<g id="node11" class="node"><title>10</title>
<path fill="none" stroke="#d89556" stroke-width="2" d="M1368,-396C1368,-396 1307,-396 1307,-396 1301,-396 1295,-390 1295,-384 1295,-384 1295,-372 1295,-372 1295,-366 1301,-360 1307,-360 1307,-360 1368,-360 1368,-360 1374,-360 1380,-366 1380,-372 1380,-372 1380,-384 1380,-384 1380,-390 1374,-396 1368,-396"/>
<text text-anchor="middle" x="1337.5" y="-375.5" font-family="sans" font-size="10.00">write_dict_file</text>
</g>
<!-- 10&#45;&gt;4 -->
<g id="edge10" class="edge"><title>10&#45;&gt;4</title>
<path fill="none" stroke="grey" stroke-width="2" d="M1339.07,-359.871C1341.28,-335.67 1345.35,-291.211 1347.99,-262.393"/>
<polygon fill="grey" stroke="grey" stroke-width="2" points="1351.5,-262.467 1348.93,-252.189 1344.53,-261.829 1351.5,-262.467"/>
</g>
<!-- 11 -->
<g id="node12" class="node"><title>11</title>
<path fill="none" stroke="#56c1d8" stroke-width="2" stroke-dasharray="1,5" d="M1640,-180C1640,-180 1557,-180 1557,-180 1551,-180 1545,-174 1545,-168 1545,-168 1545,-156 1545,-156 1545,-150 1551,-144 1557,-144 1557,-144 1640,-144 1640,-144 1646,-144 1652,-150 1652,-156 1652,-156 1652,-168 1652,-168 1652,-174 1646,-180 1640,-180"/>
<text text-anchor="middle" x="1598.5" y="-159.5" font-family="sans" font-size="10.00">expand_by_family</text>
</g>
<!-- 11&#45;&gt;5 -->
<g id="edge11" class="edge"><title>11&#45;&gt;5</title>
<path fill="none" stroke="grey" stroke-width="2" d="M1593.56,-143.697C1591.33,-135.898 1588.65,-126.509 1586.17,-117.829"/>
<polygon fill="grey" stroke="grey" stroke-width="2" points="1589.5,-116.758 1583.39,-108.104 1582.77,-118.681 1589.5,-116.758"/>
</g>
<!-- 12 -->
<g id="node13" class="node"><title>12</title>
<path fill="none" stroke="#97d856" stroke-width="2" d="M757.5,-252C757.5,-252 695.5,-252 695.5,-252 689.5,-252 683.5,-246 683.5,-240 683.5,-240 683.5,-228 683.5,-228 683.5,-222 689.5,-216 695.5,-216 695.5,-216 757.5,-216 757.5,-216 763.5,-216 769.5,-222 769.5,-228 769.5,-228 769.5,-240 769.5,-240 769.5,-246 763.5,-252 757.5,-252"/>
<text text-anchor="middle" x="726.5" y="-231.5" font-family="sans" font-size="10.00">all_snps_table</text>
</g>
<!-- 12&#45;&gt;6 -->
<g id="edge12" class="edge"><title>12&#45;&gt;6</title>
<path fill="none" stroke="grey" stroke-width="2" d="M755.611,-215.876C771.17,-206.724 790.519,-195.342 807.276,-185.485"/>
<polygon fill="grey" stroke="grey" stroke-width="2" points="809.433,-188.277 816.277,-180.19 805.883,-182.243 809.433,-188.277"/>
</g>
<!-- 12&#45;&gt;7 -->
<g id="edge13" class="edge"><title>12&#45;&gt;7</title>
<path fill="none" stroke="grey" stroke-width="2" d="M726.5,-215.697C726.5,-207.983 726.5,-198.712 726.5,-190.112"/>
<polygon fill="grey" stroke="grey" stroke-width="2" points="730,-190.104 726.5,-180.104 723,-190.104 730,-190.104"/>
</g>
<!-- 13 -->
<g id="node14" class="node"><title>13</title>
<path fill="none" stroke="#a7d856" stroke-width="2" d="M1988,-540C1988,-540 1927,-540 1927,-540 1921,-540 1915,-534 1915,-528 1915,-528 1915,-516 1915,-516 1915,-510 1921,-504 1927,-504 1927,-504 1988,-504 1988,-504 1994,-504 2000,-510 2000,-516 2000,-516 2000,-528 2000,-528 2000,-534 1994,-540 1988,-540"/>
<text text-anchor="middle" x="1957.5" y="-519.5" font-family="sans" font-size="10.00">duplicate_gffs</text>
</g>
<!-- 13&#45;&gt;8 -->
<g id="edge14" class="edge"><title>13&#45;&gt;8</title>
<path fill="none" stroke="grey" stroke-width="2" d="M1914.82,-507.42C1882.36,-497.092 1837.19,-482.719 1800.56,-471.065"/>
<polygon fill="grey" stroke="grey" stroke-width="2" points="1801.55,-467.708 1790.96,-468.011 1799.43,-474.379 1801.55,-467.708"/>
</g>
<!-- 14 -->
<g id="node15" class="node"><title>14</title>
<path fill="none" stroke="#a7d856" stroke-width="2" d="M1743,-540C1743,-540 1682,-540 1682,-540 1676,-540 1670,-534 1670,-528 1670,-528 1670,-516 1670,-516 1670,-510 1676,-504 1682,-504 1682,-504 1743,-504 1743,-504 1749,-504 1755,-510 1755,-516 1755,-516 1755,-528 1755,-528 1755,-534 1749,-540 1743,-540"/>
<text text-anchor="middle" x="1712.5" y="-519.5" font-family="sans" font-size="10.00">duplicate_gffs</text>
</g>
<!-- 14&#45;&gt;8 -->
<g id="edge15" class="edge"><title>14&#45;&gt;8</title>
<path fill="none" stroke="grey" stroke-width="2" d="M1718.68,-503.697C1721.5,-495.813 1724.89,-486.304 1728.02,-477.546"/>
<polygon fill="grey" stroke="grey" stroke-width="2" points="1731.32,-478.699 1731.39,-468.104 1724.73,-476.345 1731.32,-478.699"/>
</g>
<!-- 15 -->
<g id="node16" class="node"><title>15</title>
<path fill="none" stroke="#a7d856" stroke-width="2" d="M1601,-540C1601,-540 1540,-540 1540,-540 1534,-540 1528,-534 1528,-528 1528,-528 1528,-516 1528,-516 1528,-510 1534,-504 1540,-504 1540,-504 1601,-504 1601,-504 1607,-504 1613,-510 1613,-516 1613,-516 1613,-528 1613,-528 1613,-534 1607,-540 1601,-540"/>
<text text-anchor="middle" x="1570.5" y="-519.5" font-family="sans" font-size="10.00">duplicate_gffs</text>
</g>
<!-- 15&#45;&gt;8 -->
<g id="edge16" class="edge"><title>15&#45;&gt;8</title>
<path fill="none" stroke="grey" stroke-width="2" d="M1611.35,-503.876C1634.28,-494.264 1663.08,-482.193 1687.37,-472.013"/>
<polygon fill="grey" stroke="grey" stroke-width="2" points="1688.91,-475.162 1696.78,-468.068 1686.2,-468.706 1688.91,-475.162"/>
</g>
<!-- 16 -->
<g id="node17" class="node"><title>16</title>
<path fill="none" stroke="#a7d856" stroke-width="2" d="M1846,-540C1846,-540 1785,-540 1785,-540 1779,-540 1773,-534 1773,-528 1773,-528 1773,-516 1773,-516 1773,-510 1779,-504 1785,-504 1785,-504 1846,-504 1846,-504 1852,-504 1858,-510 1858,-516 1858,-516 1858,-528 1858,-528 1858,-534 1852,-540 1846,-540"/>
<text text-anchor="middle" x="1815.5" y="-519.5" font-family="sans" font-size="10.00">duplicate_gffs</text>
</g>
<!-- 16&#45;&gt;8 -->
<g id="edge17" class="edge"><title>16&#45;&gt;8</title>
<path fill="none" stroke="grey" stroke-width="2" d="M1796.22,-503.697C1786.58,-495.05 1774.77,-484.449 1764.27,-475.027"/>
<polygon fill="grey" stroke="grey" stroke-width="2" points="1766.34,-472.179 1756.56,-468.104 1761.66,-477.388 1766.34,-472.179"/>
</g>
<!-- 17 -->
<g id="node18" class="node"><title>17</title>
<path fill="none" stroke="#56d8c9" stroke-width="2" d="M939.5,-252C939.5,-252 817.5,-252 817.5,-252 811.5,-252 805.5,-246 805.5,-240 805.5,-240 805.5,-228 805.5,-228 805.5,-222 811.5,-216 817.5,-216 817.5,-216 939.5,-216 939.5,-216 945.5,-216 951.5,-222 951.5,-228 951.5,-228 951.5,-240 951.5,-240 951.5,-246 945.5,-252 939.5,-252"/>
<text text-anchor="middle" x="878.5" y="-231.5" font-family="sans" font-size="10.00">create_coding_regions_aln</text>
</g>
<!-- 17&#45;&gt;9 -->
<g id="edge18" class="edge"><title>17&#45;&gt;9</title>
<path fill="none" stroke="grey" stroke-width="2" d="M937.39,-215.966C971.791,-206.015 1015.38,-193.406 1051.4,-182.987"/>
<polygon fill="grey" stroke="grey" stroke-width="2" points="1052.71,-186.252 1061.35,-180.111 1050.77,-179.527 1052.71,-186.252"/>
</g>
<!-- 18 -->
<g id="node19" class="node"><title>18</title>
<path fill="none" stroke="#d8a456" stroke-width="2" d="M1454.5,-468C1454.5,-468 1400.5,-468 1400.5,-468 1394.5,-468 1388.5,-462 1388.5,-456 1388.5,-456 1388.5,-444 1388.5,-444 1388.5,-438 1394.5,-432 1400.5,-432 1400.5,-432 1454.5,-432 1454.5,-432 1460.5,-432 1466.5,-438 1466.5,-444 1466.5,-444 1466.5,-456 1466.5,-456 1466.5,-462 1460.5,-468 1454.5,-468"/>
<text text-anchor="middle" x="1427.5" y="-447.5" font-family="sans" font-size="10.00">gene_counts</text>
</g>
<!-- 18&#45;&gt;10 -->
<g id="edge19" class="edge"><title>18&#45;&gt;10</title>
<path fill="none" stroke="grey" stroke-width="2" d="M1405.25,-431.697C1393.92,-422.881 1379.97,-412.032 1367.68,-402.474"/>
<polygon fill="grey" stroke="grey" stroke-width="2" points="1369.53,-399.481 1359.49,-396.104 1365.24,-405.007 1369.53,-399.481"/>
</g>
<!-- 19 -->
<g id="node20" class="node"><title>19</title>
<path fill="none" stroke="#d8a456" stroke-width="2" d="M1166.5,-468C1166.5,-468 1112.5,-468 1112.5,-468 1106.5,-468 1100.5,-462 1100.5,-456 1100.5,-456 1100.5,-444 1100.5,-444 1100.5,-438 1106.5,-432 1112.5,-432 1112.5,-432 1166.5,-432 1166.5,-432 1172.5,-432 1178.5,-438 1178.5,-444 1178.5,-444 1178.5,-456 1178.5,-456 1178.5,-462 1172.5,-468 1166.5,-468"/>
<text text-anchor="middle" x="1139.5" y="-447.5" font-family="sans" font-size="10.00">gene_counts</text>
</g>
<!-- 19&#45;&gt;10 -->
<g id="edge20" class="edge"><title>19&#45;&gt;10</title>
<path fill="none" stroke="grey" stroke-width="2" d="M1178.53,-435.174C1181.57,-434.099 1184.58,-433.032 1187.5,-432 1220.02,-420.497 1256.5,-407.604 1285.35,-397.415"/>
<polygon fill="grey" stroke="grey" stroke-width="2" points="1286.56,-400.7 1294.82,-394.069 1284.23,-394.1 1286.56,-400.7"/>
</g>
<!-- 20 -->
<g id="node21" class="node"><title>20</title>
<path fill="none" stroke="#d8a456" stroke-width="2" d="M1262.5,-468C1262.5,-468 1208.5,-468 1208.5,-468 1202.5,-468 1196.5,-462 1196.5,-456 1196.5,-456 1196.5,-444 1196.5,-444 1196.5,-438 1202.5,-432 1208.5,-432 1208.5,-432 1262.5,-432 1262.5,-432 1268.5,-432 1274.5,-438 1274.5,-444 1274.5,-444 1274.5,-456 1274.5,-456 1274.5,-462 1268.5,-468 1262.5,-468"/>
<text text-anchor="middle" x="1235.5" y="-447.5" font-family="sans" font-size="10.00">gene_counts</text>
</g>
<!-- 20&#45;&gt;10 -->
<g id="edge21" class="edge"><title>20&#45;&gt;10</title>
<path fill="none" stroke="grey" stroke-width="2" d="M1260.45,-431.876C1273.54,-422.893 1289.76,-411.763 1303.94,-402.034"/>
<polygon fill="grey" stroke="grey" stroke-width="2" points="1306.19,-404.734 1312.45,-396.19 1302.23,-398.962 1306.19,-404.734"/>
</g>
<!-- 21 -->
<g id="node22" class="node"><title>21</title>
<path fill="none" stroke="#d8a456" stroke-width="2" d="M1358.5,-468C1358.5,-468 1304.5,-468 1304.5,-468 1298.5,-468 1292.5,-462 1292.5,-456 1292.5,-456 1292.5,-444 1292.5,-444 1292.5,-438 1298.5,-432 1304.5,-432 1304.5,-432 1358.5,-432 1358.5,-432 1364.5,-432 1370.5,-438 1370.5,-444 1370.5,-444 1370.5,-456 1370.5,-456 1370.5,-462 1364.5,-468 1358.5,-468"/>
<text text-anchor="middle" x="1331.5" y="-447.5" font-family="sans" font-size="10.00">gene_counts</text>
</g>
<!-- 21&#45;&gt;10 -->
<g id="edge22" class="edge"><title>21&#45;&gt;10</title>
<path fill="none" stroke="grey" stroke-width="2" d="M1332.98,-431.697C1333.64,-423.983 1334.44,-414.712 1335.18,-406.112"/>
<polygon fill="grey" stroke="grey" stroke-width="2" points="1338.67,-406.367 1336.03,-396.104 1331.69,-405.769 1338.67,-406.367"/>
</g>
<!-- 22 -->
<g id="node23" class="node"><title>22</title>
<path fill="none" stroke="#56d86b" stroke-width="2" stroke-dasharray="1,5" d="M1707,-252C1707,-252 1604,-252 1604,-252 1598,-252 1592,-246 1592,-240 1592,-240 1592,-228 1592,-228 1592,-222 1598,-216 1604,-216 1604,-216 1707,-216 1707,-216 1713,-216 1719,-222 1719,-228 1719,-228 1719,-240 1719,-240 1719,-246 1713,-252 1707,-252"/>
<text text-anchor="middle" x="1655.5" y="-231.5" font-family="sans" font-size="10.00">vcf_to_indels_per_fam</text>
</g>
<!-- 22&#45;&gt;11 -->
<g id="edge23" class="edge"><title>22&#45;&gt;11</title>
<path fill="none" stroke="grey" stroke-width="2" d="M1641.41,-215.697C1634.58,-207.305 1626.24,-197.07 1618.74,-187.861"/>
<polygon fill="grey" stroke="grey" stroke-width="2" points="1621.46,-185.649 1612.43,-180.104 1616.03,-190.069 1621.46,-185.649"/>
</g>
<!-- 23 -->
<g id="node24" class="node"><title>23</title>
<path fill="none" stroke="#d8bc56" stroke-width="2" d="M101,-324C101,-324 12,-324 12,-324 6,-324 0,-318 0,-312 0,-312 0,-300 0,-300 0,-294 6,-288 12,-288 12,-288 101,-288 101,-288 107,-288 113,-294 113,-300 113,-300 113,-312 113,-312 113,-318 107,-324 101,-324"/>
<text text-anchor="middle" x="56.5" y="-303.5" font-family="sans" font-size="10.00">compute_flatcounts</text>
</g>
<!-- 23&#45;&gt;12 -->
<g id="edge24" class="edge"><title>23&#45;&gt;12</title>
<path fill="none" stroke="grey" stroke-width="2" d="M113.097,-289.598C115.929,-289.016 118.742,-288.478 121.5,-288 323.335,-253.022 567.266,-240.609 673.154,-236.657"/>
<polygon fill="grey" stroke="grey" stroke-width="2" points="673.4,-240.151 683.266,-236.29 673.146,-233.155 673.4,-240.151"/>
</g>
<!-- 24 -->
<g id="node25" class="node"><title>24</title>
<path fill="none" stroke="#56d8b9" stroke-width="2" d="M1021,-324C1021,-324 986,-324 986,-324 980,-324 974,-318 974,-312 974,-312 974,-300 974,-300 974,-294 980,-288 986,-288 986,-288 1021,-288 1021,-288 1027,-288 1033,-294 1033,-300 1033,-300 1033,-312 1033,-312 1033,-318 1027,-324 1021,-324"/>
<text text-anchor="middle" x="1003.5" y="-303.5" font-family="sans" font-size="10.00">filter_vcf</text>
</g>
<!-- 24&#45;&gt;12 -->
<g id="edge25" class="edge"><title>24&#45;&gt;12</title>
<path fill="none" stroke="grey" stroke-width="2" d="M973.926,-291.381C970.776,-290.15 967.594,-288.995 964.5,-288 891.803,-264.627 870.943,-269.012 796.5,-252 791.09,-250.764 785.452,-249.445 779.828,-248.11"/>
<polygon fill="grey" stroke="grey" stroke-width="2" points="780.312,-244.627 769.772,-245.703 778.683,-251.435 780.312,-244.627"/>
</g>
<!-- 25 -->
<g id="node26" class="node"><title>25</title>
<path fill="none" stroke="#d8bc56" stroke-width="2" d="M436,-396C436,-396 347,-396 347,-396 341,-396 335,-390 335,-384 335,-384 335,-372 335,-372 335,-366 341,-360 347,-360 347,-360 436,-360 436,-360 442,-360 448,-366 448,-372 448,-372 448,-384 448,-384 448,-390 442,-396 436,-396"/>
<text text-anchor="middle" x="391.5" y="-375.5" font-family="sans" font-size="10.00">compute_flatcounts</text>
</g>
<!-- 25&#45;&gt;12 -->
<g id="edge26" class="edge"><title>25&#45;&gt;12</title>
<path fill="none" stroke="grey" stroke-width="2" d="M389.922,-359.903C389.082,-339.723 391.093,-306.569 410.5,-288 447.283,-252.806 593.002,-240.845 673.082,-236.885"/>
<polygon fill="grey" stroke="grey" stroke-width="2" points="673.631,-240.363 683.456,-236.399 673.303,-233.371 673.631,-240.363"/>
</g>
<!-- 26 -->
<g id="node27" class="node"><title>26</title>
<path fill="none" stroke="#56d8b9" stroke-width="2" d="M1310,-324C1310,-324 1275,-324 1275,-324 1269,-324 1263,-318 1263,-312 1263,-312 1263,-300 1263,-300 1263,-294 1269,-288 1275,-288 1275,-288 1310,-288 1310,-288 1316,-288 1322,-294 1322,-300 1322,-300 1322,-312 1322,-312 1322,-318 1316,-324 1310,-324"/>
<text text-anchor="middle" x="1292.5" y="-303.5" font-family="sans" font-size="10.00">filter_vcf</text>
</g>
<!-- 26&#45;&gt;12 -->
<g id="edge27" class="edge"><title>26&#45;&gt;12</title>
<path fill="none" stroke="grey" stroke-width="2" d="M1262.61,-290.799C1259.58,-289.715 1256.51,-288.752 1253.5,-288 1055.84,-238.613 997.689,-284.143 796.5,-252 791.02,-251.124 785.336,-250.042 779.685,-248.85"/>
<polygon fill="grey" stroke="grey" stroke-width="2" points="780.118,-245.361 769.597,-246.608 778.599,-252.194 780.118,-245.361"/>
</g>
<!-- 27 -->
<g id="node28" class="node"><title>27</title>
<path fill="none" stroke="#56d8b9" stroke-width="2" d="M178,-324C178,-324 143,-324 143,-324 137,-324 131,-318 131,-312 131,-312 131,-300 131,-300 131,-294 137,-288 143,-288 143,-288 178,-288 178,-288 184,-288 190,-294 190,-300 190,-300 190,-312 190,-312 190,-318 184,-324 178,-324"/>
<text text-anchor="middle" x="160.5" y="-303.5" font-family="sans" font-size="10.00">filter_vcf</text>
</g>
<!-- 27&#45;&gt;12 -->
<g id="edge28" class="edge"><title>27&#45;&gt;12</title>
<path fill="none" stroke="grey" stroke-width="2" d="M190.041,-290.705C192.858,-289.671 195.707,-288.744 198.5,-288 367.709,-242.923 576.722,-235.566 673.152,-234.766"/>
<polygon fill="grey" stroke="grey" stroke-width="2" points="673.259,-238.265 683.237,-234.703 673.215,-231.266 673.259,-238.265"/>
</g>
<!-- 28 -->
<g id="node29" class="node"><title>28</title>
<path fill="none" stroke="#56d8b9" stroke-width="2" d="M467,-324C467,-324 432,-324 432,-324 426,-324 420,-318 420,-312 420,-312 420,-300 420,-300 420,-294 426,-288 432,-288 432,-288 467,-288 467,-288 473,-288 479,-294 479,-300 479,-300 479,-312 479,-312 479,-318 473,-324 467,-324"/>
<text text-anchor="middle" x="449.5" y="-303.5" font-family="sans" font-size="10.00">filter_vcf</text>
</g>
<!-- 28&#45;&gt;12 -->
<g id="edge29" class="edge"><title>28&#45;&gt;12</title>
<path fill="none" stroke="grey" stroke-width="2" d="M479.145,-291.054C481.941,-289.947 484.755,-288.908 487.5,-288 550.034,-267.315 624.444,-252.251 673.433,-243.583"/>
<polygon fill="grey" stroke="grey" stroke-width="2" points="674.237,-246.996 683.488,-241.831 673.035,-240.1 674.237,-246.996"/>
</g>
<!-- 29 -->
<g id="node30" class="node"><title>29</title>
<path fill="none" stroke="#d8bc56" stroke-width="2" d="M1106,-396C1106,-396 1017,-396 1017,-396 1011,-396 1005,-390 1005,-384 1005,-384 1005,-372 1005,-372 1005,-366 1011,-360 1017,-360 1017,-360 1106,-360 1106,-360 1112,-360 1118,-366 1118,-372 1118,-372 1118,-384 1118,-384 1118,-390 1112,-396 1106,-396"/>
<text text-anchor="middle" x="1061.5" y="-375.5" font-family="sans" font-size="10.00">compute_flatcounts</text>
</g>
<!-- 29&#45;&gt;12 -->
<g id="edge30" class="edge"><title>29&#45;&gt;12</title>
<path fill="none" stroke="grey" stroke-width="2" d="M1062.93,-359.815C1063.58,-339.548 1061.24,-306.308 1041.5,-288 1001.15,-250.578 850.517,-262.505 796.5,-252 791.052,-250.941 785.39,-249.738 779.751,-248.473"/>
<polygon fill="grey" stroke="grey" stroke-width="2" points="780.209,-244.987 769.678,-246.147 778.634,-251.807 780.209,-244.987"/>
</g>
<!-- 30 -->
<g id="node31" class="node"><title>30</title>
<path fill="none" stroke="#d8bc56" stroke-width="2" d="M771,-324C771,-324 682,-324 682,-324 676,-324 670,-318 670,-312 670,-312 670,-300 670,-300 670,-294 676,-288 682,-288 682,-288 771,-288 771,-288 777,-288 783,-294 783,-300 783,-300 783,-312 783,-312 783,-318 777,-324 771,-324"/>
<text text-anchor="middle" x="726.5" y="-303.5" font-family="sans" font-size="10.00">compute_flatcounts</text>
</g>
<!-- 30&#45;&gt;12 -->
<g id="edge31" class="edge"><title>30&#45;&gt;12</title>
<path fill="none" stroke="grey" stroke-width="2" d="M726.5,-287.697C726.5,-279.983 726.5,-270.712 726.5,-262.112"/>
<polygon fill="grey" stroke="grey" stroke-width="2" points="730,-262.104 726.5,-252.104 723,-262.104 730,-262.104"/>
</g>
<!-- 31 -->
<g id="node32" class="node"><title>31</title>
<path fill="none" stroke="#d6d856" stroke-width="2" d="M2032.5,-620C2032.5,-620 1952.5,-620 1952.5,-620 1946.5,-620 1940.5,-614 1940.5,-608 1940.5,-608 1940.5,-596 1940.5,-596 1940.5,-590 1946.5,-584 1952.5,-584 1952.5,-584 2032.5,-584 2032.5,-584 2038.5,-584 2044.5,-590 2044.5,-596 2044.5,-596 2044.5,-608 2044.5,-608 2044.5,-614 2038.5,-620 2032.5,-620"/>
<text text-anchor="middle" x="1992.5" y="-605" font-family="sans" font-size="10.00">create_gff</text>
<text text-anchor="middle" x="1992.5" y="-594" font-family="sans" font-size="10.00">annotator: prokka</text>
</g>
<!-- 31&#45;&gt;13 -->
<g id="edge32" class="edge"><title>31&#45;&gt;13</title>
<path fill="none" stroke="grey" stroke-width="2" d="M1984.73,-583.689C1980.25,-573.692 1974.51,-560.906 1969.46,-549.651"/>
<polygon fill="grey" stroke="grey" stroke-width="2" points="1972.53,-547.953 1965.25,-540.262 1966.15,-550.819 1972.53,-547.953"/>
</g>
<!-- 31&#45;&gt;65 -->
<g id="edge98" class="edge"><title>31&#45;&gt;65</title>
<path fill="none" stroke="grey" stroke-width="2" d="M2002.05,-583.757C2012.05,-563.133 2024.28,-528.347 2008.5,-504 1952.49,-417.598 1826.37,-390.89 1750.56,-382.653"/>
<polygon fill="grey" stroke="grey" stroke-width="2" points="1750.51,-379.13 1740.21,-381.609 1749.81,-386.095 1750.51,-379.13"/>
</g>
<!-- 32 -->
<g id="node33" class="node"><title>32</title>
<path fill="none" stroke="#d6d856" stroke-width="2" d="M1724.5,-620C1724.5,-620 1644.5,-620 1644.5,-620 1638.5,-620 1632.5,-614 1632.5,-608 1632.5,-608 1632.5,-596 1632.5,-596 1632.5,-590 1638.5,-584 1644.5,-584 1644.5,-584 1724.5,-584 1724.5,-584 1730.5,-584 1736.5,-590 1736.5,-596 1736.5,-596 1736.5,-608 1736.5,-608 1736.5,-614 1730.5,-620 1724.5,-620"/>
<text text-anchor="middle" x="1684.5" y="-605" font-family="sans" font-size="10.00">create_gff</text>
<text text-anchor="middle" x="1684.5" y="-594" font-family="sans" font-size="10.00">annotator: prokka</text>
</g>
<!-- 32&#45;&gt;14 -->
<g id="edge33" class="edge"><title>32&#45;&gt;14</title>
<path fill="none" stroke="grey" stroke-width="2" d="M1690.71,-583.689C1694.27,-573.793 1698.8,-561.164 1702.81,-549.993"/>
<polygon fill="grey" stroke="grey" stroke-width="2" points="1706.22,-550.857 1706.3,-540.262 1699.63,-548.492 1706.22,-550.857"/>
</g>
<!-- 32&#45;&gt;65 -->
<g id="edge102" class="edge"><title>32&#45;&gt;65</title>
<path fill="none" stroke="grey" stroke-width="2" d="M1675.77,-583.902C1670.17,-571.95 1663.43,-555.43 1660.5,-540 1651.56,-492.841 1648.61,-478.504 1660.5,-432 1662.88,-422.697 1667.26,-413.27 1671.92,-404.997"/>
<polygon fill="grey" stroke="grey" stroke-width="2" points="1675.04,-406.59 1677.19,-396.216 1669.04,-402.986 1675.04,-406.59"/>
</g>
<!-- 33 -->
<g id="node34" class="node"><title>33</title>
<path fill="none" stroke="#d6d856" stroke-width="2" d="M1589.5,-620C1589.5,-620 1509.5,-620 1509.5,-620 1503.5,-620 1497.5,-614 1497.5,-608 1497.5,-608 1497.5,-596 1497.5,-596 1497.5,-590 1503.5,-584 1509.5,-584 1509.5,-584 1589.5,-584 1589.5,-584 1595.5,-584 1601.5,-590 1601.5,-596 1601.5,-596 1601.5,-608 1601.5,-608 1601.5,-614 1595.5,-620 1589.5,-620"/>
<text text-anchor="middle" x="1549.5" y="-605" font-family="sans" font-size="10.00">create_gff</text>
<text text-anchor="middle" x="1549.5" y="-594" font-family="sans" font-size="10.00">annotator: prokka</text>
</g>
<!-- 33&#45;&gt;15 -->
<g id="edge34" class="edge"><title>33&#45;&gt;15</title>
<path fill="none" stroke="grey" stroke-width="2" d="M1554.16,-583.689C1556.83,-573.793 1560.22,-561.164 1563.23,-549.993"/>
<polygon fill="grey" stroke="grey" stroke-width="2" points="1566.63,-550.828 1565.85,-540.262 1559.87,-549.009 1566.63,-550.828"/>
</g>
<!-- 33&#45;&gt;65 -->
<g id="edge101" class="edge"><title>33&#45;&gt;65</title>
<path fill="none" stroke="grey" stroke-width="2" d="M1536.26,-583.883C1522.61,-563.982 1505.05,-530.484 1518.5,-504 1543.37,-455.024 1597.43,-420.646 1638.15,-400.504"/>
<polygon fill="grey" stroke="grey" stroke-width="2" points="1639.91,-403.542 1647.4,-396.056 1636.88,-397.233 1639.91,-403.542"/>
</g>
<!-- 34 -->
<g id="node35" class="node"><title>34</title>
<path fill="none" stroke="#d6d856" stroke-width="2" d="M1880.5,-620C1880.5,-620 1800.5,-620 1800.5,-620 1794.5,-620 1788.5,-614 1788.5,-608 1788.5,-608 1788.5,-596 1788.5,-596 1788.5,-590 1794.5,-584 1800.5,-584 1800.5,-584 1880.5,-584 1880.5,-584 1886.5,-584 1892.5,-590 1892.5,-596 1892.5,-596 1892.5,-608 1892.5,-608 1892.5,-614 1886.5,-620 1880.5,-620"/>
<text text-anchor="middle" x="1840.5" y="-605" font-family="sans" font-size="10.00">create_gff</text>
<text text-anchor="middle" x="1840.5" y="-594" font-family="sans" font-size="10.00">annotator: prokka</text>
</g>
<!-- 34&#45;&gt;16 -->
<g id="edge35" class="edge"><title>34&#45;&gt;16</title>
<path fill="none" stroke="grey" stroke-width="2" d="M1834.95,-583.689C1831.78,-573.793 1827.73,-561.164 1824.15,-549.993"/>
<polygon fill="grey" stroke="grey" stroke-width="2" points="1827.42,-548.717 1821.03,-540.262 1820.75,-550.853 1827.42,-548.717"/>
</g>
<!-- 34&#45;&gt;65 -->
<g id="edge99" class="edge"><title>34&#45;&gt;65</title>
<path fill="none" stroke="grey" stroke-width="2" d="M1851.18,-583.674C1861.83,-564.148 1875.4,-531.538 1866.5,-504 1854.36,-466.442 1845.36,-456.61 1814.5,-432 1795.48,-416.83 1771.47,-405.277 1749.59,-396.89"/>
<polygon fill="grey" stroke="grey" stroke-width="2" points="1750.64,-393.545 1740.04,-393.373 1748.22,-400.113 1750.64,-393.545"/>
</g>
<!-- 35 -->
<g id="node36" class="node"><title>35</title>
<path fill="none" stroke="#c6d856" stroke-width="2" d="M944,-324C944,-324 813,-324 813,-324 807,-324 801,-318 801,-312 801,-312 801,-300 801,-300 801,-294 807,-288 813,-288 813,-288 944,-288 944,-288 950,-288 956,-294 956,-300 956,-300 956,-312 956,-312 956,-318 950,-324 944,-324"/>
<text text-anchor="middle" x="878.5" y="-303.5" font-family="sans" font-size="10.00">create_consensus_sequence</text>
</g>
<!-- 35&#45;&gt;17 -->
<g id="edge36" class="edge"><title>35&#45;&gt;17</title>
<path fill="none" stroke="grey" stroke-width="2" d="M878.5,-287.697C878.5,-279.983 878.5,-270.712 878.5,-262.112"/>
<polygon fill="grey" stroke="grey" stroke-width="2" points="882,-262.104 878.5,-252.104 875,-262.104 882,-262.104"/>
</g>
<!-- 36 -->
<g id="node37" class="node"><title>36</title>
<path fill="none" stroke="#c6d856" stroke-width="2" d="M640,-324C640,-324 509,-324 509,-324 503,-324 497,-318 497,-312 497,-312 497,-300 497,-300 497,-294 503,-288 509,-288 509,-288 640,-288 640,-288 646,-288 652,-294 652,-300 652,-300 652,-312 652,-312 652,-318 646,-324 640,-324"/>
<text text-anchor="middle" x="574.5" y="-303.5" font-family="sans" font-size="10.00">create_consensus_sequence</text>
</g>
<!-- 36&#45;&gt;17 -->
<g id="edge37" class="edge"><title>36&#45;&gt;17</title>
<path fill="none" stroke="grey" stroke-width="2" d="M648.478,-287.966C692.851,-277.748 749.394,-264.728 795.316,-254.154"/>
<polygon fill="grey" stroke="grey" stroke-width="2" points="796.284,-257.523 805.244,-251.868 794.713,-250.701 796.284,-257.523"/>
</g>
<!-- 37 -->
<g id="node38" class="node"><title>37</title>
<path fill="none" stroke="#c6d856" stroke-width="2" d="M351,-324C351,-324 220,-324 220,-324 214,-324 208,-318 208,-312 208,-312 208,-300 208,-300 208,-294 214,-288 220,-288 220,-288 351,-288 351,-288 357,-288 363,-294 363,-300 363,-300 363,-312 363,-312 363,-318 357,-324 351,-324"/>
<text text-anchor="middle" x="285.5" y="-303.5" font-family="sans" font-size="10.00">create_consensus_sequence</text>
</g>
<!-- 37&#45;&gt;17 -->
<g id="edge38" class="edge"><title>37&#45;&gt;17</title>
<path fill="none" stroke="grey" stroke-width="2" d="M363.125,-293.981C378.795,-291.887 395.164,-289.792 410.5,-288 573.725,-268.924 615.614,-273.785 778.5,-252 783.955,-251.27 789.568,-250.466 795.219,-249.615"/>
<polygon fill="grey" stroke="grey" stroke-width="2" points="796.059,-253.027 805.408,-248.04 794.99,-246.109 796.059,-253.027"/>
</g>
<!-- 38 -->
<g id="node39" class="node"><title>38</title>
<path fill="none" stroke="#c6d856" stroke-width="2" d="M1233,-324C1233,-324 1102,-324 1102,-324 1096,-324 1090,-318 1090,-312 1090,-312 1090,-300 1090,-300 1090,-294 1096,-288 1102,-288 1102,-288 1233,-288 1233,-288 1239,-288 1245,-294 1245,-300 1245,-300 1245,-312 1245,-312 1245,-318 1239,-324 1233,-324"/>
<text text-anchor="middle" x="1167.5" y="-303.5" font-family="sans" font-size="10.00">create_consensus_sequence</text>
</g>
<!-- 38&#45;&gt;17 -->
<g id="edge39" class="edge"><title>38&#45;&gt;17</title>
<path fill="none" stroke="grey" stroke-width="2" d="M1097.17,-287.966C1055.4,-277.847 1002.28,-264.981 958.853,-254.463"/>
<polygon fill="grey" stroke="grey" stroke-width="2" points="959.435,-251.003 948.892,-252.05 957.787,-257.806 959.435,-251.003"/>
</g>
<!-- 39 -->
<g id="node40" class="node"><title>39</title>
<path fill="none" stroke="#5663d8" stroke-width="2" d="M1459.5,-540C1459.5,-540 1395.5,-540 1395.5,-540 1389.5,-540 1383.5,-534 1383.5,-528 1383.5,-528 1383.5,-516 1383.5,-516 1383.5,-510 1389.5,-504 1395.5,-504 1395.5,-504 1459.5,-504 1459.5,-504 1465.5,-504 1471.5,-510 1471.5,-516 1471.5,-516 1471.5,-528 1471.5,-528 1471.5,-534 1465.5,-540 1459.5,-540"/>
<text text-anchor="middle" x="1427.5" y="-525" font-family="sans" font-size="10.00">convert_to_sin</text>
<text text-anchor="middle" x="1427.5" y="-514" font-family="sans" font-size="10.00">TMP_D: tmp</text>
</g>
<!-- 39&#45;&gt;18 -->
<g id="edge40" class="edge"><title>39&#45;&gt;18</title>
<path fill="none" stroke="grey" stroke-width="2" d="M1427.5,-503.697C1427.5,-495.983 1427.5,-486.712 1427.5,-478.112"/>
<polygon fill="grey" stroke="grey" stroke-width="2" points="1431,-478.104 1427.5,-468.104 1424,-478.104 1431,-478.104"/>
</g>
<!-- 40 -->
<g id="node41" class="node"><title>40</title>
<path fill="none" stroke="#5663d8" stroke-width="2" d="M1129.5,-540C1129.5,-540 1065.5,-540 1065.5,-540 1059.5,-540 1053.5,-534 1053.5,-528 1053.5,-528 1053.5,-516 1053.5,-516 1053.5,-510 1059.5,-504 1065.5,-504 1065.5,-504 1129.5,-504 1129.5,-504 1135.5,-504 1141.5,-510 1141.5,-516 1141.5,-516 1141.5,-528 1141.5,-528 1141.5,-534 1135.5,-540 1129.5,-540"/>
<text text-anchor="middle" x="1097.5" y="-525" font-family="sans" font-size="10.00">convert_to_sin</text>
<text text-anchor="middle" x="1097.5" y="-514" font-family="sans" font-size="10.00">TMP_D: tmp</text>
</g>
<!-- 40&#45;&gt;19 -->
<g id="edge41" class="edge"><title>40&#45;&gt;19</title>
<path fill="none" stroke="grey" stroke-width="2" d="M1107.88,-503.697C1112.76,-495.559 1118.69,-485.689 1124.08,-476.701"/>
<polygon fill="grey" stroke="grey" stroke-width="2" points="1127.09,-478.48 1129.24,-468.104 1121.09,-474.879 1127.09,-478.48"/>
</g>
<!-- 41 -->
<g id="node42" class="node"><title>41</title>
<path fill="none" stroke="#5663d8" stroke-width="2" d="M1242.5,-540C1242.5,-540 1178.5,-540 1178.5,-540 1172.5,-540 1166.5,-534 1166.5,-528 1166.5,-528 1166.5,-516 1166.5,-516 1166.5,-510 1172.5,-504 1178.5,-504 1178.5,-504 1242.5,-504 1242.5,-504 1248.5,-504 1254.5,-510 1254.5,-516 1254.5,-516 1254.5,-528 1254.5,-528 1254.5,-534 1248.5,-540 1242.5,-540"/>
<text text-anchor="middle" x="1210.5" y="-525" font-family="sans" font-size="10.00">convert_to_sin</text>
<text text-anchor="middle" x="1210.5" y="-514" font-family="sans" font-size="10.00">TMP_D: tmp</text>
</g>
<!-- 41&#45;&gt;20 -->
<g id="edge42" class="edge"><title>41&#45;&gt;20</title>
<path fill="none" stroke="grey" stroke-width="2" d="M1216.68,-503.697C1219.5,-495.813 1222.89,-486.304 1226.02,-477.546"/>
<polygon fill="grey" stroke="grey" stroke-width="2" points="1229.32,-478.699 1229.39,-468.104 1222.73,-476.345 1229.32,-478.699"/>
</g>
<!-- 42 -->
<g id="node43" class="node"><title>42</title>
<path fill="none" stroke="#5663d8" stroke-width="2" d="M1353.5,-540C1353.5,-540 1289.5,-540 1289.5,-540 1283.5,-540 1277.5,-534 1277.5,-528 1277.5,-528 1277.5,-516 1277.5,-516 1277.5,-510 1283.5,-504 1289.5,-504 1289.5,-504 1353.5,-504 1353.5,-504 1359.5,-504 1365.5,-510 1365.5,-516 1365.5,-516 1365.5,-528 1365.5,-528 1365.5,-534 1359.5,-540 1353.5,-540"/>
<text text-anchor="middle" x="1321.5" y="-525" font-family="sans" font-size="10.00">convert_to_sin</text>
<text text-anchor="middle" x="1321.5" y="-514" font-family="sans" font-size="10.00">TMP_D: tmp</text>
</g>
<!-- 42&#45;&gt;21 -->
<g id="edge43" class="edge"><title>42&#45;&gt;21</title>
<path fill="none" stroke="grey" stroke-width="2" d="M1323.97,-503.697C1325.07,-495.983 1326.4,-486.712 1327.63,-478.112"/>
<polygon fill="grey" stroke="grey" stroke-width="2" points="1331.11,-478.499 1329.06,-468.104 1324.18,-477.509 1331.11,-478.499"/>
</g>
<!-- 43 -->
<g id="node44" class="node"><title>43</title>
<path fill="none" stroke="#5682d8" stroke-width="2" stroke-dasharray="1,5" d="M1729,-324C1729,-324 1640,-324 1640,-324 1634,-324 1628,-318 1628,-312 1628,-312 1628,-300 1628,-300 1628,-294 1634,-288 1640,-288 1640,-288 1729,-288 1729,-288 1735,-288 1741,-294 1741,-300 1741,-300 1741,-312 1741,-312 1741,-318 1735,-324 1729,-324"/>
<text text-anchor="middle" x="1684.5" y="-303.5" font-family="sans" font-size="10.00">aln_to_vcf_per_fam</text>
</g>
<!-- 43&#45;&gt;22 -->
<g id="edge44" class="edge"><title>43&#45;&gt;22</title>
<path fill="none" stroke="grey" stroke-width="2" d="M1677.33,-287.697C1674.07,-279.813 1670.13,-270.304 1666.5,-261.546"/>
<polygon fill="grey" stroke="grey" stroke-width="2" points="1669.65,-260.003 1662.59,-252.104 1663.18,-262.683 1669.65,-260.003"/>
</g>
<!-- 44 -->
<g id="node45" class="node"><title>44</title>
<path fill="none" stroke="#56b1d8" stroke-width="2" d="M101.5,-396C101.5,-396 59.5,-396 59.5,-396 53.5,-396 47.5,-390 47.5,-384 47.5,-384 47.5,-372 47.5,-372 47.5,-366 53.5,-360 59.5,-360 59.5,-360 101.5,-360 101.5,-360 107.5,-360 113.5,-366 113.5,-372 113.5,-372 113.5,-384 113.5,-384 113.5,-390 107.5,-396 101.5,-396"/>
<text text-anchor="middle" x="80.5" y="-375.5" font-family="sans" font-size="10.00">count_cov</text>
</g>
<!-- 44&#45;&gt;23 -->
<g id="edge45" class="edge"><title>44&#45;&gt;23</title>
<path fill="none" stroke="grey" stroke-width="2" d="M74.5674,-359.697C71.8936,-351.898 68.6744,-342.509 65.6986,-333.829"/>
<polygon fill="grey" stroke="grey" stroke-width="2" points="68.9185,-332.429 62.3643,-324.104 62.2968,-334.699 68.9185,-332.429"/>
</g>
<!-- 45 -->
<g id="node46" class="node"><title>45</title>
<path fill="none" stroke="#d88556" stroke-width="2" d="M884.5,-468C884.5,-468 840.5,-468 840.5,-468 834.5,-468 828.5,-462 828.5,-456 828.5,-456 828.5,-444 828.5,-444 828.5,-438 834.5,-432 840.5,-432 840.5,-432 884.5,-432 884.5,-432 890.5,-432 896.5,-438 896.5,-444 896.5,-444 896.5,-456 896.5,-456 896.5,-462 890.5,-468 884.5,-468"/>
<text text-anchor="middle" x="862.5" y="-447.5" font-family="sans" font-size="10.00">create_vcf</text>
</g>
<!-- 45&#45;&gt;24 -->
<g id="edge46" class="edge"><title>45&#45;&gt;24</title>
<path fill="none" stroke="grey" stroke-width="2" d="M896.928,-435.731C916.559,-426.821 940.549,-413.499 957.5,-396 974.631,-378.315 986.881,-352.975 994.411,-333.853"/>
<polygon fill="grey" stroke="grey" stroke-width="2" points="997.787,-334.819 998.014,-324.226 991.231,-332.365 997.787,-334.819"/>
</g>
<!-- 45&#45;&gt;35 -->
<g id="edge61" class="edge"><title>45&#45;&gt;35</title>
<path fill="none" stroke="grey" stroke-width="2" d="M864.43,-431.871C867.157,-407.67 872.166,-363.211 875.413,-334.393"/>
<polygon fill="grey" stroke="grey" stroke-width="2" points="878.921,-334.518 876.563,-324.189 871.965,-333.734 878.921,-334.518"/>
</g>
<!-- 46 -->
<g id="node47" class="node"><title>46</title>
<path fill="none" stroke="#d8ac56" stroke-width="2" d="M936.5,-396C936.5,-396 896.5,-396 896.5,-396 890.5,-396 884.5,-390 884.5,-384 884.5,-384 884.5,-372 884.5,-372 884.5,-366 890.5,-360 896.5,-360 896.5,-360 936.5,-360 936.5,-360 942.5,-360 948.5,-366 948.5,-372 948.5,-372 948.5,-384 948.5,-384 948.5,-390 942.5,-396 936.5,-396"/>
<text text-anchor="middle" x="916.5" y="-375.5" font-family="sans" font-size="10.00">index_vcf</text>
</g>
<!-- 45&#45;&gt;46 -->
<g id="edge81" class="edge"><title>45&#45;&gt;46</title>
<path fill="none" stroke="grey" stroke-width="2" d="M875.848,-431.697C882.257,-423.389 890.058,-413.277 897.106,-404.141"/>
<polygon fill="grey" stroke="grey" stroke-width="2" points="899.968,-406.16 903.305,-396.104 894.426,-401.884 899.968,-406.16"/>
</g>
<!-- 46&#45;&gt;24 -->
<g id="edge47" class="edge"><title>46&#45;&gt;24</title>
<path fill="none" stroke="grey" stroke-width="2" d="M938.006,-359.697C948.963,-350.881 962.446,-340.032 974.325,-330.474"/>
<polygon fill="grey" stroke="grey" stroke-width="2" points="976.645,-333.1 982.242,-324.104 972.256,-327.646 976.645,-333.1"/>
</g>
<!-- 46&#45;&gt;35 -->
<g id="edge62" class="edge"><title>46&#45;&gt;35</title>
<path fill="none" stroke="grey" stroke-width="2" d="M907.107,-359.697C902.735,-351.644 897.443,-341.894 892.605,-332.982"/>
<polygon fill="grey" stroke="grey" stroke-width="2" points="895.632,-331.223 887.785,-324.104 889.48,-334.563 895.632,-331.223"/>
</g>
<!-- 47 -->
<g id="node48" class="node"><title>47</title>
<path fill="none" stroke="#56b1d8" stroke-width="2" d="M449.5,-468C449.5,-468 407.5,-468 407.5,-468 401.5,-468 395.5,-462 395.5,-456 395.5,-456 395.5,-444 395.5,-444 395.5,-438 401.5,-432 407.5,-432 407.5,-432 449.5,-432 449.5,-432 455.5,-432 461.5,-438 461.5,-444 461.5,-444 461.5,-456 461.5,-456 461.5,-462 455.5,-468 449.5,-468"/>
<text text-anchor="middle" x="428.5" y="-447.5" font-family="sans" font-size="10.00">count_cov</text>
</g>
<!-- 47&#45;&gt;25 -->
<g id="edge48" class="edge"><title>47&#45;&gt;25</title>
<path fill="none" stroke="grey" stroke-width="2" d="M419.354,-431.697C415.097,-423.644 409.944,-413.894 405.234,-404.982"/>
<polygon fill="grey" stroke="grey" stroke-width="2" points="408.308,-403.31 400.541,-396.104 402.12,-406.581 408.308,-403.31"/>
</g>
<!-- 48 -->
<g id="node49" class="node"><title>48</title>
<path fill="none" stroke="#d8ac56" stroke-width="2" d="M1226.5,-396C1226.5,-396 1186.5,-396 1186.5,-396 1180.5,-396 1174.5,-390 1174.5,-384 1174.5,-384 1174.5,-372 1174.5,-372 1174.5,-366 1180.5,-360 1186.5,-360 1186.5,-360 1226.5,-360 1226.5,-360 1232.5,-360 1238.5,-366 1238.5,-372 1238.5,-372 1238.5,-384 1238.5,-384 1238.5,-390 1232.5,-396 1226.5,-396"/>
<text text-anchor="middle" x="1206.5" y="-375.5" font-family="sans" font-size="10.00">index_vcf</text>
</g>
<!-- 48&#45;&gt;26 -->
<g id="edge49" class="edge"><title>48&#45;&gt;26</title>
<path fill="none" stroke="grey" stroke-width="2" d="M1227.76,-359.697C1238.59,-350.881 1251.92,-340.032 1263.66,-330.474"/>
<polygon fill="grey" stroke="grey" stroke-width="2" points="1265.94,-333.132 1271.49,-324.104 1261.52,-327.703 1265.94,-333.132"/>
</g>
<!-- 48&#45;&gt;38 -->
<g id="edge71" class="edge"><title>48&#45;&gt;38</title>
<path fill="none" stroke="grey" stroke-width="2" d="M1196.86,-359.697C1192.37,-351.644 1186.94,-341.894 1181.98,-332.982"/>
<polygon fill="grey" stroke="grey" stroke-width="2" points="1184.95,-331.137 1177.03,-324.104 1178.84,-334.544 1184.95,-331.137"/>
</g>
<!-- 49 -->
<g id="node50" class="node"><title>49</title>
<path fill="none" stroke="#d88556" stroke-width="2" d="M1070.5,-468C1070.5,-468 1026.5,-468 1026.5,-468 1020.5,-468 1014.5,-462 1014.5,-456 1014.5,-456 1014.5,-444 1014.5,-444 1014.5,-438 1020.5,-432 1026.5,-432 1026.5,-432 1070.5,-432 1070.5,-432 1076.5,-432 1082.5,-438 1082.5,-444 1082.5,-444 1082.5,-456 1082.5,-456 1082.5,-462 1076.5,-468 1070.5,-468"/>
<text text-anchor="middle" x="1048.5" y="-447.5" font-family="sans" font-size="10.00">create_vcf</text>
</g>
<!-- 49&#45;&gt;26 -->
<g id="edge50" class="edge"><title>49&#45;&gt;26</title>
<path fill="none" stroke="grey" stroke-width="2" d="M1082.6,-434.984C1085.59,-433.918 1088.59,-432.906 1091.5,-432 1159.44,-410.86 1191.49,-439.892 1247.5,-396 1267.23,-380.539 1279.03,-354.103 1285.57,-334.05"/>
<polygon fill="grey" stroke="grey" stroke-width="2" points="1288.99,-334.821 1288.52,-324.237 1282.29,-332.805 1288.99,-334.821"/>
</g>
<!-- 49&#45;&gt;38 -->
<g id="edge72" class="edge"><title>49&#45;&gt;38</title>
<path fill="none" stroke="grey" stroke-width="2" d="M1081.95,-431.786C1097.06,-422.731 1114.22,-410.491 1126.5,-396 1141.97,-377.735 1152.82,-352.66 1159.46,-333.78"/>
<polygon fill="grey" stroke="grey" stroke-width="2" points="1162.78,-334.87 1162.63,-324.276 1156.14,-332.654 1162.78,-334.87"/>
</g>
<!-- 49&#45;&gt;48 -->
<g id="edge83" class="edge"><title>49&#45;&gt;48</title>
<path fill="none" stroke="grey" stroke-width="2" d="M1082.78,-433.811C1106.93,-423.115 1139.38,-408.737 1164.99,-397.391"/>
<polygon fill="grey" stroke="grey" stroke-width="2" points="1166.71,-400.456 1174.44,-393.205 1163.88,-394.056 1166.71,-400.456"/>
</g>
<!-- 50 -->
<g id="node51" class="node"><title>50</title>
<path fill="none" stroke="#d8ac56" stroke-width="2" d="M245.5,-396C245.5,-396 205.5,-396 205.5,-396 199.5,-396 193.5,-390 193.5,-384 193.5,-384 193.5,-372 193.5,-372 193.5,-366 199.5,-360 205.5,-360 205.5,-360 245.5,-360 245.5,-360 251.5,-360 257.5,-366 257.5,-372 257.5,-372 257.5,-384 257.5,-384 257.5,-390 251.5,-396 245.5,-396"/>
<text text-anchor="middle" x="225.5" y="-375.5" font-family="sans" font-size="10.00">index_vcf</text>
</g>
<!-- 50&#45;&gt;27 -->
<g id="edge51" class="edge"><title>50&#45;&gt;27</title>
<path fill="none" stroke="grey" stroke-width="2" d="M209.433,-359.697C201.561,-351.22 191.945,-340.864 183.327,-331.583"/>
<polygon fill="grey" stroke="grey" stroke-width="2" points="185.752,-329.051 176.383,-324.104 180.622,-333.814 185.752,-329.051"/>
</g>
<!-- 50&#45;&gt;37 -->
<g id="edge68" class="edge"><title>50&#45;&gt;37</title>
<path fill="none" stroke="grey" stroke-width="2" d="M240.331,-359.697C247.525,-351.305 256.297,-341.07 264.19,-331.861"/>
<polygon fill="grey" stroke="grey" stroke-width="2" points="266.989,-333.975 270.839,-324.104 261.674,-329.419 266.989,-333.975"/>
</g>
<!-- 51 -->
<g id="node52" class="node"><title>51</title>
<path fill="none" stroke="#d88556" stroke-width="2" d="M277.5,-468C277.5,-468 233.5,-468 233.5,-468 227.5,-468 221.5,-462 221.5,-456 221.5,-456 221.5,-444 221.5,-444 221.5,-438 227.5,-432 233.5,-432 233.5,-432 277.5,-432 277.5,-432 283.5,-432 289.5,-438 289.5,-444 289.5,-444 289.5,-456 289.5,-456 289.5,-462 283.5,-468 277.5,-468"/>
<text text-anchor="middle" x="255.5" y="-447.5" font-family="sans" font-size="10.00">create_vcf</text>
</g>
<!-- 51&#45;&gt;27 -->
<g id="edge52" class="edge"><title>51&#45;&gt;27</title>
<path fill="none" stroke="grey" stroke-width="2" d="M223.653,-431.796C209.773,-422.816 194.437,-410.635 184.5,-396 171.967,-377.542 165.967,-352.793 163.101,-334.079"/>
<polygon fill="grey" stroke="grey" stroke-width="2" points="166.564,-333.57 161.78,-324.116 159.625,-334.49 166.564,-333.57"/>
</g>
<!-- 51&#45;&gt;37 -->
<g id="edge69" class="edge"><title>51&#45;&gt;37</title>
<path fill="none" stroke="grey" stroke-width="2" d="M259.119,-431.871C264.254,-407.564 273.707,-362.819 279.793,-334.013"/>
<polygon fill="grey" stroke="grey" stroke-width="2" points="283.226,-334.697 281.868,-324.189 276.377,-333.25 283.226,-334.697"/>
</g>
<!-- 51&#45;&gt;50 -->
<g id="edge86" class="edge"><title>51&#45;&gt;50</title>
<path fill="none" stroke="grey" stroke-width="2" d="M248.084,-431.697C244.706,-423.813 240.63,-414.304 236.877,-405.546"/>
<polygon fill="grey" stroke="grey" stroke-width="2" points="239.987,-403.917 232.83,-396.104 233.553,-406.675 239.987,-403.917"/>
</g>
<!-- 52 -->
<g id="node53" class="node"><title>52</title>
<path fill="none" stroke="#d88556" stroke-width="2" d="M573.5,-468C573.5,-468 529.5,-468 529.5,-468 523.5,-468 517.5,-462 517.5,-456 517.5,-456 517.5,-444 517.5,-444 517.5,-438 523.5,-432 529.5,-432 529.5,-432 573.5,-432 573.5,-432 579.5,-432 585.5,-438 585.5,-444 585.5,-444 585.5,-456 585.5,-456 585.5,-462 579.5,-468 573.5,-468"/>
<text text-anchor="middle" x="551.5" y="-447.5" font-family="sans" font-size="10.00">create_vcf</text>
</g>
<!-- 52&#45;&gt;28 -->
<g id="edge53" class="edge"><title>52&#45;&gt;28</title>
<path fill="none" stroke="grey" stroke-width="2" d="M530.147,-431.838C518.929,-422.114 505.479,-409.264 495.5,-396 480.875,-376.56 468.5,-351.796 460.282,-333.329"/>
<polygon fill="grey" stroke="grey" stroke-width="2" points="463.45,-331.836 456.265,-324.049 457.026,-334.616 463.45,-331.836"/>
</g>
<!-- 52&#45;&gt;36 -->
<g id="edge65" class="edge"><title>52&#45;&gt;36</title>
<path fill="none" stroke="grey" stroke-width="2" d="M562.546,-431.611C568.237,-421.615 574.581,-408.579 577.5,-396 582.211,-375.701 581.129,-352.105 579.049,-334.311"/>
<polygon fill="grey" stroke="grey" stroke-width="2" points="582.507,-333.763 577.707,-324.318 575.569,-334.695 582.507,-333.763"/>
</g>
<!-- 53 -->
<g id="node54" class="node"><title>53</title>
<path fill="none" stroke="#d8ac56" stroke-width="2" d="M556.5,-396C556.5,-396 516.5,-396 516.5,-396 510.5,-396 504.5,-390 504.5,-384 504.5,-384 504.5,-372 504.5,-372 504.5,-366 510.5,-360 516.5,-360 516.5,-360 556.5,-360 556.5,-360 562.5,-360 568.5,-366 568.5,-372 568.5,-372 568.5,-384 568.5,-384 568.5,-390 562.5,-396 556.5,-396"/>
<text text-anchor="middle" x="536.5" y="-375.5" font-family="sans" font-size="10.00">index_vcf</text>
</g>
<!-- 52&#45;&gt;53 -->
<g id="edge91" class="edge"><title>52&#45;&gt;53</title>
<path fill="none" stroke="grey" stroke-width="2" d="M547.792,-431.697C546.139,-423.983 544.153,-414.712 542.31,-406.112"/>
<polygon fill="grey" stroke="grey" stroke-width="2" points="545.683,-405.149 540.165,-396.104 538.838,-406.616 545.683,-405.149"/>
</g>
<!-- 53&#45;&gt;28 -->
<g id="edge54" class="edge"><title>53&#45;&gt;28</title>
<path fill="none" stroke="grey" stroke-width="2" d="M514.994,-359.697C504.037,-350.881 490.554,-340.032 478.675,-330.474"/>
<polygon fill="grey" stroke="grey" stroke-width="2" points="480.744,-327.646 470.758,-324.104 476.355,-333.1 480.744,-327.646"/>
</g>
<!-- 53&#45;&gt;36 -->
<g id="edge64" class="edge"><title>53&#45;&gt;36</title>
<path fill="none" stroke="grey" stroke-width="2" d="M545.893,-359.697C550.265,-351.644 555.557,-341.894 560.395,-332.982"/>
<polygon fill="grey" stroke="grey" stroke-width="2" points="563.52,-334.563 565.215,-324.104 557.368,-331.223 563.52,-334.563"/>
</g>
<!-- 54 -->
<g id="node55" class="node"><title>54</title>
<path fill="none" stroke="#56b1d8" stroke-width="2" d="M980.5,-468C980.5,-468 938.5,-468 938.5,-468 932.5,-468 926.5,-462 926.5,-456 926.5,-456 926.5,-444 926.5,-444 926.5,-438 932.5,-432 938.5,-432 938.5,-432 980.5,-432 980.5,-432 986.5,-432 992.5,-438 992.5,-444 992.5,-444 992.5,-456 992.5,-456 992.5,-462 986.5,-468 980.5,-468"/>
<text text-anchor="middle" x="959.5" y="-447.5" font-family="sans" font-size="10.00">count_cov</text>
</g>
<!-- 54&#45;&gt;29 -->
<g id="edge55" class="edge"><title>54&#45;&gt;29</title>
<path fill="none" stroke="grey" stroke-width="2" d="M984.452,-431.876C997.542,-422.893 1013.76,-411.763 1027.94,-402.034"/>
<polygon fill="grey" stroke="grey" stroke-width="2" points="1030.19,-404.734 1036.45,-396.19 1026.23,-398.962 1030.19,-404.734"/>
</g>
<!-- 55 -->
<g id="node56" class="node"><title>55</title>
<path fill="none" stroke="#56b1d8" stroke-width="2" d="M745.5,-468C745.5,-468 703.5,-468 703.5,-468 697.5,-468 691.5,-462 691.5,-456 691.5,-456 691.5,-444 691.5,-444 691.5,-438 697.5,-432 703.5,-432 703.5,-432 745.5,-432 745.5,-432 751.5,-432 757.5,-438 757.5,-444 757.5,-444 757.5,-456 757.5,-456 757.5,-462 751.5,-468 745.5,-468"/>
<text text-anchor="middle" x="724.5" y="-447.5" font-family="sans" font-size="10.00">count_cov</text>
</g>
<!-- 55&#45;&gt;30 -->
<g id="edge56" class="edge"><title>55&#45;&gt;30</title>
<path fill="none" stroke="grey" stroke-width="2" d="M710.173,-431.566C703.052,-421.762 695.194,-408.923 691.5,-396 687.102,-380.616 686.897,-375.324 691.5,-360 694.42,-350.281 699.763,-340.7 705.411,-332.415"/>
<polygon fill="grey" stroke="grey" stroke-width="2" points="708.264,-334.442 711.317,-324.297 702.604,-330.324 708.264,-334.442"/>
</g>
<!-- 56 -->
<g id="node57" class="node"><title>56</title>
<path fill="none" stroke="#56d8d8" stroke-width="2" d="M2034.5,-716C2034.5,-716 1950.5,-716 1950.5,-716 1944.5,-716 1938.5,-710 1938.5,-704 1938.5,-704 1938.5,-676 1938.5,-676 1938.5,-670 1944.5,-664 1950.5,-664 1950.5,-664 2034.5,-664 2034.5,-664 2040.5,-664 2046.5,-670 2046.5,-676 2046.5,-676 2046.5,-704 2046.5,-704 2046.5,-710 2040.5,-716 2034.5,-716"/>
<text text-anchor="middle" x="1992.5" y="-704" font-family="sans" font-size="10.00">create_assembly</text>
<text text-anchor="middle" x="1992.5" y="-693" font-family="sans" font-size="10.00">TMP_D: tmp</text>
<text text-anchor="middle" x="1992.5" y="-682" font-family="sans" font-size="10.00">assembler: spades</text>
<text text-anchor="middle" x="1992.5" y="-671" font-family="sans" font-size="10.00">strain: CH2522</text>
</g>
<!-- 56&#45;&gt;31 -->
<g id="edge57" class="edge"><title>56&#45;&gt;31</title>
<path fill="none" stroke="grey" stroke-width="2" d="M1992.5,-663.662C1992.5,-653.109 1992.5,-640.837 1992.5,-630.104"/>
<polygon fill="grey" stroke="grey" stroke-width="2" points="1996,-630.004 1992.5,-620.004 1989,-630.004 1996,-630.004"/>
</g>
<!-- 57 -->
<g id="node58" class="node"><title>57</title>
<path fill="none" stroke="#56d8d8" stroke-width="2" d="M1726.5,-716C1726.5,-716 1642.5,-716 1642.5,-716 1636.5,-716 1630.5,-710 1630.5,-704 1630.5,-704 1630.5,-676 1630.5,-676 1630.5,-670 1636.5,-664 1642.5,-664 1642.5,-664 1726.5,-664 1726.5,-664 1732.5,-664 1738.5,-670 1738.5,-676 1738.5,-676 1738.5,-704 1738.5,-704 1738.5,-710 1732.5,-716 1726.5,-716"/>
<text text-anchor="middle" x="1684.5" y="-704" font-family="sans" font-size="10.00">create_assembly</text>
<text text-anchor="middle" x="1684.5" y="-693" font-family="sans" font-size="10.00">TMP_D: tmp</text>
<text text-anchor="middle" x="1684.5" y="-682" font-family="sans" font-size="10.00">assembler: spades</text>
<text text-anchor="middle" x="1684.5" y="-671" font-family="sans" font-size="10.00">strain: F1659</text>
</g>
<!-- 57&#45;&gt;32 -->
<g id="edge58" class="edge"><title>57&#45;&gt;32</title>
<path fill="none" stroke="grey" stroke-width="2" d="M1684.5,-663.662C1684.5,-653.109 1684.5,-640.837 1684.5,-630.104"/>
<polygon fill="grey" stroke="grey" stroke-width="2" points="1688,-630.004 1684.5,-620.004 1681,-630.004 1688,-630.004"/>
</g>
<!-- 58 -->
<g id="node59" class="node"><title>58</title>
<path fill="none" stroke="#56d8d8" stroke-width="2" d="M1591.5,-716C1591.5,-716 1507.5,-716 1507.5,-716 1501.5,-716 1495.5,-710 1495.5,-704 1495.5,-704 1495.5,-676 1495.5,-676 1495.5,-670 1501.5,-664 1507.5,-664 1507.5,-664 1591.5,-664 1591.5,-664 1597.5,-664 1603.5,-670 1603.5,-676 1603.5,-676 1603.5,-704 1603.5,-704 1603.5,-710 1597.5,-716 1591.5,-716"/>
<text text-anchor="middle" x="1549.5" y="-704" font-family="sans" font-size="10.00">create_assembly</text>
<text text-anchor="middle" x="1549.5" y="-693" font-family="sans" font-size="10.00">TMP_D: tmp</text>
<text text-anchor="middle" x="1549.5" y="-682" font-family="sans" font-size="10.00">assembler: spades</text>
<text text-anchor="middle" x="1549.5" y="-671" font-family="sans" font-size="10.00">strain: CH2500</text>
</g>
<!-- 58&#45;&gt;33 -->
<g id="edge59" class="edge"><title>58&#45;&gt;33</title>
<path fill="none" stroke="grey" stroke-width="2" d="M1549.5,-663.662C1549.5,-653.109 1549.5,-640.837 1549.5,-630.104"/>
<polygon fill="grey" stroke="grey" stroke-width="2" points="1553,-630.004 1549.5,-620.004 1546,-630.004 1553,-630.004"/>
</g>
<!-- 59 -->
<g id="node60" class="node"><title>59</title>
<path fill="none" stroke="#56d8d8" stroke-width="2" d="M1882.5,-716C1882.5,-716 1798.5,-716 1798.5,-716 1792.5,-716 1786.5,-710 1786.5,-704 1786.5,-704 1786.5,-676 1786.5,-676 1786.5,-670 1792.5,-664 1798.5,-664 1798.5,-664 1882.5,-664 1882.5,-664 1888.5,-664 1894.5,-670 1894.5,-676 1894.5,-676 1894.5,-704 1894.5,-704 1894.5,-710 1888.5,-716 1882.5,-716"/>
<text text-anchor="middle" x="1840.5" y="-704" font-family="sans" font-size="10.00">create_assembly</text>
<text text-anchor="middle" x="1840.5" y="-693" font-family="sans" font-size="10.00">TMP_D: tmp</text>
<text text-anchor="middle" x="1840.5" y="-682" font-family="sans" font-size="10.00">assembler: spades</text>
<text text-anchor="middle" x="1840.5" y="-671" font-family="sans" font-size="10.00">strain: CH2502</text>
</g>
<!-- 59&#45;&gt;34 -->
<g id="edge60" class="edge"><title>59&#45;&gt;34</title>
<path fill="none" stroke="grey" stroke-width="2" d="M1840.5,-663.662C1840.5,-653.109 1840.5,-640.837 1840.5,-630.104"/>
<polygon fill="grey" stroke="grey" stroke-width="2" points="1844,-630.004 1840.5,-620.004 1837,-630.004 1844,-630.004"/>
</g>
<!-- 60 -->
<g id="node61" class="node"><title>60</title>
<path fill="none" stroke="#5692d8" stroke-width="2" d="M816.5,-396C816.5,-396 712.5,-396 712.5,-396 706.5,-396 700.5,-390 700.5,-384 700.5,-384 700.5,-372 700.5,-372 700.5,-366 706.5,-360 712.5,-360 712.5,-360 816.5,-360 816.5,-360 822.5,-360 828.5,-366 828.5,-372 828.5,-372 828.5,-384 828.5,-384 828.5,-390 822.5,-396 816.5,-396"/>
<text text-anchor="middle" x="764.5" y="-381" font-family="sans" font-size="10.00">create_ref_target_seqs</text>
<text text-anchor="middle" x="764.5" y="-370" font-family="sans" font-size="10.00">TMP_D: tmp</text>
</g>
<!-- 60&#45;&gt;35 -->
<g id="edge63" class="edge"><title>60&#45;&gt;35</title>
<path fill="none" stroke="grey" stroke-width="2" d="M792.388,-359.876C807.293,-350.724 825.829,-339.342 841.882,-329.485"/>
<polygon fill="grey" stroke="grey" stroke-width="2" points="843.815,-332.405 850.505,-324.19 840.152,-326.44 843.815,-332.405"/>
</g>
<!-- 60&#45;&gt;36 -->
<g id="edge66" class="edge"><title>60&#45;&gt;36</title>
<path fill="none" stroke="grey" stroke-width="2" d="M718.021,-359.876C691.585,-350.137 658.297,-337.872 630.436,-327.608"/>
<polygon fill="grey" stroke="grey" stroke-width="2" points="631.422,-324.241 620.828,-324.068 629.002,-330.81 631.422,-324.241"/>
</g>
<!-- 60&#45;&gt;37 -->
<g id="edge67" class="edge"><title>60&#45;&gt;37</title>
<path fill="none" stroke="grey" stroke-width="2" d="M700.397,-367.632C616.154,-355.321 467.82,-333.644 373.221,-319.819"/>
<polygon fill="grey" stroke="grey" stroke-width="2" points="373.501,-316.323 363.1,-318.34 372.489,-323.25 373.501,-316.323"/>
</g>
<!-- 60&#45;&gt;38 -->
<g id="edge70" class="edge"><title>60&#45;&gt;38</title>
<path fill="none" stroke="grey" stroke-width="2" d="M828.802,-365.831C896.751,-354.028 1004.34,-335.34 1079.99,-322.201"/>
<polygon fill="grey" stroke="grey" stroke-width="2" points="1080.72,-325.625 1089.98,-320.465 1079.53,-318.728 1080.72,-325.625"/>
</g>
<!-- 61 -->
<g id="node62" class="node"><title>61</title>
<path fill="none" stroke="#d85656" stroke-width="2" d="M1463.5,-620C1463.5,-620 1399.5,-620 1399.5,-620 1393.5,-620 1387.5,-614 1387.5,-608 1387.5,-608 1387.5,-596 1387.5,-596 1387.5,-590 1393.5,-584 1399.5,-584 1399.5,-584 1463.5,-584 1463.5,-584 1469.5,-584 1475.5,-590 1475.5,-596 1475.5,-596 1475.5,-608 1475.5,-608 1475.5,-614 1469.5,-620 1463.5,-620"/>
<text text-anchor="middle" x="1431.5" y="-605" font-family="sans" font-size="10.00">rna_mapping</text>
<text text-anchor="middle" x="1431.5" y="-594" font-family="sans" font-size="10.00">sample: F1659</text>
</g>
<!-- 61&#45;&gt;39 -->
<g id="edge73" class="edge"><title>61&#45;&gt;39</title>
<path fill="none" stroke="grey" stroke-width="2" d="M1430.61,-583.689C1430.11,-573.894 1429.47,-561.422 1428.9,-550.335"/>
<polygon fill="grey" stroke="grey" stroke-width="2" points="1432.39,-550.07 1428.39,-540.262 1425.4,-550.428 1432.39,-550.07"/>
</g>
<!-- 62 -->
<g id="node63" class="node"><title>62</title>
<path fill="none" stroke="#d85656" stroke-width="2" d="M1128,-620C1128,-620 1055,-620 1055,-620 1049,-620 1043,-614 1043,-608 1043,-608 1043,-596 1043,-596 1043,-590 1049,-584 1055,-584 1055,-584 1128,-584 1128,-584 1134,-584 1140,-590 1140,-596 1140,-596 1140,-608 1140,-608 1140,-614 1134,-620 1128,-620"/>
<text text-anchor="middle" x="1091.5" y="-605" font-family="sans" font-size="10.00">rna_mapping</text>
<text text-anchor="middle" x="1091.5" y="-594" font-family="sans" font-size="10.00">sample: CH2500</text>
</g>
<!-- 62&#45;&gt;40 -->
<g id="edge74" class="edge"><title>62&#45;&gt;40</title>
<path fill="none" stroke="grey" stroke-width="2" d="M1092.83,-583.689C1093.59,-573.894 1094.54,-561.422 1095.4,-550.335"/>
<polygon fill="grey" stroke="grey" stroke-width="2" points="1098.89,-550.501 1096.17,-540.262 1091.92,-549.964 1098.89,-550.501"/>
</g>
<!-- 63 -->
<g id="node64" class="node"><title>63</title>
<path fill="none" stroke="#d85656" stroke-width="2" d="M1243,-620C1243,-620 1170,-620 1170,-620 1164,-620 1158,-614 1158,-608 1158,-608 1158,-596 1158,-596 1158,-590 1164,-584 1170,-584 1170,-584 1243,-584 1243,-584 1249,-584 1255,-590 1255,-596 1255,-596 1255,-608 1255,-608 1255,-614 1249,-620 1243,-620"/>
<text text-anchor="middle" x="1206.5" y="-605" font-family="sans" font-size="10.00">rna_mapping</text>
<text text-anchor="middle" x="1206.5" y="-594" font-family="sans" font-size="10.00">sample: CH2502</text>
</g>
<!-- 63&#45;&gt;41 -->
<g id="edge75" class="edge"><title>63&#45;&gt;41</title>
<path fill="none" stroke="grey" stroke-width="2" d="M1207.39,-583.689C1207.89,-573.894 1208.53,-561.422 1209.1,-550.335"/>
<polygon fill="grey" stroke="grey" stroke-width="2" points="1212.6,-550.428 1209.61,-540.262 1205.61,-550.07 1212.6,-550.428"/>
</g>
<!-- 64 -->
<g id="node65" class="node"><title>64</title>
<path fill="none" stroke="#d85656" stroke-width="2" d="M1358,-620C1358,-620 1285,-620 1285,-620 1279,-620 1273,-614 1273,-608 1273,-608 1273,-596 1273,-596 1273,-590 1279,-584 1285,-584 1285,-584 1358,-584 1358,-584 1364,-584 1370,-590 1370,-596 1370,-596 1370,-608 1370,-608 1370,-614 1364,-620 1358,-620"/>
<text text-anchor="middle" x="1321.5" y="-605" font-family="sans" font-size="10.00">rna_mapping</text>
<text text-anchor="middle" x="1321.5" y="-594" font-family="sans" font-size="10.00">sample: CH2522</text>
</g>
<!-- 64&#45;&gt;42 -->
<g id="edge76" class="edge"><title>64&#45;&gt;42</title>
<path fill="none" stroke="grey" stroke-width="2" d="M1321.5,-583.689C1321.5,-573.894 1321.5,-561.422 1321.5,-550.335"/>
<polygon fill="grey" stroke="grey" stroke-width="2" points="1325,-550.262 1321.5,-540.262 1318,-550.262 1325,-550.262"/>
</g>
<!-- 65&#45;&gt;43 -->
<g id="edge77" class="edge"><title>65&#45;&gt;43</title>
<path fill="none" stroke="grey" stroke-width="2" d="M1688.26,-359.697C1687.71,-351.983 1687.05,-342.712 1686.44,-334.112"/>
<polygon fill="grey" stroke="grey" stroke-width="2" points="1689.93,-333.83 1685.72,-324.104 1682.94,-334.328 1689.93,-333.83"/>
</g>
<!-- 66 -->
<g id="node67" class="node"><title>66</title>
<path fill="none" stroke="#56d85b" stroke-width="2" d="M274.5,-540C274.5,-540 236.5,-540 236.5,-540 230.5,-540 224.5,-534 224.5,-528 224.5,-528 224.5,-516 224.5,-516 224.5,-510 230.5,-504 236.5,-504 236.5,-504 274.5,-504 274.5,-504 280.5,-504 286.5,-510 286.5,-516 286.5,-516 286.5,-528 286.5,-528 286.5,-534 280.5,-540 274.5,-540"/>
<text text-anchor="middle" x="255.5" y="-519.5" font-family="sans" font-size="10.00">sort_bam</text>
</g>
<!-- 66&#45;&gt;44 -->
<g id="edge78" class="edge"><title>66&#45;&gt;44</title>
<path fill="none" stroke="grey" stroke-width="2" d="M234.391,-503.871C203.252,-478.604 144.898,-431.254 109.682,-402.679"/>
<polygon fill="grey" stroke="grey" stroke-width="2" points="111.655,-399.772 101.684,-396.189 107.244,-405.208 111.655,-399.772"/>
</g>
<!-- 66&#45;&gt;51 -->
<g id="edge87" class="edge"><title>66&#45;&gt;51</title>
<path fill="none" stroke="grey" stroke-width="2" d="M255.5,-503.697C255.5,-495.983 255.5,-486.712 255.5,-478.112"/>
<polygon fill="grey" stroke="grey" stroke-width="2" points="259,-478.104 255.5,-468.104 252,-478.104 259,-478.104"/>
</g>
<!-- 67 -->
<g id="node68" class="node"><title>67</title>
<path fill="none" stroke="#56d85b" stroke-width="2" d="M805.5,-540C805.5,-540 767.5,-540 767.5,-540 761.5,-540 755.5,-534 755.5,-528 755.5,-528 755.5,-516 755.5,-516 755.5,-510 761.5,-504 767.5,-504 767.5,-504 805.5,-504 805.5,-504 811.5,-504 817.5,-510 817.5,-516 817.5,-516 817.5,-528 817.5,-528 817.5,-534 811.5,-540 805.5,-540"/>
<text text-anchor="middle" x="786.5" y="-519.5" font-family="sans" font-size="10.00">sort_bam</text>
</g>
<!-- 67&#45;&gt;45 -->
<g id="edge79" class="edge"><title>67&#45;&gt;45</title>
<path fill="none" stroke="grey" stroke-width="2" d="M805.287,-503.697C814.674,-495.05 826.184,-484.449 836.413,-475.027"/>
<polygon fill="grey" stroke="grey" stroke-width="2" points="838.945,-477.454 843.93,-468.104 834.203,-472.305 838.945,-477.454"/>
</g>
<!-- 67&#45;&gt;55 -->
<g id="edge93" class="edge"><title>67&#45;&gt;55</title>
<path fill="none" stroke="grey" stroke-width="2" d="M771.174,-503.697C763.741,-495.305 754.677,-485.07 746.52,-475.861"/>
<polygon fill="grey" stroke="grey" stroke-width="2" points="748.9,-473.27 739.65,-468.104 743.66,-477.911 748.9,-473.27"/>
</g>
<!-- 68 -->
<g id="node69" class="node"><title>68</title>
<path fill="none" stroke="#78d856" stroke-width="2" stroke-dasharray="5,2" d="M933,-708C933,-708 868,-708 868,-708 862,-708 856,-702 856,-696 856,-696 856,-684 856,-684 856,-678 862,-672 868,-672 868,-672 933,-672 933,-672 939,-672 945,-678 945,-684 945,-684 945,-696 945,-696 945,-702 939,-708 933,-708"/>
<text text-anchor="middle" x="900.5" y="-687.5" font-family="sans" font-size="10.00">load_reference</text>
</g>
<!-- 68&#45;&gt;45 -->
<g id="edge80" class="edge"><title>68&#45;&gt;45</title>
<path fill="none" stroke="grey" stroke-width="2" d="M894.183,-671.882C889.963,-659.783 884.63,-643.097 881.5,-628 870.658,-575.708 865.796,-513.365 863.781,-478.365"/>
<polygon fill="grey" stroke="grey" stroke-width="2" points="867.256,-477.807 863.222,-468.01 860.266,-478.184 867.256,-477.807"/>
</g>
<!-- 68&#45;&gt;49 -->
<g id="edge84" class="edge"><title>68&#45;&gt;49</title>
<path fill="none" stroke="grey" stroke-width="2" d="M939.064,-671.939C958.201,-661.7 980.219,-646.957 994.5,-628 1028.72,-582.574 1041.44,-515.335 1046.02,-478.172"/>
<polygon fill="grey" stroke="grey" stroke-width="2" points="1049.52,-478.425 1047.16,-468.096 1042.56,-477.642 1049.52,-478.425"/>
</g>
<!-- 68&#45;&gt;51 -->
<g id="edge88" class="edge"><title>68&#45;&gt;51</title>
<path fill="none" stroke="grey" stroke-width="2" d="M855.836,-688.206C782.327,-685.539 632.357,-674.325 515.5,-628 420.879,-590.49 326.208,-513.766 281.724,-474.819"/>
<polygon fill="grey" stroke="grey" stroke-width="2" points="283.824,-472.004 274.013,-468.004 279.188,-477.249 283.824,-472.004"/>
</g>
<!-- 68&#45;&gt;52 -->
<g id="edge90" class="edge"><title>68&#45;&gt;52</title>
<path fill="none" stroke="grey" stroke-width="2" d="M855.945,-678.876C819.947,-669.383 768.959,-652.883 729.5,-628 662.328,-585.642 600.598,-513.907 570.595,-476.077"/>
<polygon fill="grey" stroke="grey" stroke-width="2" points="573.268,-473.813 564.343,-468.103 567.759,-478.132 573.268,-473.813"/>
</g>
<!-- 68&#45;&gt;61 -->
<g id="edge94" class="edge"><title>68&#45;&gt;61</title>
<path fill="none" stroke="grey" stroke-width="2" d="M945.269,-687.939C1031.03,-684.895 1223.7,-673.158 1378.5,-628 1382.35,-626.878 1386.26,-625.51 1390.14,-623.998"/>
<polygon fill="grey" stroke="grey" stroke-width="2" points="1391.76,-627.111 1399.62,-620.001 1389.04,-620.661 1391.76,-627.111"/>
</g>
<!-- 68&#45;&gt;62 -->
<g id="edge95" class="edge"><title>68&#45;&gt;62</title>
<path fill="none" stroke="grey" stroke-width="2" d="M938.693,-671.803C969.111,-658.107 1011.84,-638.868 1044.38,-624.216"/>
<polygon fill="grey" stroke="grey" stroke-width="2" points="1046.02,-627.317 1053.7,-620.02 1043.14,-620.934 1046.02,-627.317"/>
</g>
<!-- 68&#45;&gt;63 -->
<g id="edge96" class="edge"><title>68&#45;&gt;63</title>
<path fill="none" stroke="grey" stroke-width="2" d="M945.033,-680.373C995.165,-670.128 1078.73,-651.437 1148.5,-628 1152.25,-626.74 1156.1,-625.338 1159.94,-623.859"/>
<polygon fill="grey" stroke="grey" stroke-width="2" points="1161.43,-627.031 1169.41,-620.064 1158.83,-620.533 1161.43,-627.031"/>
</g>
<!-- 68&#45;&gt;64 -->
<g id="edge97" class="edge"><title>68&#45;&gt;64</title>
<path fill="none" stroke="grey" stroke-width="2" d="M945.138,-684.988C1014.41,-677.987 1151.48,-661.029 1263.5,-628 1267.58,-626.796 1271.76,-625.383 1275.91,-623.851"/>
<polygon fill="grey" stroke="grey" stroke-width="2" points="1277.45,-627.008 1285.49,-620.105 1274.9,-620.489 1277.45,-627.008"/>
</g>
<!-- 71 -->
<g id="node72" class="node"><title>71</title>
<path fill="none" stroke="#56a2d8" stroke-width="2" d="M382,-628C382,-628 311,-628 311,-628 305,-628 299,-622 299,-616 299,-616 299,-588 299,-588 299,-582 305,-576 311,-576 311,-576 382,-576 382,-576 388,-576 394,-582 394,-588 394,-588 394,-616 394,-616 394,-622 388,-628 382,-628"/>
<text text-anchor="middle" x="346.5" y="-616" font-family="sans" font-size="10.00">paired_mapping</text>
<text text-anchor="middle" x="346.5" y="-605" font-family="sans" font-size="10.00">TMP_D: tmp</text>
<text text-anchor="middle" x="346.5" y="-594" font-family="sans" font-size="10.00">mapper: bwa</text>
<text text-anchor="middle" x="346.5" y="-583" font-family="sans" font-size="10.00">strain: F1659</text>
</g>
<!-- 68&#45;&gt;71 -->
<g id="edge107" class="edge"><title>68&#45;&gt;71</title>
<path fill="none" stroke="grey" stroke-width="2" d="M855.974,-684.134C775.907,-675.102 602.455,-654.255 457.5,-628 440.033,-624.836 421.151,-620.813 404,-616.924"/>
<polygon fill="grey" stroke="grey" stroke-width="2" points="404.656,-613.483 394.126,-614.657 403.089,-620.306 404.656,-613.483"/>
</g>
<!-- 72 -->
<g id="node73" class="node"><title>72</title>
<path fill="none" stroke="#56a2d8" stroke-width="2" d="M822,-628C822,-628 751,-628 751,-628 745,-628 739,-622 739,-616 739,-616 739,-588 739,-588 739,-582 745,-576 751,-576 751,-576 822,-576 822,-576 828,-576 834,-582 834,-588 834,-588 834,-616 834,-616 834,-622 828,-628 822,-628"/>
<text text-anchor="middle" x="786.5" y="-616" font-family="sans" font-size="10.00">paired_mapping</text>
<text text-anchor="middle" x="786.5" y="-605" font-family="sans" font-size="10.00">TMP_D: tmp</text>
<text text-anchor="middle" x="786.5" y="-594" font-family="sans" font-size="10.00">mapper: bwa</text>
<text text-anchor="middle" x="786.5" y="-583" font-family="sans" font-size="10.00">strain: CH2500</text>
</g>
<!-- 68&#45;&gt;72 -->
<g id="edge108" class="edge"><title>68&#45;&gt;72</title>
<path fill="none" stroke="grey" stroke-width="2" d="M877.704,-671.803C863.521,-661.104 844.854,-647.022 828.105,-634.386"/>
<polygon fill="grey" stroke="grey" stroke-width="2" points="830.155,-631.549 820.064,-628.32 825.94,-637.137 830.155,-631.549"/>
</g>
<!-- 73 -->
<g id="node74" class="node"><title>73</title>
<path fill="none" stroke="#56a2d8" stroke-width="2" d="M608,-628C608,-628 537,-628 537,-628 531,-628 525,-622 525,-616 525,-616 525,-588 525,-588 525,-582 531,-576 537,-576 537,-576 608,-576 608,-576 614,-576 620,-582 620,-588 620,-588 620,-616 620,-616 620,-622 614,-628 608,-628"/>
<text text-anchor="middle" x="572.5" y="-616" font-family="sans" font-size="10.00">paired_mapping</text>
<text text-anchor="middle" x="572.5" y="-605" font-family="sans" font-size="10.00">TMP_D: tmp</text>
<text text-anchor="middle" x="572.5" y="-594" font-family="sans" font-size="10.00">mapper: bwa</text>
<text text-anchor="middle" x="572.5" y="-583" font-family="sans" font-size="10.00">strain: CH2502</text>
</g>
<!-- 68&#45;&gt;73 -->
<g id="edge109" class="edge"><title>68&#45;&gt;73</title>
<path fill="none" stroke="grey" stroke-width="2" d="M855.996,-679.143C805.807,-667.796 721.881,-648.12 650.5,-628 643.879,-626.134 636.975,-624.08 630.132,-621.976"/>
<polygon fill="grey" stroke="grey" stroke-width="2" points="630.777,-618.511 620.188,-618.875 628.692,-625.194 630.777,-618.511"/>
</g>
<!-- 74 -->
<g id="node75" class="node"><title>74</title>
<path fill="none" stroke="#56a2d8" stroke-width="2" d="M974,-628C974,-628 903,-628 903,-628 897,-628 891,-622 891,-616 891,-616 891,-588 891,-588 891,-582 897,-576 903,-576 903,-576 974,-576 974,-576 980,-576 986,-582 986,-588 986,-588 986,-616 986,-616 986,-622 980,-628 974,-628"/>
<text text-anchor="middle" x="938.5" y="-616" font-family="sans" font-size="10.00">paired_mapping</text>
<text text-anchor="middle" x="938.5" y="-605" font-family="sans" font-size="10.00">TMP_D: tmp</text>
<text text-anchor="middle" x="938.5" y="-594" font-family="sans" font-size="10.00">mapper: bwa</text>
<text text-anchor="middle" x="938.5" y="-583" font-family="sans" font-size="10.00">strain: CH2522</text>
</g>
<!-- 68&#45;&gt;74 -->
<g id="edge110" class="edge"><title>68&#45;&gt;74</title>
<path fill="none" stroke="grey" stroke-width="2" d="M908.19,-671.597C912.536,-661.76 918.125,-649.113 923.316,-637.363"/>
<polygon fill="grey" stroke="grey" stroke-width="2" points="926.523,-638.765 927.364,-628.204 920.12,-635.936 926.523,-638.765"/>
</g>
<!-- 69 -->
<g id="node70" class="node"><title>69</title>
<path fill="none" stroke="#56d85b" stroke-width="2" d="M570.5,-540C570.5,-540 532.5,-540 532.5,-540 526.5,-540 520.5,-534 520.5,-528 520.5,-528 520.5,-516 520.5,-516 520.5,-510 526.5,-504 532.5,-504 532.5,-504 570.5,-504 570.5,-504 576.5,-504 582.5,-510 582.5,-516 582.5,-516 582.5,-528 582.5,-528 582.5,-534 576.5,-540 570.5,-540"/>
<text text-anchor="middle" x="551.5" y="-519.5" font-family="sans" font-size="10.00">sort_bam</text>
</g>
<!-- 69&#45;&gt;47 -->
<g id="edge82" class="edge"><title>69&#45;&gt;47</title>
<path fill="none" stroke="grey" stroke-width="2" d="M521.411,-503.876C505.18,-494.639 484.958,-483.131 467.529,-473.212"/>
<polygon fill="grey" stroke="grey" stroke-width="2" points="469.127,-470.094 458.705,-468.19 465.665,-476.178 469.127,-470.094"/>
</g>
<!-- 69&#45;&gt;52 -->
<g id="edge89" class="edge"><title>69&#45;&gt;52</title>
<path fill="none" stroke="grey" stroke-width="2" d="M551.5,-503.697C551.5,-495.983 551.5,-486.712 551.5,-478.112"/>
<polygon fill="grey" stroke="grey" stroke-width="2" points="555,-478.104 551.5,-468.104 548,-478.104 555,-478.104"/>
</g>
<!-- 70 -->
<g id="node71" class="node"><title>70</title>
<path fill="none" stroke="#56d85b" stroke-width="2" d="M974.5,-540C974.5,-540 936.5,-540 936.5,-540 930.5,-540 924.5,-534 924.5,-528 924.5,-528 924.5,-516 924.5,-516 924.5,-510 930.5,-504 936.5,-504 936.5,-504 974.5,-504 974.5,-504 980.5,-504 986.5,-510 986.5,-516 986.5,-516 986.5,-528 986.5,-528 986.5,-534 980.5,-540 974.5,-540"/>
<text text-anchor="middle" x="955.5" y="-519.5" font-family="sans" font-size="10.00">sort_bam</text>
</g>
<!-- 70&#45;&gt;49 -->
<g id="edge85" class="edge"><title>70&#45;&gt;49</title>
<path fill="none" stroke="grey" stroke-width="2" d="M978.489,-503.697C990.314,-494.796 1004.89,-483.823 1017.68,-474.199"/>
<polygon fill="grey" stroke="grey" stroke-width="2" points="1019.89,-476.915 1025.78,-468.104 1015.68,-471.322 1019.89,-476.915"/>
</g>
<!-- 70&#45;&gt;54 -->
<g id="edge92" class="edge"><title>70&#45;&gt;54</title>
<path fill="none" stroke="grey" stroke-width="2" d="M956.489,-503.697C956.93,-495.983 957.459,-486.712 957.951,-478.112"/>
<polygon fill="grey" stroke="grey" stroke-width="2" points="961.446,-478.288 958.523,-468.104 954.458,-477.888 961.446,-478.288"/>
</g>
<!-- 71&#45;&gt;66 -->
<g id="edge103" class="edge"><title>71&#45;&gt;66</title>
<path fill="none" stroke="grey" stroke-width="2" d="M317.206,-575.891C306.358,-566.593 294.097,-556.083 283.379,-546.896"/>
<polygon fill="grey" stroke="grey" stroke-width="2" points="285.402,-544.021 275.532,-540.17 280.847,-549.336 285.402,-544.021"/>
</g>
<!-- 72&#45;&gt;67 -->
<g id="edge104" class="edge"><title>72&#45;&gt;67</title>
<path fill="none" stroke="grey" stroke-width="2" d="M786.5,-575.891C786.5,-567.84 786.5,-558.88 786.5,-550.658"/>
<polygon fill="grey" stroke="grey" stroke-width="2" points="790,-550.411 786.5,-540.411 783,-550.411 790,-550.411"/>
</g>
<!-- 73&#45;&gt;69 -->
<g id="edge105" class="edge"><title>73&#45;&gt;69</title>
<path fill="none" stroke="grey" stroke-width="2" d="M565.74,-575.891C563.524,-567.659 561.052,-558.477 558.797,-550.104"/>
<polygon fill="grey" stroke="grey" stroke-width="2" points="562.167,-549.157 556.187,-540.411 555.408,-550.977 562.167,-549.157"/>
</g>
<!-- 74&#45;&gt;70 -->
<g id="edge106" class="edge"><title>74&#45;&gt;70</title>
<path fill="none" stroke="grey" stroke-width="2" d="M943.972,-575.891C945.747,-567.749 947.724,-558.679 949.532,-550.381"/>
<polygon fill="grey" stroke="grey" stroke-width="2" points="952.996,-550.927 951.705,-540.411 946.156,-549.436 952.996,-550.927"/>
</g>
</g>
</svg>
